<svg xmlns="http://www.w3.org/2000/svg" viewBox="0 0 635 635">
  <g id="Object">
    <g>
      <circle cx="317.5" cy="317.5" r="317.5" style="fill: #f6d738"/>
      <circle cx="317.5" cy="317.5" r="269.46" style="fill: #f3cc30"/>
      <path d="M702,331a268.22,268.22,0,0,1,42.39,145.14c0,148.82-120.64,269.46-269.46,269.46a268.22,268.22,0,0,1-141-39.8A269.24,269.24,0,0,0,561,830.14c148.82,0,269.46-120.64,269.46-269.46A269.26,269.26,0,0,0,702,331Z" transform="translate(-243.5 -243.5)" style="fill: #edbd31"/>
      <path d="M338.74,585.66c0-131.37,106.5-237.87,237.87-237.87a237.46,237.46,0,0,1,188.55,92.87A237.77,237.77,0,0,0,558.9,321.35C427.53,321.35,321,427.84,321,559.21a236.84,236.84,0,0,0,49.31,145A236.82,236.82,0,0,1,338.74,585.66Z" transform="translate(-243.5 -243.5)" style="fill: #f7db5e"/>
    </g>
    <g>
      <path d="M676.8,595.75c-53.73,62.58-132.64,83-176.26,45.51s-35.42-118.54,18.31-181.12,176.26-45.51,176.26-45.51S730.53,533.17,676.8,595.75Z" transform="translate(-243.5 -243.5)" style="fill: #678e39"/>
      <path d="M696.22,418.68c-.67-2.57-1.11-4.05-1.11-4.05s-122.53-17.07-176.26,45.51-61.93,143.67-18.31,181.12c.89.76,1.89,1.36,2.81,2.07Z" transform="translate(-243.5 -243.5)" style="fill: #2c3f13;opacity: 0.4"/>
      <path d="M688.46,423.32S445,702.53,428.32,730.35" transform="translate(-243.5 -243.5)" style="fill: none;stroke: #2c3f13;stroke-linecap: round;stroke-miterlimit: 10;stroke-width: 20px"/>
      <polyline points="329.48 238.1 317.02 327.75 398.44 308.06" style="fill: none;stroke: #2c3f13;stroke-linecap: round;stroke-miterlimit: 10;stroke-width: 15px"/>
    </g>
  </g>
</svg>
