<svg xmlns="http://www.w3.org/2000/svg" viewBox="0 0 421.08 425.2">
  <g style="isolation: isolate">
    <g id="Capa_1" data-name="Capa 1">
      <g>
        <g>
          <path d="M181,318.93a29.25,29.25,0,0,0,58.5,0Z" style="fill: #352e35"/>
          <path d="M201.87,345.47a8.38,8.38,0,0,0,16.75,0Z" style="fill: #352e35"/>
          <path d="M172,321.17a9.65,9.65,0,0,0,9.62,9.2H238.9a9.65,9.65,0,0,0,9.63-9.2Z" style="fill: #352e35"/>
          <rect x="169.91" y="278.35" width="81.15" height="35.27" style="fill: #352e35"/>
          <path d="M301.83,162.65A91.29,91.29,0,1,0,170,244.46v32.12h81V244.46A91.28,91.28,0,0,0,301.83,162.65Z" style="fill: #ededed"/>
          <path d="M218.66,258.16c-15.09-6.25-16.44-21.68-27.38-31.54-11.56-10.41-23.6-15.35-31.49-29.78-15.32-28-19.5-61.13-1.14-88.9A125.89,125.89,0,0,1,194,72.88a91.28,91.28,0,0,0-24,171.58v32.12h81V261.36C241,263.63,230,262.85,218.66,258.16Z" style="fill: #ededed;mix-blend-mode: multiply"/>
          <path d="M208.69,82.16C210.26,100,229,121.5,239.61,130.94c12.83,11.45,31.92,23.17,49.79,23.36a79.44,79.44,0,0,0-79.1-72.18C209.76,82.12,209.23,82.15,208.69,82.16Z" style="fill: #fff"/>
          <g>
            <path d="M255.3,274.46a7.08,7.08,0,0,1-7.08,7.08H171.79a7.08,7.08,0,0,1-7.07-7.08h0a7.08,7.08,0,0,1,7.07-7.08h76.43a7.08,7.08,0,0,1,7.08,7.08Z" style="fill: #352e35"/>
            <path d="M164.79,275.17a7.05,7.05,0,0,0,7,6.37h76.43a7.06,7.06,0,0,0,7-6.37Z" style="fill: #b2b2b2;mix-blend-mode: multiply"/>
            <path d="M251.05,269.8c0,.6-1,1.08-2.16,1.08H169.83c-1.19,0-2.16-.48-2.16-1.08h0c0-.6,1-1.08,2.16-1.08h79.06c1.19,0,2.16.48,2.16,1.08Z" style="fill: #fff"/>
          </g>
          <g>
            <path d="M255.3,294.75a7.07,7.07,0,0,1-7.08,7.07H171.79a7.07,7.07,0,0,1-7.07-7.07h0a7.08,7.08,0,0,1,7.07-7.08h76.43a7.08,7.08,0,0,1,7.08,7.08Z" style="fill: #352e35"/>
            <path d="M164.79,295.46a7,7,0,0,0,7,6.36h76.43a7,7,0,0,0,7-6.36Z" style="fill: #b2b2b2;mix-blend-mode: multiply"/>
            <path d="M251.05,290.09c0,.6-1,1.08-2.16,1.08H169.83c-1.19,0-2.16-.48-2.16-1.08h0c0-.6,1-1.08,2.16-1.08h79.06c1.19,0,2.16.48,2.16,1.08Z" style="fill: #fff"/>
          </g>
          <g>
            <path d="M255.3,315a7.08,7.08,0,0,1-7.08,7.08H171.79a7.08,7.08,0,0,1-7.07-7.08h0a7.08,7.08,0,0,1,7.07-7.07h76.43A7.08,7.08,0,0,1,255.3,315Z" style="fill: #352e35"/>
            <path d="M164.79,315.74a7.05,7.05,0,0,0,7,6.37h76.43a7.06,7.06,0,0,0,7-6.37Z" style="fill: #b2b2b2;mix-blend-mode: multiply"/>
            <path d="M251.05,310.38c0,.59-1,1.08-2.16,1.08H169.83c-1.19,0-2.16-.49-2.16-1.08h0c0-.6,1-1.09,2.16-1.09h79.06c1.19,0,2.16.49,2.16,1.09Z" style="fill: #fff"/>
          </g>
        </g>
        <g>
          <g>
            <path d="M173.9,149.92c3.26,18.57,31.14,30.33,31.14,30.33s18.67-19.24,15.29-38.49c-4.6-26.14-21.94-40.11-49.82-43.36C180.41,120.41,170.63,131.35,173.9,149.92Z" style="fill: #538830"/>
            <path d="M180.63,151.92c3.62,5.77,12,13.2,19.65,10.94,2.21-.65,4.5-1.36,5-3.92,1.25-6.22,2.49-12.35,4.11-18.5,1.54-5.83,3.42-12.16,2.82-18.24-.06-.66-.15-1.31-.24-2a54.64,54.64,0,0,1,8.35,21.53C223.71,161,205,180.25,205,180.25s-27.88-11.76-31.14-30.33a50.83,50.83,0,0,1-.43-13.76A79.9,79.9,0,0,0,180.63,151.92Z" style="fill: #afb4b6;mix-blend-mode: multiply"/>
            <path d="M201.23,109.22c-6.61.59-18.14-4.64-22.13-6a1.27,1.27,0,0,0-1.69,1.06c-.51,5.16,2.47,10.7,1.38,15.66a9.66,9.66,0,0,1-4.18,6.23c.88-8,1-16.43-4.1-27.78C182.9,99.84,193.2,103.41,201.23,109.22Z" style="fill: #fff;opacity: 0.30000000000000004;mix-blend-mode: soft-light"/>
            <path d="M204,199.83l.11-4.52c.05-1.44,0-3.09-.07-5.05s-.23-4.18-.35-6.6-.46-5-.8-7.82-.74-5.69-1.3-8.69-1.14-6.1-1.8-9.24c-.31-1.58-.74-3.14-1.11-4.72s-.76-3.17-1.23-4.73-.88-3.14-1.33-4.7-1-3.09-1.48-4.62l-.75-2.28c-.27-.75-.55-1.49-.82-2.23l-1.62-4.38c-.6-1.41-1.19-2.79-1.76-4.15l-.85-2c-.29-.66-.62-1.29-.92-1.92-.61-1.27-1.21-2.5-1.79-3.69s-1.24-2.28-1.81-3.37L182.62,112l-1.71-2.68a48.76,48.76,0,0,0-2.9-4.28l-2.71-3.61,2.89,3.48a50.56,50.56,0,0,1,3.12,4.15l1.85,2.6,1.87,3c.64,1.06,1.38,2.13,2,3.31l2,3.62c.33.62.7,1.25,1,1.9s.64,1.32,1,2l2,4.1,1.86,4.34c.31.73.63,1.47.94,2.21l.87,2.27,1.73,4.59,1.58,4.7c.55,1.56,1,3.15,1.48,4.73s1,3.14,1.36,4.72c.82,3.15,1.66,6.25,2.29,9.3s1.23,6,1.76,8.79.87,5.48,1.21,8,.58,4.74.7,6.8.31,3.87.34,5.3c.06,2.87.1,4.52.1,4.52Z" style="fill: #457228"/>
          </g>
          <g>
            <path d="M260.41,188.71c-12.36,14.21-42.28,9.93-42.28,9.93s-6.08-26.09,6.73-40.83c17.4-20,39.44-23,65-11.47C270,160.09,272.77,174.49,260.41,188.71Z" style="fill: #538830"/>
            <path d="M253.62,187c-6.07,3.06-17.09,5.11-22.47-.76-1.55-1.69-3.14-3.48-2.27-5.93,2.14-6,4.23-11.86,6-18,1.69-5.78,3.35-12.17,7-17.06.4-.54.81-1.06,1.23-1.57a54.56,54.56,0,0,0-18.24,14.13c-12.81,14.74-6.73,40.83-6.73,40.83s29.92,4.28,42.28-9.93a51.51,51.51,0,0,0,7.45-11.56A80.6,80.6,0,0,1,253.62,187Z" style="fill: #afb4b6;mix-blend-mode: multiply"/>
            <path d="M258,139.79c5.35,3.91,17.92,5.37,22,6.27a1.27,1.27,0,0,1,.9,1.77c-2.22,4.69-7.62,7.89-9.24,12.7A9.6,9.6,0,0,0,272,168c3.39-7.32,7.61-14.58,17.82-21.67C278.49,141.2,267.83,139,258,139.79Z" style="fill: #fff;opacity: 0.30000000000000004;mix-blend-mode: soft-light"/>
            <path d="M204.91,213.52l2.4-3.82c.76-1.22,1.83-2.68,3-4.36s2.58-3.46,4.07-5.46,3.24-4,5.09-6.2,3.83-4.41,6-6.64,4.39-4.51,6.7-6.8c1.15-1.15,2.39-2.22,3.59-3.35s2.4-2.25,3.67-3.3l3.75-3.22,3.84-3.05,1.89-1.51,1.94-1.42,3.8-2.76,3.8-2.52,1.84-1.21c.61-.39,1.24-.74,1.84-1.11l3.55-2.1c1.14-.69,2.31-1.22,3.4-1.81l3.14-1.62,2.92-1.3a49,49,0,0,1,4.8-2l4.25-1.51L280,148.16c-1.35.49-2.9,1.28-4.7,2.15l-2.85,1.4-3.06,1.75c-1.05.62-2.2,1.19-3.3,1.93l-3.44,2.22c-.58.39-1.19.76-1.78,1.17l-1.78,1.28-3.66,2.64-3.66,2.89-1.86,1.48-1.82,1.56c-1.21,1.06-2.44,2.11-3.67,3.18l-3.58,3.33c-1.21,1.09-2.35,2.26-3.5,3.41S235,180.81,233.9,182c-2.19,2.35-4.36,4.64-6.34,7s-3.86,4.6-5.63,6.76-3.3,4.32-4.75,6.28-2.71,3.8-3.74,5.46-2,3-2.69,4.3l-2.25,3.91Z" style="fill: #457228"/>
          </g>
          <g>
            <path d="M163.4,193.64C172.1,208,199,208.76,199,208.76s9.29-22,.27-36.86C187,151.7,168.15,145.71,144,152,159.29,167.06,154.7,179.29,163.4,193.64Z" style="fill: #538830"/>
            <path d="M169.63,193.13c4.87,3.61,14.22,7.07,19.83,2.74,1.62-1.25,3.3-2.58,2.9-4.86-1-5.58-1.92-11-2.56-16.68-.61-5.33-1.09-11.19-3.55-16-.26-.53-.55-1-.84-1.55a48.33,48.33,0,0,1,13.87,15.16c9,14.88-.27,36.86-.27,36.86S172.1,208,163.4,193.64a45.52,45.52,0,0,1-4.79-11.27A71.43,71.43,0,0,0,169.63,193.13Z" style="fill: #afb4b6;mix-blend-mode: multiply"/>
            <path d="M173,151.07c-5.29,2.62-16.54,2-20.29,2.16a1.14,1.14,0,0,0-1.06,1.43c1.24,4.45,5.5,8.08,6.19,12.55a8.53,8.53,0,0,1-1.45,6.5c-1.86-6.93-4.47-14-12.36-21.71C154.72,149.2,164.42,148.84,173,151.07Z" style="fill: #fff;opacity: 0.30000000000000004;mix-blend-mode: soft-light"/>
            <path d="M204.89,225.17s-.5-1.38-1.38-3.78c-.43-1.21-1-2.56-1.71-4.18s-1.56-3.39-2.46-5.36-2-4-3.22-6.23-2.48-4.48-3.92-6.78-2.94-4.69-4.51-7.08c-.78-1.2-1.64-2.35-2.47-3.54s-1.66-2.38-2.56-3.53L180,181.23l-2.74-3.34-1.36-1.65-1.41-1.58-2.77-3.09-2.82-2.87c-.91-.95-1.82-1.86-2.75-2.69l-2.68-2.47c-.86-.81-1.78-1.49-2.61-2.2l-2.42-2-2.29-1.66c-1.44-1-2.69-2-3.8-2.6L148.94,153l3.51,2c1.14.59,2.43,1.47,3.91,2.45l2.37,1.58,2.51,1.9c.87.68,1.82,1.33,2.71,2.11l2.8,2.38c1,.8,1.92,1.68,2.88,2.59l3,2.78,2.92,3,1.49,1.53c.47.54.95,1.07,1.44,1.61l2.9,3.27,2.8,3.39c1,1.12,1.84,2.29,2.73,3.45s1.8,2.31,2.64,3.49c1.68,2.35,3.36,4.66,4.85,7s2.93,4.57,4.26,6.73,2.46,4.27,3.53,6.21,2,3.75,2.74,5.41,1.48,3.1,2,4.28c1,2.37,1.53,3.72,1.53,3.72Z" style="fill: #457228"/>
          </g>
          <line x1="206.71" y1="267.22" x2="206.71" y2="198.12" style="fill: none;stroke: #457228;stroke-miterlimit: 10;stroke-width: 5.17335px"/>
        </g>
      </g>
    </g>
  </g>
</svg>
