<svg id="Layer_1" data-name="Layer 1" xmlns="http://www.w3.org/2000/svg" viewBox="0 0 59.34 67.45">
  <g>
    <path d="M33.69,63c1.75,1,1.77,2.65,0,3.66a7,7,0,0,1-5.92.21,3.17,3.17,0,0,1-.41-.21c-.13-.08-.25-.15-.37-.24-1.37-1-1.26-2.49.36-3.42A7,7,0,0,1,33.69,63Z" style="fill: #9e7363"/>
    <rect x="26.06" y="22.6" width="8.95" height="42.26" style="fill: #9e7363"/>
    <path d="M27.55,56.7a3,3,0,0,0,2.11-5.08L13.93,35.9a3,3,0,1,0-4.21,4.21L25.45,55.83A3,3,0,0,0,27.55,56.7Z" style="fill: #9e7363"/>
    <g>
      <path d="M45.41,6.75a21,21,0,1,1-29.75,0A21,21,0,0,1,45.41,6.75Z" style="fill: #74922a"/>
      <path d="M37.42,6.75a15.39,15.39,0,1,1-21.76,0A15.38,15.38,0,0,1,37.42,6.75Z" style="fill: #98ad48"/>
    </g>
    <g>
      <path d="M17.51,32.38A7.45,7.45,0,1,1,7,32.38,7.44,7.44,0,0,1,17.51,32.38Z" style="fill: #74922a"/>
      <path d="M14.68,32.38a5.44,5.44,0,1,1-7.7,0A5.44,5.44,0,0,1,14.68,32.38Z" style="fill: #98ad48"/>
    </g>
    <path d="M33.12,62.33A1.61,1.61,0,0,1,32,59.59l8.48-8.48a1.61,1.61,0,0,1,2.27,2.27l-8.48,8.48A1.63,1.63,0,0,1,33.12,62.33Z" style="fill: #9e7363"/>
    <g>
      <path d="M44.21,49.21a4,4,0,1,1-5.68,0A4,4,0,0,1,44.21,49.21Z" style="fill: #74922a"/>
      <path d="M42.68,49.21a2.93,2.93,0,1,1-4.15,0A2.93,2.93,0,0,1,42.68,49.21Z" style="fill: #98ad48"/>
      <path d="M23.78,9.24a4,4,0,1,1-5.62,0A4,4,0,0,1,23.78,9.24Z" style="fill: #afc161"/>
      <path d="M14.68,32.38a5.44,5.44,0,1,1-7.7,0A5.44,5.44,0,0,1,14.68,32.38Z" style="fill: #98ad48"/>
      <path d="M10,33.23a2,2,0,1,1-2.81,0A2,2,0,0,1,10,33.23Z" style="fill: #afc161"/>
    </g>
  </g>
</svg>
