<svg id="Layer_1" data-name="Layer 1" xmlns="http://www.w3.org/2000/svg" viewBox="0 0 59.96 44.06">
  <g>
    <g>
      <g>
        <polygon points="59.74 21.64 30.16 38.83 0.41 21.65 29.98 4.46 59.74 21.64" style="fill: #5b5b5b"/>
        <g>
          <path d="M7.69,20.76l-.42.2c-.8.38-.87.27-.13-.24l.48-.34c.74-.51.79-1.23.13-1.61a2.91,2.91,0,0,0-2.61.13L1.81,20.84a.86.86,0,0,0,0,1.62l6.3,3.64a2.84,2.84,0,0,0,2.74-.1L14,23.85c.74-.5.68-1.21-.13-1.59l-3.27-1.51A4,4,0,0,0,7.69,20.76Z" style="fill: #a39b99"/>
          <path d="M20.36,26.7A2.7,2.7,0,0,1,18.44,26L17,24.83a2.36,2.36,0,0,0-2.62-.11l-2.69,1.77a.92.92,0,0,0,.05,1.7l4.52,2.61a3.29,3.29,0,0,0,2.84.07L22.69,29c.79-.4.81-1.1,0-1.56l-.34-.21A3.22,3.22,0,0,0,20.36,26.7Z" style="fill: #a39b99"/>
          <path d="M10.78,20.55a2.75,2.75,0,0,0,2.61-.49l.26-.22c.68-.59.85-.44.4.32l-.06.1c-.45.77-.54,1.41-.18,1.43A5.4,5.4,0,0,0,15.87,21l2.57-1.41c.78-.43.78-1.12,0-1.54s-.74-.52.1-.22l.8.29a2.89,2.89,0,0,0,2.41-.14c.49-.39.32-1.14-.39-1.68L17.6,13.39a2.61,2.61,0,0,0-2.68-.17L8.53,16.93c-.77.45-.89,1.17-.26,1.61s1.12.94,1.12,1.12S10,20.24,10.78,20.55Z" style="fill: #a39b99"/>
          <path d="M31,30.59l-2.42-1.86a3.24,3.24,0,0,0-2.8-.43h0A1.21,1.21,0,0,0,25,30.09c.41.67.17.81-.54.32a2.7,2.7,0,0,0-2.67-.07l-1.75,1a.86.86,0,0,0,0,1.63l8.7,5a3.07,3.07,0,0,0,2.8,0L37.8,34.4a1,1,0,0,0,.09-1.76l-1.56-1.11a3.27,3.27,0,0,0-2.67-.45A3.06,3.06,0,0,1,31,30.59Z" style="fill: #a39b99"/>
          <path d="M24.06,22.58a2.75,2.75,0,0,1-2.6-.58l-.79-.76a2.37,2.37,0,0,0-2.59-.35l-.86.46c-.78.42-1.17,1-.87,1.26s.45.58.32.68.32.65,1,1.22l.65.55a2.67,2.67,0,0,0,2,.79,3.07,3.07,0,0,1,2,.68l.91.64a3.76,3.76,0,0,0,2.87.46l1.6-.49a1,1,0,0,0,.53-1.72L26.5,23.3A2.32,2.32,0,0,0,24.06,22.58Z" style="fill: #a39b99"/>
          <path d="M30,28.69l1.49,1.08a3.45,3.45,0,0,0,2.83.44l3.23-1.1c.85-.28.89-.86.1-1.28L34.21,26a3.16,3.16,0,0,0-2.81.08l-1.34.81A1,1,0,0,0,30,28.69Z" style="fill: #a39b99"/>
          <path d="M42.57,23.37l.19.27c.52.73.31,1-.46.51l-.4-.23a3.1,3.1,0,0,0-2.8,0l-1.62.93a.93.93,0,0,0,0,1.71l1.71,1.13c.75.49.68,1.16-.15,1.48l-1.4.54c-.83.32-.92,1-.2,1.53l1.27.93a2.69,2.69,0,0,0,2.71.14l8.25-4.79a1,1,0,0,0,.11-1.8L45,22.1a2.64,2.64,0,0,0-2.31-.52C42.1,21.84,42.05,22.64,42.57,23.37Z" style="fill: #a39b99"/>
          <path d="M30.73,18.21,26,14.07a2.92,2.92,0,0,0-2.73-.47l-1.18.46c-.84.32-.91,1-.16,1.48l.86.56a1.07,1.07,0,0,1,0,1.86l-1.29.95A1.33,1.33,0,0,0,21.41,21l.38.38a2.86,2.86,0,0,0,2.69.57l5.95-2.13A.87.87,0,0,0,30.73,18.21Z" style="fill: #a39b99"/>
          <path d="M35.12,21.46h0a.93.93,0,0,0-.25-1.69h0a4.77,4.77,0,0,0-3-.1L27.62,21.2A1.09,1.09,0,0,0,27.1,23L28.61,25a2,2,0,0,0,2.41.48l.35-.19a4.07,4.07,0,0,1,2.74-.4,4,4,0,0,0,2.73-.43l1.41-.83a.88.88,0,0,0,0-1.65h0a3.48,3.48,0,0,0-2.86-.14l0,0C34.53,22.19,34.43,22,35.12,21.46Z" style="fill: #a39b99"/>
          <path d="M26,13.4l1,.68a2,2,0,0,0,2.2.21,1.74,1.74,0,0,0,.46-1.85c-.22-.63.19-.81.94-.39a2.75,2.75,0,0,0,2.53,0c.65-.42.6-1.19-.12-1.73L28.61,7a2.63,2.63,0,0,0-2.69-.16L18.39,11.2A1,1,0,0,0,18.3,13l.63.45a3.16,3.16,0,0,0,2.8.32l1.48-.62A3.24,3.24,0,0,1,26,13.4Z" style="fill: #a39b99"/>
          <path d="M46.94,22.58l3.73,2.64a2.79,2.79,0,0,0,2.73.12l1.09-.64a.85.85,0,0,0,0-1.61l-3.89-2.17a3.7,3.7,0,0,0-2.9-.16l-.58.25C46.29,21.36,46.21,22.06,46.94,22.58Z" style="fill: #a39b99"/>
          <path d="M37.68,13.81l-1.48-.89a3.69,3.69,0,0,0-2.89-.24l-.77.3a7.67,7.67,0,0,0-2.4,1.56,1.58,1.58,0,0,0,.24,2.11l.87.89a2.83,2.83,0,0,0,2.35.86,3.63,3.63,0,0,1,2.53.64l1.62,1.15a8.71,8.71,0,0,0,2.57,1.2,4.19,4.19,0,0,0,2.52-.5c.71-.42.65-1.12-.13-1.55l-3.65-2c-.78-.44-1.09-1.21-.7-1.73S38.45,14.27,37.68,13.81Z" style="fill: #a39b99"/>
          <path d="M36.6,8.28l-5.22-3A2.7,2.7,0,0,0,29,5c-.53.31-.39,1,.32,1.55l4.18,3.24a2.72,2.72,0,0,0,2.71.23l.34-.18C37.37,9.44,37.38,8.73,36.6,8.28Z" style="fill: #a39b99"/>
          <path d="M39.36,15.22c-.16.48.35,1.21,1.14,1.62l1.55.82a2.51,2.51,0,0,0,2.64-.32l1.76-1.59a1.1,1.1,0,0,0-.2-1.89l-6-3.47a3.32,3.32,0,0,0-2.84-.07l-.46.23a.93.93,0,0,0-.14,1.71l1.53,1.14C39.06,13.93,39.51,14.75,39.36,15.22Z" style="fill: #a39b99"/>
          <path d="M44.8,20.62a.66.66,0,0,0,.07.77c.18.14,1-.07,1.77-.46l4.94-2.44c.8-.4.82-1.09,0-1.53l-.81-.48a3.05,3.05,0,0,0-2.79,0L45.52,18c-.77.46-1.19,1.12-.93,1.47A1.28,1.28,0,0,1,44.8,20.62Z" style="fill: #a39b99"/>
          <path d="M58,22.64l.32-.18a.86.86,0,0,0,0-1.62l-2.52-1.46a4,4,0,0,0-2.93-.27l-1.4.48c-.85.3-.88.86-.08,1.26l3.77,1.88A3.32,3.32,0,0,0,58,22.64Z" style="fill: #a39b99"/>
        </g>
        <g>
          <path d="M30.94,19.16c0-.32-.32-.32-.39-.69L28,16.27a4.17,4.17,0,0,0-2.36-2.08,4,4,0,0,0-3.11.11,2.83,2.83,0,0,1,.73,2.92c-.08,1-.4,2.26.25,2.91C26.09,22.4,28.35,18.84,30.94,19.16Z" style="fill: #cec9c8"/>
          <path d="M29.27,26.22Z" style="fill: #cec9c8"/>
          <path d="M34.5,22.4c-.65-1,1-2.27-1-2.59-1.62,0-3.24,0-3.88,1.29-2.27,3.56,2.91,3.89,4.88,2.54a1.49,1.49,0,0,0,.45,0,13,13,0,0,0,2.76-1.28C36.77,21.75,35.47,23,34.5,22.4Z" style="fill: #cec9c8"/>
          <path d="M28.35,26.28A14.73,14.73,0,0,0,19.85,22a11.43,11.43,0,0,0-2.18-.22,4.06,4.06,0,0,0,1.1,1.84c1.81.75,3.43,1.72,5.35,2.6a2.94,2.94,0,0,0,1.58.41C26.73,26.93,27.38,26,28.35,26.28Z" style="fill: #cec9c8"/>
          <path d="M34.17,12.36c-1.61.33-3.23,1-2.9,2.92.64,1.94,2.58,1.94,4.28,2.2A3.74,3.74,0,0,1,38.42,19a6.47,6.47,0,0,0,2,1,17,17,0,0,0,1.82-.55,2.78,2.78,0,0,1-1.94-1c-1.22-1.7-2.25-3.94-4-5.23A5.54,5.54,0,0,0,34.17,12.36Z" style="fill: #cec9c8"/>
          <path d="M45.18,15.6c.33-.65.65-1,.33-1.62A3.85,3.85,0,0,0,43,12a8,8,0,0,1-2.9-1.37A2.69,2.69,0,0,0,38,10.53c.36,2.16,2,3.78,3.59,5.39C42.92,16.57,44.21,16.89,45.18,15.6Z" style="fill: #cec9c8"/>
          <path d="M45.51,20.45c1-1.94,3.23-1.94,4.85-2.91-.64-.65-1.29-1.29-2.29-.71l-2.48,1.35A2.47,2.47,0,0,0,45.51,20.45Z" style="fill: #cec9c8"/>
          <path d="M34,26.2c-1.71-.57-4,1.05-2.36,2.35,1.62,1,3.88.32,5.31-.82Z" style="fill: #cec9c8"/>
          <path d="M22.2,30.81c-.65.33-1.29,1-1.94,1.3,5.18,3.56,12,6.79,17,.85.15-.1.18-.19.18-.2-3.54-1.62-7.1-1.62-10-4.21C26.73,30.81,24.14,30.49,22.2,30.81Z" style="fill: #cec9c8"/>
          <path d="M15.4,24.66a2.47,2.47,0,0,0-1.82,1.14,1.76,1.76,0,0,0-.12,2.1c1,1,2.27,1.28,3.49,1.92a2.64,2.64,0,0,0,2.1.05,10.35,10.35,0,0,1,3.47-1.65C20.26,27.25,18,25.31,15.4,24.66Z" style="fill: #cec9c8"/>
          <path d="M6,20.13c0-.65.65-1,1.3-1-1.94-.32-3.56,1.29-5.18,2.27C4.4,23,7,23.69,9.48,25a2,2,0,0,0,1-.3,8,8,0,0,1,3.58-2.34C11.84,20.13,8,22.72,6,20.13Z" style="fill: #cec9c8"/>
          <path d="M46.8,21.1C48.42,22.72,50.68,25,53.36,24l.16-.09C51.33,23,49.72,20.78,46.8,21.1Z" style="fill: #cec9c8"/>
          <path d="M43.24,23.37c-.48,1.13-1.46.81-2.43.52a1.54,1.54,0,0,0-2.42,1.74c.32.65,1.29,1,1.61,1.95a2,2,0,0,1-2.59,2.26,4.73,4.73,0,0,0,5.5-.43c.83-.56,1.67-1.24,2.55-1.81a6.75,6.75,0,0,1,2.84-1.12c.15-.08.21-.16.21-.2-2-1.29-3.33-3.88-5.92-4.21C42.92,22.4,43.56,22.72,43.24,23.37Z" style="fill: #cec9c8"/>
          <path d="M54.68,19.93a4.62,4.62,0,0,0-3.29.08,9.84,9.84,0,0,0,2.78,1.77,4.5,4.5,0,0,0,3.29,0l.16-.11A8.35,8.35,0,0,0,54.68,19.93Z" style="fill: #cec9c8"/>
          <path d="M15.4,18.84a2,2,0,0,0-.32,1.29,5.61,5.61,0,0,1,3.56-1.94c-.65,0-1.3-.33-1.3-1,.65-1.94,2.92-1.3,4.21-.33C18.64,13,12.17,14,8.86,17.05a.85.85,0,0,0-.25.21C10.22,19.16,13.14,17.86,15.4,18.84Z" style="fill: #cec9c8"/>
          <path d="M22.43,12a18,18,0,0,1,2.12-.29A4.58,4.58,0,0,1,28.35,13a3.53,3.53,0,0,1,2.59-2.59,4,4,0,0,1,1.94.33c-2.15-3.24-6.18-3.46-9.67-2.19a13.22,13.22,0,0,0-2.48,1.2,12,12,0,0,0-2.06,1.6c-.17.1-.2.18-.2.19C19.61,12.69,21.23,12,22.43,12Z" style="fill: #cec9c8"/>
          <path d="M29.2,15.1v0Z" style="fill: #cec9c8"/>
          <path d="M36.44,8.48a33.48,33.48,0,0,0-3.38-1.62A28.78,28.78,0,0,1,29.8,5.28a1.75,1.75,0,0,0-.23,0c1.05.93,2,1.58,3.1,2.68A3.63,3.63,0,0,0,36.44,8.48Z" style="fill: #cec9c8"/>
          <g>
            <path d="M4.08,21.13c-.15.06.48.95.73.84s.38-1.83.2-1.81S4.41,21,4.08,21.13Z" style="fill: #727272"/>
            <path d="M33.24,21.36a1.3,1.3,0,0,0-1.72-.07c-1.42,1.44.61,1,1.72.76C33.48,22,33.38,21.54,33.24,21.36Z" style="fill: #727272"/>
            <path d="M25.22,31.69a1.33,1.33,0,0,0-1.73-.07c-1.41,1.44.62,1,1.73.76C25.45,32.34,25.36,31.87,25.22,31.69Z" style="fill: #727272"/>
            <path d="M29,32.83A1.27,1.27,0,0,0,27.86,34c.12,1.92,1.09.15,1.66-.76C29.64,33.07,29.23,32.85,29,32.83Z" style="fill: #727272"/>
            <path d="M21.28,23.42c-.09.48,1.17,1.48,1.56,1.19S21.54,21.94,21.28,23.42Z" style="fill: #727272"/>
            <path d="M11.72,16.76c.23.23.65.62,1,.28s.1-.87,0-1.13C12.29,14.85,11.24,16.29,11.72,16.76Z" style="fill: #727272"/>
            <path d="M34.58,14.51a.69.69,0,0,0-.76-.9C31.63,13.62,34.93,16.21,34.58,14.51Z" style="fill: #727272"/>
            <path d="M28.64,18.53c-.95-.89-.1-3,.66-.52C29.33,18.11,28.72,18.61,28.64,18.53Z" style="fill: #727272"/>
            <path d="M41.59,14a1.6,1.6,0,0,0,.22-1C39.32,10.41,41.42,14,41.59,14Z" style="fill: #727272"/>
            <path d="M44.88,26a1.43,1.43,0,0,0,.22-1C42.61,22.44,44.71,26.07,44.88,26Z" style="fill: #727272"/>
            <path d="M21.3,11.14c.24.3,1.47-.45,1.46-.54C22.53,8.89,21.05,10.83,21.3,11.14Z" style="fill: #727272"/>
            <path d="M29.29,9.41c-.2-.17-1.64-.39-1.82-.12-.41.61.87,1.83,1.31.84C28.85,10,29.42,9.52,29.29,9.41Z" style="fill: #727272"/>
          </g>
          <g>
            <path d="M57,22c.1,0-.29-.57-.44-.5s-.23,1.11-.12,1.1S56.78,22.11,57,22Z" style="fill: #727272"/>
            <path d="M38.19,19.44a.82.82,0,0,0,1.06,0c.86-.87-.38-.58-1.06-.45C38.05,19,38.11,19.32,38.19,19.44Z" style="fill: #727272"/>
            <path d="M42.71,15.5a.8.8,0,0,0,1,0c.86-.87-.37-.58-1-.45C42.57,15.1,42.62,15.38,42.71,15.5Z" style="fill: #727272"/>
            <path d="M34.93,10.05a.77.77,0,0,0,.7-.73c-.07-1.17-.66-.09-1,.47C34.55,9.9,34.8,10,34.93,10.05Z" style="fill: #727272"/>
            <path d="M46.13,20.57c.06-.3-.71-.91-1-.73S46,21.47,46.13,20.57Z" style="fill: #727272"/>
            <path d="M50.81,23.16c-.14-.14-.39-.38-.59-.17s-.06.53,0,.69C50.46,24.33,51.1,23.44,50.81,23.16Z" style="fill: #727272"/>
            <path d="M33.13,26.87a.43.43,0,0,0,.47.55C34.93,27.42,32.92,25.84,33.13,26.87Z" style="fill: #727272"/>
            <path d="M31.56,22.9c.59.54.07,1.81-.4.32C31.14,23.15,31.52,22.85,31.56,22.9Z" style="fill: #727272"/>
            <path d="M36.52,15.91a.89.89,0,0,0-.13.59C37.9,18.08,36.62,15.86,36.52,15.91Z" style="fill: #727272"/>
            <path d="M30.21,18.68a1,1,0,0,0-.13.59C31.6,20.85,30.32,18.63,30.21,18.68Z" style="fill: #727272"/>
            <path d="M45,26.59c-.15-.19-.9.27-.89.33C44.22,28,45.12,26.77,45,26.59Z" style="fill: #727272"/>
            <path d="M40.1,27.64c.12.1,1,.24,1.11.07.25-.37-.53-1.12-.8-.51C40.37,27.3,40,27.57,40.1,27.64Z" style="fill: #727272"/>
          </g>
          <g>
            <path d="M35,20.91c.1,0-.29-.57-.45-.5s-.22,1.11-.11,1.09S34.8,21,35,20.91Z" style="fill: #727272"/>
            <path d="M16.22,18.31a.79.79,0,0,0,1.05,0c.86-.87-.37-.58-1.05-.45C16.08,17.92,16.14,18.2,16.22,18.31Z" style="fill: #727272"/>
            <path d="M15,27.51a.79.79,0,0,0,1,0c.86-.87-.37-.58-1-.46C14.88,27.12,15,27.4,15,27.51Z" style="fill: #727272"/>
            <path d="M24.49,11.83a.76.76,0,0,0,.7-.72c-.07-1.17-.66-.09-1,.46C24.11,11.69,24.35,11.82,24.49,11.83Z" style="fill: #727272"/>
            <path d="M24.16,19.45c.06-.3-.71-.91-.95-.73S24,20.35,24.16,19.45Z" style="fill: #727272"/>
            <path d="M28.84,22c-.14-.14-.4-.38-.59-.17s-.06.53,0,.69C28.49,23.2,29.13,22.32,28.84,22Z" style="fill: #727272"/>
            <path d="M34.56,33a.43.43,0,0,0,.47.55C36.36,33.52,34.35,31.94,34.56,33Z" style="fill: #727272"/>
            <path d="M9.59,21.78c.58.54.07,1.81-.4.32C9.17,22,9.54,21.73,9.59,21.78Z" style="fill: #727272"/>
            <path d="M14.55,14.79a.9.9,0,0,0-.14.59C15.93,17,14.65,14.74,14.55,14.79Z" style="fill: #727272"/>
            <path d="M8.24,17.56a1,1,0,0,0-.13.59C9.63,19.73,8.35,17.51,8.24,17.56Z" style="fill: #727272"/>
            <path d="M30.88,35.5c-.15-.18-.9.27-.89.33C30.13,36.87,31,35.68,30.88,35.5Z" style="fill: #727272"/>
            <path d="M29,30.78c.12.11,1,.24,1.11.08.25-.38-.53-1.12-.8-.51C29.24,30.44,28.89,30.72,29,30.78Z" style="fill: #727272"/>
          </g>
        </g>
      </g>
      <polygon points="30.16 38.83 30.16 44.06 0.41 26.88 0.41 21.65 30.16 38.83" style="fill: #cec9c8"/>
      <path d="M1.52,22.29s-.87,1,1,2.37S8.34,28,8.61,27.34a1,1,0,0,0,0-1Z" style="fill: #8c8280"/>
      <path d="M16.85,31,11.6,28.1s-1.3,0-.46.92S17,32.87,17,32.15A2.87,2.87,0,0,0,16.85,31Z" style="fill: #8c8280"/>
      <path d="M19.82,32.85s-1.65-.07-.78.67,8.63,7.08,11.12,7V38.83Z" style="fill: #8c8280"/>
      <path d="M8.85,28.55S3.56,25.17,3.06,26s9.22,8.09,8.54,6S12.4,30.06,8.85,28.55Z" style="fill: #8c8280"/>
      <path d="M3.58,28.71c.08-.56-1.53-.89-1.45-2S.41,24.24.41,24.24v2.64Z" style="fill: #8c8280"/>
      <path d="M12.2,30.93c-1.18.7.28,2.92,3.07,4.53s3.78.38,2.89-.35S13.77,30,12.2,30.93Z" style="fill: #8c8280"/>
      <path d="M17.84,33.53s2,2.48.94,2.92,1.59,1.78,2.18.84S16.25,31.66,17.84,33.53Z" style="fill: #8c8280"/>
      <path d="M22.39,37.29s2.81,4.29,5.79,5.24.68-1.34-.32-1.84S21.22,35.17,22.39,37.29Z" style="fill: #8c8280"/>
      <path d="M21.55,37.62s-1.18,0-.28.74,2.48,2.2,2,1.4S21.23,36.38,21.55,37.62Z" style="fill: #8c8280"/>
      <polygon points="30.16 38.83 30.16 44.06 59.74 26.87 59.74 21.64 30.16 38.83" style="fill: #5b5b5b"/>
      <path d="M30.89,41s-1.27,2.41.27,1.74,6-2.8,6-3.52S34.93,38.46,30.89,41Z" style="fill: #727272"/>
      <path d="M38.83,36.25c-.14.09-3.45,1.78-2.39,2.11s.77.84,1.59.47,4-1.72,4.24-2.58S42.21,34,38.83,36.25Z" style="fill: #727272"/>
      <path d="M47.48,31.34s-3.45,2.34-3.4,3,.47-.83-.52-.46S42,35.26,43,35.36s5.3-1.42,5.55-2.53S49.48,29.86,47.48,31.34Z" style="fill: #727272"/>
      <path d="M49.54,30.52c0-.16,1.92-1.69,2.18-2.37s1.74,0,2,.4-1,1.71-2,2.13S49.14,33.71,49.54,30.52Z" style="fill: #727272"/>
      <path d="M55,26.89a2.1,2.1,0,0,0,1.32-1.95c-.14-1.35.93.79,2.16.64S56.49,28.92,54.87,29,53.77,26.87,55,26.89Z" style="fill: #727272"/>
      <path d="M59.74,23.66c-.6.5-1.88,1.05-1.76,1.27.29.51.94-.12,1,.37a.68.68,0,0,0,.76.61Z" style="fill: #727272"/>
    </g>
    <path d="M38.21,34.16s1.46-.42.93.72-6.69,5.53-9,5.61V38.83Z" style="fill: #727272"/>
    <path d="M40.49,32.83s-.63,1.33-.18,1.48,9.41-4.1,10-5.5.45-2.22-.42-1.47S40.49,32.83,40.49,32.83Z" style="fill: #727272"/>
    <path d="M54.71,24.57,52.8,25.68s-1.42.74-1,1.29,1.76.21,2.7-.64S56.35,23.62,54.71,24.57Z" style="fill: #727272"/>
    <path d="M58.92,22.12l-1.4.82s-1.11.73-.85,1.27,1.31.22,2-.3S60.33,21.3,58.92,22.12Z" style="fill: #727272"/>
  </g>
</svg>
