<svg id="Layer_1" data-name="Layer 1" xmlns="http://www.w3.org/2000/svg" viewBox="0 0 59.34 67.45">
  <g>
    <path d="M33.34,52.36,47,27.83S33.55,46.71,30.6,47.46c0,0-7.93-22.47-8.49-32V30.88S27.77,44.68,27,59.77l-4.91,4.52h6.66l6.48,3.39-1.91-5.27Z" style="fill: #9e7363"/>
    <polygon points="49.46 35.31 48.85 7.03 34.25 5.91 35.42 41.9 49.46 35.31" style="fill: #74922a"/>
    <polygon points="31.92 0.82 15.72 3.15 34.25 5.91 48.85 7.03 31.92 0.82" style="fill: #afc161"/>
    <polygon points="12.25 34.36 15.72 3.15 34.25 5.91 35.42 41.9 12.25 34.36" style="fill: #98ad48"/>
    <polygon points="52.27 40.78 56.06 35.17 49.49 35.17 42.91 42.89 52.27 40.78" style="fill: #74922a"/>
    <polygon points="51.66 25.33 39.68 23.98 49.49 35.17 56.06 35.17 51.66 25.33" style="fill: #afc161"/>
    <polygon points="37.5 32.54 39.68 23.98 49.49 35.17 42.91 42.89 37.5 32.54" style="fill: #98ad48"/>
  </g>
</svg>
