<svg id="Layer_1" data-name="Layer 1" xmlns="http://www.w3.org/2000/svg" viewBox="0 0 59.34 67.45">
  <g>
    <g>
      <polygon points="30.13 47.25 30.14 67.45 35.32 64.44 35.32 49.53 30.13 47.25" style="fill: #75554a"/>
      <polygon points="30.13 47.25 24.93 49.53 24.93 64.44 30.14 67.45 30.13 47.25" style="fill: #9e7363"/>
    </g>
    <g>
      <polygon points="30.13 27.49 30.19 58.78 50.76 46.83 30.13 27.49" style="fill: #98ad48"/>
      <polygon points="30.13 27.49 9.49 46.83 30.19 58.78 30.13 27.49" style="fill: #afc161"/>
    </g>
    <g>
      <polygon points="41.95 38.57 30.13 27.49 30.16 45.42 41.95 38.57" style="fill: #74922a"/>
      <polygon points="18.3 38.58 30.15 45.43 30.11 27.5 18.3 38.58" style="fill: #74922a"/>
    </g>
    <g>
      <polygon points="30.1 14.04 30.15 40.17 47.33 30.19 30.1 14.04" style="fill: #98ad48"/>
      <polygon points="30.1 14.04 12.86 30.19 30.15 40.17 30.1 14.04" style="fill: #afc161"/>
    </g>
    <g>
      <polygon points="38.37 21.79 30.1 14.04 30.13 26.58 38.37 21.79" style="fill: #74922a"/>
      <polygon points="21.82 21.8 30.11 26.59 30.09 14.05 21.82 21.8" style="fill: #74922a"/>
    </g>
    <g>
      <polygon points="30.07 0.58 30.11 21.56 43.91 13.55 30.07 0.58" style="fill: #98ad48"/>
      <polygon points="30.07 0.58 16.23 13.55 30.11 21.56 30.07 0.58" style="fill: #afc161"/>
    </g>
  </g>
</svg>
