<svg id="Layer_1" data-name="Layer 1" xmlns="http://www.w3.org/2000/svg" viewBox="0 0 59.34 67.45">
  <g>
    <g style="isolation: isolate">
      <path d="M27.25,47.13a5.51,5.51,0,0,0,5,0,1.76,1.76,0,0,0,1-1.44c0,3.79,0,16,0,19.74a1.75,1.75,0,0,1-1,1.43,5.51,5.51,0,0,1-5,.05,1.78,1.78,0,0,1-1.07-1.46c0-3.79,0-15.95,0-19.74A1.75,1.75,0,0,0,27.25,47.13Z" style="fill: #9e7363"/>
    </g>
    <g>
      <g>
        <polygon points="29.67 2.04 29.73 59.31 48.65 48.31 29.67 2.04" style="fill: #98ad48"/>
        <polygon points="29.67 2.04 10.68 48.31 29.73 59.31 29.67 2.04" style="fill: #afc161"/>
      </g>
      <g>
        <polygon points="39.04 18.97 33.03 39.46 39.94 35.5 39.04 18.97" style="fill: #98ad48"/>
        <polygon points="39.04 18.97 32.25 29.48 33.03 39.46 39.04 18.97" style="fill: #afc161"/>
      </g>
      <g>
        <polygon points="47.59 38.95 34.89 53.86 41.81 49.9 47.59 38.95" style="fill: #98ad48"/>
        <polygon points="47.59 38.95 34.12 43.88 34.89 53.86 47.59 38.95" style="fill: #afc161"/>
      </g>
      <g>
        <polygon points="20.99 13.72 26.33 31.93 20.18 28.41 20.99 13.72" style="fill: #afc161"/>
        <polygon points="20.99 13.72 27.02 23.06 26.33 31.93 20.99 13.72" style="fill: #98ad48"/>
      </g>
      <g>
        <polygon points="12.04 34.86 23.32 48.1 17.17 44.58 12.04 34.86" style="fill: #afc161"/>
        <polygon points="12.04 34.86 24 39.24 23.32 48.1 12.04 34.86" style="fill: #98ad48"/>
      </g>
    </g>
  </g>
</svg>
