<svg id="Layer_1" data-name="Layer 1" xmlns="http://www.w3.org/2000/svg" viewBox="0 0 59.34 67.45">
  <g>
    <g style="isolation: isolate">
      <path d="M26.45,51.91a7.14,7.14,0,0,0,6.49-.07A2.28,2.28,0,0,0,34.25,50q0,7.4,0,14.8A2.28,2.28,0,0,1,33,66.64a7.19,7.19,0,0,1-6.5.06,2.3,2.3,0,0,1-1.39-1.9q0-7.39-.05-14.79A2.33,2.33,0,0,0,26.45,51.91Z" style="fill: #9e7363"/>
    </g>
    <g style="isolation: isolate">
      <path d="M12.53,44.31Q21.05,32.6,29.59,20.9h0l17.2,23.32C49.65,48.08,48.41,52.74,43,56c-7.17,4.29-19,4.41-26.32.27C11,53.05,9.62,48.29,12.53,44.31Z" style="fill: #98ad48"/>
      <path d="M29.6,20.9h0q7.11,9.66,14.24,19.31a9.45,9.45,0,0,1-3.47,3.33c-5.74,3.43-15.18,3.53-21.09.21a9.54,9.54,0,0,1-3.78-3.51Z" style="fill: #74922a"/>
      <path d="M15.94,29.86,29.61,11.1h0L43.38,29.78c2.29,3.1,1.3,6.84-3,9.42-5.74,3.43-15.18,3.53-21.08.21C14.74,36.87,13.61,33.05,15.94,29.86Z" style="fill: #98ad48"/>
      <path d="M29.62,11.1h0q4.79,6.48,9.56,13a8.13,8.13,0,0,1-1.47,1.09c-4.31,2.58-11.4,2.65-15.83.16a8.34,8.34,0,0,1-1.72-1.23Z" style="fill: #74922a"/>
      <path d="M19.35,15,29.62.86h0L40,14.89c1.72,2.33,1,5.13-2.27,7.07-4.31,2.58-11.4,2.65-15.84.16C18.46,20.21,17.61,17.34,19.35,15Z" style="fill: #98ad48"/>
    </g>
  </g>
</svg>
