<?xml version="1.0" encoding="utf-8"?>
<!-- Generator: Adobe Illustrator 24.2.1, SVG Export Plug-In . SVG Version: 6.00 Build 0)  -->
<svg version="1.1" id="Layer_1" xmlns="http://www.w3.org/2000/svg" xmlns:xlink="http://www.w3.org/1999/xlink" x="0px" y="0px"
	 viewBox="0 0 59.3 67.4" style="enable-background:new 0 0 59.3 67.4;" xml:space="preserve">
<style type="text/css">
	.st0{fill:#F68910;}
	.st1{fill:#DD7003;}
	.st2{fill:#9E7363;}
	.st3{fill:#E8DCD1;}
	.st4{fill:#D3BEAE;}
	.st5{fill:#E54600;}
	.st6{fill:#B9AFA6;}
	.st7{fill:#A49387;}
	.st8{fill:#F98F07;}
</style>
<g>
	<g>
		<path class="st0" d="M26.3,48.7C24.8,47.8,20,48.5,19,50c-1.8,2.3,4.2,15.5,4.4,15.3l0,0c0.3,0.7,0.8,1.2,1.5,1.6l0.4,0.2l0.4,0.2
			c1.5,0.5,3.1-0.2,3.7-1.6c0.4-0.7,0.5-1.6,0.4-2.4l0,0C29.4,63.3,28.2,50.1,26.3,48.7z"/>
		<path class="st1" d="M29.3,60.9c-0.7-3.8-1.5-11.2-3-12.2S20,48.5,19,50c-1.2,1.6,1.4,9.2,3.2,13C24.8,63,27.2,62.3,29.3,60.9z"/>
		<path class="st2" d="M33.6,43.6c6.1,2.3,3.8,7.4-0.7,11.9s-10.1,6.4-16.7,4.2s-11-8.2-6-12.7c2.4-2.3,6.2-6,11-6.5
			S30.6,42.4,33.6,43.6z"/>
	</g>
	<g>
		<path class="st3" d="M42.5,37.3c-0.5-1.9-2.4-1.8-3-0.1c0.1,2.7-4.5,21.5-5.5,21.2l0,0c-0.4,0.8-0.7,1.7-0.9,2.6
			c0,0.1-0.1,0.3-0.1,0.4s0,0.3-0.1,0.4c-0.2,1.5,0.6,1.8,1.9,0.6c0.8-0.8,1.5-1.7,2-2.7l0,0C37.8,60.1,44.3,40.3,42.5,37.3z"/>
		<path class="st4" d="M42,44.2c0.5-2.3,0.6-4.6,0.4-6.9c-0.5-1.9-2.4-1.8-3-0.1c-0.3,0.8-0.6,3.4-1.1,6.5
			C39.3,44.8,40.9,45,42,44.2z"/>
		<path class="st5" d="M47.2,34.1c3.3,2.1,2.6,5.8-0.9,7.5s-8.2,0.9-11.2-1.2s-3.4-4.5-0.1-6.3c1.6-0.8,3.8-2.6,6-2.7
			S45.6,33,47.2,34.1z"/>
	</g>
	<g>
		<path class="st6" d="M36.8,57c1-0.7,2.3-0.8,3.4-0.1c1.2,1,1.5,9.1,1.3,9.1l0,0c0,0.4-0.3,0.8-0.7,1l-0.3,0.1l-0.3,0.1
			c-1.5,0.4-3,0.1-4.3-0.7c-0.5-0.2-0.8-0.7-0.7-1.2l0,0C35.1,65.3,36,58,36.8,57z"/>
		<path class="st7" d="M35.2,64c0.4-2.1,0.9-6.3,1.5-7c1-0.7,2.3-0.8,3.4-0.1c0.8,0.7,1.3,5.2,1.3,7.6C39.3,64.8,37.2,64.6,35.2,64z
			"/>
		<path class="st8" d="M33.9,54.9c-2.6,2-4,4.6-1.2,6.5s8.6,2.5,11.5,0.5s1.5-5.8-1.5-7.7c-1.5-1-3.3-2.6-4.7-2.4
			S35.3,53.9,33.9,54.9z"/>
	</g>
</g>
</svg>
