<svg id="Layer_1" data-name="Layer 1" xmlns="http://www.w3.org/2000/svg" viewBox="0 0 59.34 67.45">
  <g>
    <path d="M30.08,65c.89.51,1,1.33.2,1.88l-.21.13a1.55,1.55,0,0,1-.22.12A3.84,3.84,0,0,1,26.6,67a1.06,1.06,0,0,1,0-2A3.79,3.79,0,0,1,30.08,65Z" style="fill: #9e7363"/>
    <path d="M19.94,29a9.05,9.05,0,0,1-.42-2.72A8.82,8.82,0,1,1,36.73,29a8.82,8.82,0,1,1-8.39,13.58A8.82,8.82,0,1,1,19.94,29Z" style="fill: #98ad48"/>
    <rect x="25.88" y="22.17" width="4.92" height="43.86" style="fill: #9e7363"/>
    <path d="M19.94,12.12a8.94,8.94,0,0,1-.42-2.71,8.82,8.82,0,1,1,17.64,0,8.64,8.64,0,0,1-.43,2.71,8.82,8.82,0,1,1-8.39,13.59,8.82,8.82,0,1,1-8.4-13.59Z" style="fill: #98ad48"/>
    <path d="M16.87,30.54a3.75,3.75,0,1,0,3.75-3.74A3.74,3.74,0,0,0,16.87,30.54Z" style="fill: #74922a"/>
    <path d="M28.34,39.65a1.48,1.48,0,0,0,1-.42,1.43,1.43,0,0,0,0-2L21.82,29.7a1.41,1.41,0,0,0-2,0,1.43,1.43,0,0,0,0,2l7.53,7.52A1.43,1.43,0,0,0,28.34,39.65Z" style="fill: #9e7363"/>
    <path d="M18.4,44.47a2.94,2.94,0,1,0,2.94-2.94A2.94,2.94,0,0,0,18.4,44.47Z" style="fill: #74922a"/>
    <path d="M27.39,51.6a1.16,1.16,0,0,0,.79-.32,1.13,1.13,0,0,0,0-1.58l-5.9-5.9a1.12,1.12,0,0,0-1.58,1.58l5.9,5.9A1.14,1.14,0,0,0,27.39,51.6Z" style="fill: #9e7363"/>
    <path d="M41.61,37.08a4.31,4.31,0,1,1-4.3-4.3A4.3,4.3,0,0,1,41.61,37.08Z" style="fill: #74922a"/>
    <path d="M28.88,8.6a4.31,4.31,0,1,1-4.3-4.3A4.3,4.3,0,0,1,28.88,8.6Z" style="fill: #74922a"/>
    <path d="M40.59,21.35a3.29,3.29,0,1,1-3.28-3.28A3.28,3.28,0,0,1,40.59,21.35Z" style="fill: #74922a"/>
    <path d="M28.44,47.54a1.64,1.64,0,0,1-1.16-2.79l8.64-8.64a1.64,1.64,0,0,1,2.32,2.31l-8.65,8.64A1.6,1.6,0,0,1,28.44,47.54Z" style="fill: #9e7363"/>
  </g>
</svg>
