<svg id="Layer_1" data-name="Layer 1" xmlns="http://www.w3.org/2000/svg" viewBox="0 0 59.96 44.06">
  <g>
    <polygon points="59.79 21.67 30.22 38.86 0.46 21.68 30.03 4.49 59.79 21.67" style="fill: #74922a"/>
    <polygon points="30.22 38.86 30.22 44.09 0.46 26.91 0.46 21.68 30.22 38.86" style="fill: #98ad48"/>
    <polygon points="30.21 38.86 30.21 44.09 59.79 26.9 59.79 21.67 30.21 38.86" style="fill: #50770c"/>
    <g>
      <polygon points="30.22 41.47 30.22 44.09 0.46 26.91 0.46 24.29 30.22 41.47" style="fill: #9e7363"/>
      <polygon points="30.21 41.47 30.21 44.09 59.79 26.9 59.79 24.29 30.21 41.47" style="fill: #75554a"/>
    </g>
    <g>
      <g>
        <path d="M29.45,1.76a7,7,0,0,0-2.38,3.59A28,28,0,0,1,27.26.77c-.58.68-.94,3.39-1,4.65a7.18,7.18,0,0,0-2.54-3.8A21,21,0,0,1,25.88,8l1.6-.26A20.47,20.47,0,0,1,29.45,1.76Z" style="fill: #bec675"/>
        <path d="M27.07,6.87a6,6,0,0,0-.76-2.39,5,5,0,0,1-.09,2.42,4.87,4.87,0,0,0-2.54-1.6A6.68,6.68,0,0,1,25.84,8l1.6-.11a6.47,6.47,0,0,1,2-2.52A4.71,4.71,0,0,0,27.07,6.87Z" style="fill: #74922a"/>
      </g>
      <g>
        <path d="M36.31,4.5a14.06,14.06,0,0,0-2.56,4.07,4.36,4.36,0,0,1-2.6-.14,33.73,33.73,0,0,0-2-8.4c1,.75,1.82,2.57,2.46,5A8.3,8.3,0,0,1,32.7,1.15,18.72,18.72,0,0,0,32.46,5C33.13,2.69,34,1,34.92.34A31.7,31.7,0,0,0,32.78,8.1C33.8,6,35.14,4.66,36.31,4.5Z" style="fill: #bec675"/>
        <path d="M36.31,4.5a14.06,14.06,0,0,0-2.56,4.07,4.36,4.36,0,0,1-2.6-.14,33.73,33.73,0,0,0-2-8.4c1,.75,1.82,2.57,2.46,5A8.3,8.3,0,0,1,32.7,1.15,18.72,18.72,0,0,0,32.46,5C33.13,2.69,34,1,34.92.34A31.7,31.7,0,0,0,32.78,8.1C33.8,6,35.14,4.66,36.31,4.5Z" style="fill: #bec675"/>
        <path d="M36.31,5.89a9.93,9.93,0,0,0-2.56,2.73,6.51,6.51,0,0,1-2.6-.1,16.83,16.83,0,0,0-2-5.61c1,.5,1.82,2.66,2.46,4.3a18.17,18.17,0,0,0,0-3.76,8.27,8.27,0,0,1,.85,3.71c.67-1.52,1.16-2.25,2.24-4.82a11,11,0,0,1-1.8,5.38C33.74,7.31,35.14,6,36.31,5.89Z" style="fill: #74922a"/>
      </g>
      <g>
        <path d="M25.86,7.45a10.43,10.43,0,0,1,2.56,2.82,6.46,6.46,0,0,0,2.59-.1,17.61,17.61,0,0,1,2-5.8,6.52,6.52,0,0,0-2.47,3.47,4.43,4.43,0,0,0-1.08-2.68,9.7,9.7,0,0,1,.24,2.63A6.33,6.33,0,0,0,27.24,4.6,16.8,16.8,0,0,1,29.37,10,5.47,5.47,0,0,0,25.86,7.45Z" style="fill: #bec675"/>
        <path d="M25.86,7.45a10.43,10.43,0,0,1,2.56,2.82,6.46,6.46,0,0,0,2.59-.1,17.61,17.61,0,0,1,2-5.8,6.52,6.52,0,0,0-2.47,3.47,4.43,4.43,0,0,0-1.08-2.68,9.7,9.7,0,0,1,.24,2.63A6.33,6.33,0,0,0,27.24,4.6,16.8,16.8,0,0,1,29.37,10,5.47,5.47,0,0,0,25.86,7.45Z" style="fill: #bec675"/>
        <path d="M25.86,8.42a9.11,9.11,0,0,1,2.56,1.88A9.78,9.78,0,0,0,31,10.23a9.49,9.49,0,0,1,2-3.87c-.95.34-1.82,1.83-2.47,3a9.36,9.36,0,0,1,0-2.59,4.23,4.23,0,0,0-.85,2.56C29,8.33,28.53,7.78,27.44,6a6.16,6.16,0,0,0,1.8,3.71A11.74,11.74,0,0,0,25.86,8.42Z" style="fill: #74922a"/>
      </g>
      <g>
        <path d="M29.45,7.66A5,5,0,0,1,31.84,10a12.09,12.09,0,0,0-.19-3c.58.44.94,2.19,1,3A5.41,5.41,0,0,1,35.2,7.52,10.64,10.64,0,0,0,33,11.65l-1.6-.17A10.14,10.14,0,0,0,29.45,7.66Z" style="fill: #bec675"/>
        <path d="M31.84,11a3.1,3.1,0,0,1,.75-1.54A2.21,2.21,0,0,0,32.68,11a5.89,5.89,0,0,1,2.55-1,5.32,5.32,0,0,0-2.16,1.74l-1.6-.08a5.17,5.17,0,0,0-2-1.62A5.68,5.68,0,0,1,31.84,11Z" style="fill: #74922a"/>
      </g>
      <g>
        <path d="M25.32,5.94a6.86,6.86,0,0,0-2.39,3.58,29.2,29.2,0,0,1,.19-4.58c-.57.68-.93,3.4-1,4.65a7.35,7.35,0,0,0-2.55-3.8,20.74,20.74,0,0,1,2.17,6.39l1.59-.26A19.88,19.88,0,0,1,25.32,5.94Z" style="fill: #bec675"/>
        <path d="M22.93,11.06a5.73,5.73,0,0,0-.75-2.38,4.92,4.92,0,0,1-.09,2.41,5.06,5.06,0,0,0-2.55-1.6,6.86,6.86,0,0,1,2.17,2.69l1.59-.11a6.47,6.47,0,0,1,2-2.52A4.76,4.76,0,0,0,22.93,11.06Z" style="fill: #74922a"/>
      </g>
      <g>
        <path d="M32.14,8.69a14.46,14.46,0,0,0-2.56,4.08A4.4,4.4,0,0,1,27,12.62a33.22,33.22,0,0,0-2-8.39c1,.74,1.82,2.57,2.47,5a8.23,8.23,0,0,1,1.09-3.87,19.37,19.37,0,0,0-.25,3.8c.68-2.27,1.54-3.94,2.46-4.62a31.24,31.24,0,0,0-2.13,7.76C29.67,10.2,31,8.86,32.14,8.69Z" style="fill: #bec675"/>
        <path d="M32.14,8.69a14.46,14.46,0,0,0-2.56,4.08A4.4,4.4,0,0,1,27,12.62a33.22,33.22,0,0,0-2-8.39c1,.74,1.82,2.57,2.47,5a8.23,8.23,0,0,1,1.09-3.87,19.37,19.37,0,0,0-.25,3.8c.68-2.27,1.54-3.94,2.46-4.62a31.24,31.24,0,0,0-2.13,7.76C29.67,10.2,31,8.86,32.14,8.69Z" style="fill: #bec675"/>
        <path d="M32.14,10.09a9.9,9.9,0,0,0-2.56,2.72,6.46,6.46,0,0,1-2.59-.1,16.48,16.48,0,0,0-2-5.6c1,.49,1.82,2.65,2.47,4.29a19.58,19.58,0,0,0,0-3.75,8.07,8.07,0,0,1,.85,3.7c.68-1.51,1.17-2.24,2.25-4.81a11.16,11.16,0,0,1-1.8,5.37C29.6,11.5,31,10.2,32.14,10.09Z" style="fill: #74922a"/>
      </g>
      <g>
        <path d="M21.72,11.65a10.09,10.09,0,0,1,2.56,2.81,6.51,6.51,0,0,0,2.6-.1,17.61,17.61,0,0,1,2-5.8A6.55,6.55,0,0,0,26.42,12a4.5,4.5,0,0,0-1.09-2.67A9,9,0,0,1,25.57,12a6.41,6.41,0,0,0-2.43-3.23,17.63,17.63,0,0,1,2.13,5.36A5.45,5.45,0,0,0,21.72,11.65Z" style="fill: #bec675"/>
        <path d="M21.72,11.65a10.09,10.09,0,0,1,2.56,2.81,6.51,6.51,0,0,0,2.6-.1,17.61,17.61,0,0,1,2-5.8A6.55,6.55,0,0,0,26.42,12a4.5,4.5,0,0,0-1.09-2.67A9,9,0,0,1,25.57,12a6.41,6.41,0,0,0-2.43-3.23,17.63,17.63,0,0,1,2.13,5.36A5.45,5.45,0,0,0,21.72,11.65Z" style="fill: #bec675"/>
        <path d="M21.72,12.61a9,9,0,0,1,2.56,1.88,9.06,9.06,0,0,0,2.6-.07,9.49,9.49,0,0,1,2-3.87c-.94.35-1.82,1.83-2.46,3a8.72,8.72,0,0,1,0-2.6,4.37,4.37,0,0,0-.85,2.56c-.67-1-1.16-1.55-2.24-3.32a6.16,6.16,0,0,0,1.8,3.71C24.29,13.59,22.92,12.68,21.72,12.61Z" style="fill: #74922a"/>
      </g>
      <g>
        <path d="M25.32,11.85a5.19,5.19,0,0,1,2.39,2.31,12.09,12.09,0,0,0-.2-3c.58.44.94,2.19,1,3a5.26,5.26,0,0,1,2.63-2.4A10.81,10.81,0,0,0,29,15.88l-1.6-.17A10.16,10.16,0,0,0,25.32,11.85Z" style="fill: #bec675"/>
        <path d="M27.71,15.16a2.9,2.9,0,0,1,.75-1.54,2.16,2.16,0,0,0,.09,1.56,5.85,5.85,0,0,1,2.54-1,5.56,5.56,0,0,0-2.16,1.74l-1.6-.07a5.21,5.21,0,0,0-2-1.63A5.72,5.72,0,0,1,27.71,15.16Z" style="fill: #74922a"/>
      </g>
      <g>
        <path d="M34.69,8.23a7,7,0,0,0-2.39,3.59,29.2,29.2,0,0,1,.19-4.58c-.58.68-.93,3.4-1,4.65a7.2,7.2,0,0,0-2.55-3.8,20.74,20.74,0,0,1,2.17,6.39l1.59-.26A20.12,20.12,0,0,1,34.69,8.23Z" style="fill: #bec675"/>
        <path d="M32.3,13.36A5.73,5.73,0,0,0,31.55,11a4.92,4.92,0,0,1-.09,2.41,5,5,0,0,0-2.55-1.6,6.62,6.62,0,0,1,2.17,2.69l1.59-.11a6.47,6.47,0,0,1,2-2.52A4.71,4.71,0,0,0,32.3,13.36Z" style="fill: #74922a"/>
      </g>
      <g>
        <path d="M41.54,11A14.21,14.21,0,0,0,39,15.07a4.44,4.44,0,0,1-2.6-.15,33.22,33.22,0,0,0-2-8.39c1,.74,1.82,2.57,2.47,5A8.12,8.12,0,0,1,38,7.66a19.37,19.37,0,0,0-.25,3.8c.68-2.27,1.54-3.94,2.46-4.62A31.24,31.24,0,0,0,38,14.6C39,12.5,40.34,11.16,41.54,11Z" style="fill: #bec675"/>
        <path d="M41.54,11A14.21,14.21,0,0,0,39,15.07a4.44,4.44,0,0,1-2.6-.15,33.22,33.22,0,0,0-2-8.39c1,.74,1.82,2.57,2.47,5A8.12,8.12,0,0,1,38,7.66a19.37,19.37,0,0,0-.25,3.8c.68-2.27,1.54-3.94,2.46-4.62A31.24,31.24,0,0,0,38,14.6C39,12.5,40.34,11.16,41.54,11Z" style="fill: #bec675"/>
        <path d="M41.54,12.39A9.86,9.86,0,0,0,39,15.11a6.51,6.51,0,0,1-2.6-.1,16.48,16.48,0,0,0-2-5.6c1,.49,1.82,2.65,2.47,4.29a19.58,19.58,0,0,0,0-3.75,8.07,8.07,0,0,1,.85,3.7c.68-1.51,1.17-2.25,2.25-4.81a11,11,0,0,1-1.8,5.37C39,13.76,40.34,12.5,41.54,12.39Z" style="fill: #74922a"/>
      </g>
      <g>
        <path d="M31.14,14a10.09,10.09,0,0,1,2.56,2.81,6.51,6.51,0,0,0,2.6-.1,17.61,17.61,0,0,1,2-5.8,6.5,6.5,0,0,0-2.46,3.47,4.56,4.56,0,0,0-1.09-2.68A9,9,0,0,1,35,14.28a6.36,6.36,0,0,0-2.45-3.19,17,17,0,0,1,2.13,5.36A5.46,5.46,0,0,0,31.14,14Z" style="fill: #bec675"/>
        <path d="M31.14,14a10.09,10.09,0,0,1,2.56,2.81,6.51,6.51,0,0,0,2.6-.1,17.61,17.61,0,0,1,2-5.8,6.5,6.5,0,0,0-2.46,3.47,4.56,4.56,0,0,0-1.09-2.68A9,9,0,0,1,35,14.28a6.36,6.36,0,0,0-2.45-3.19,17,17,0,0,1,2.13,5.36A5.46,5.46,0,0,0,31.14,14Z" style="fill: #bec675"/>
        <path d="M31.14,14.91a9,9,0,0,1,2.56,1.88,9.06,9.06,0,0,0,2.6-.07,9.49,9.49,0,0,1,2-3.87c-.95.34-1.82,1.83-2.46,3a8.72,8.72,0,0,1,0-2.6A4.3,4.3,0,0,0,35,15.81c-.67-1-1.16-1.55-2.24-3.32a6.16,6.16,0,0,0,1.8,3.71C33.67,15.89,32.29,15,31.14,14.91Z" style="fill: #74922a"/>
      </g>
      <g>
        <path d="M34.69,14.15a5,5,0,0,1,2.39,2.31,12.09,12.09,0,0,0-.2-3c.58.45.94,2.2,1,3A5.26,5.26,0,0,1,40.42,14a10.67,10.67,0,0,0-2.16,4.12L36.66,18A10.27,10.27,0,0,0,34.69,14.15Z" style="fill: #bec675"/>
        <path d="M37.08,17.46a2.9,2.9,0,0,1,.75-1.54,2.16,2.16,0,0,0,.09,1.56,5.85,5.85,0,0,1,2.54-1,5.56,5.56,0,0,0-2.16,1.74l-1.6-.07a5,5,0,0,0-2-1.63A5.67,5.67,0,0,1,37.08,17.46Z" style="fill: #74922a"/>
      </g>
      <g>
        <path d="M20.14,8.34a6.86,6.86,0,0,0-2.39,3.58A28,28,0,0,1,18,7.34C17.37,8,17,10.74,17,12a7.26,7.26,0,0,0-2.55-3.8,20.74,20.74,0,0,1,2.17,6.39l1.59-.26A20.14,20.14,0,0,1,20.14,8.34Z" style="fill: #bec675"/>
        <path d="M17.79,13.46A5.73,5.73,0,0,0,17,11.08,4.92,4.92,0,0,1,17,13.49a5.06,5.06,0,0,0-2.55-1.6,6.62,6.62,0,0,1,2.17,2.69l1.59-.11a6.47,6.47,0,0,1,2-2.52A4.76,4.76,0,0,0,17.79,13.46Z" style="fill: #74922a"/>
      </g>
      <g>
        <path d="M27,11.09a14.46,14.46,0,0,0-2.56,4.08A4.4,4.4,0,0,1,21.88,15a33.22,33.22,0,0,0-2-8.39c1,.74,1.82,2.57,2.47,5a8.22,8.22,0,0,1,1.08-3.87,20.17,20.17,0,0,0-.24,3.8c.68-2.27,1.55-3.94,2.46-4.62a31.8,31.8,0,0,0-2.13,7.76C24.53,12.61,25.84,11.26,27,11.09Z" style="fill: #bec675"/>
        <path d="M27,11.09a14.46,14.46,0,0,0-2.56,4.08A4.4,4.4,0,0,1,21.88,15a33.22,33.22,0,0,0-2-8.39c1,.74,1.82,2.57,2.47,5a8.22,8.22,0,0,1,1.08-3.87,20.17,20.17,0,0,0-.24,3.8c.68-2.27,1.55-3.94,2.46-4.62a31.8,31.8,0,0,0-2.13,7.76C24.53,12.61,25.84,11.26,27,11.09Z" style="fill: #bec675"/>
        <path d="M27,12.49a9.9,9.9,0,0,0-2.56,2.72,6.46,6.46,0,0,1-2.59-.1,16.48,16.48,0,0,0-2-5.6c1,.5,1.82,2.65,2.47,4.29a19.58,19.58,0,0,0,0-3.75,8.08,8.08,0,0,1,.79,3.71c.68-1.51,1.17-2.24,2.25-4.81a11,11,0,0,1-1.8,5.37C24.46,13.9,25.84,12.6,27,12.49Z" style="fill: #74922a"/>
      </g>
      <g>
        <path d="M16.58,14.05a10.09,10.09,0,0,1,2.56,2.81,6.17,6.17,0,0,0,2.6-.1,17.09,17.09,0,0,1,2-5.8,6.52,6.52,0,0,0-2.47,3.47,4.5,4.5,0,0,0-1.09-2.67,9,9,0,0,1,.24,2.63A6.39,6.39,0,0,0,18,11.19a17,17,0,0,1,2.13,5.36A5.48,5.48,0,0,0,16.58,14.05Z" style="fill: #bec675"/>
        <path d="M16.58,14.05a10.09,10.09,0,0,1,2.56,2.81,6.17,6.17,0,0,0,2.6-.1,17.09,17.09,0,0,1,2-5.8,6.52,6.52,0,0,0-2.47,3.47,4.5,4.5,0,0,0-1.09-2.67,9,9,0,0,1,.24,2.63A6.39,6.39,0,0,0,18,11.19a17,17,0,0,1,2.13,5.36A5.48,5.48,0,0,0,16.58,14.05Z" style="fill: #bec675"/>
        <path d="M16.58,15a9,9,0,0,1,2.56,1.88,9.06,9.06,0,0,0,2.6-.07,9.37,9.37,0,0,1,2-3.87c-1,.35-1.83,1.83-2.47,3a8.72,8.72,0,0,1,0-2.6,4.35,4.35,0,0,0-.85,2.57c-.67-1-1.16-1.56-2.24-3.33A6.16,6.16,0,0,0,20,16.3C19.14,16,17.78,15.09,16.58,15Z" style="fill: #74922a"/>
      </g>
      <g>
        <path d="M20.14,14.25a5,5,0,0,1,2.39,2.32,12.59,12.59,0,0,0-.19-3c.57.44.93,2.19,1,3a5.26,5.26,0,0,1,2.54-2.45,10.81,10.81,0,0,0-2.16,4.12l-1.59-.17A10.28,10.28,0,0,0,20.14,14.25Z" style="fill: #bec675"/>
        <path d="M22.57,17.56A2.9,2.9,0,0,1,23.32,16a2.16,2.16,0,0,0,.09,1.56,5.85,5.85,0,0,1,2.54-1,5.56,5.56,0,0,0-2.16,1.74l-1.59-.07a5.28,5.28,0,0,0-2-1.63A5.68,5.68,0,0,1,22.57,17.56Z" style="fill: #74922a"/>
      </g>
      <g>
        <path d="M27.29,11.08a6.94,6.94,0,0,0-2.38,3.58,28,28,0,0,1,.19-4.58c-.58.68-.94,3.4-1,4.65a7.18,7.18,0,0,0-2.54-3.8,21,21,0,0,1,2.16,6.39l1.6-.26A20.12,20.12,0,0,1,27.29,11.08Z" style="fill: #bec675"/>
        <path d="M24.91,16.2a5.89,5.89,0,0,0-.76-2.38,4.92,4.92,0,0,1-.09,2.41,5,5,0,0,0-2.54-1.6,6.68,6.68,0,0,1,2.16,2.69l1.6-.11a6.47,6.47,0,0,1,2-2.52A4.71,4.71,0,0,0,24.91,16.2Z" style="fill: #74922a"/>
      </g>
      <g>
        <path d="M34.14,13.83a14.24,14.24,0,0,0-2.56,4.08,4.44,4.44,0,0,1-2.6-.15,33.66,33.66,0,0,0-2-8.39c.94.74,1.82,2.56,2.46,5a8.23,8.23,0,0,1,1.09-3.87,20.17,20.17,0,0,0-.24,3.8C31,12,31.83,10.36,32.75,9.68a31.7,31.7,0,0,0-2.14,7.76C31.64,15.34,33,14,34.14,13.83Z" style="fill: #bec675"/>
        <path d="M34.14,13.83a14.24,14.24,0,0,0-2.56,4.08,4.44,4.44,0,0,1-2.6-.15,33.66,33.66,0,0,0-2-8.39c.94.74,1.82,2.56,2.46,5a8.23,8.23,0,0,1,1.09-3.87,20.17,20.17,0,0,0-.24,3.8C31,12,31.83,10.36,32.75,9.68a31.7,31.7,0,0,0-2.14,7.76C31.64,15.34,33,14,34.14,13.83Z" style="fill: #bec675"/>
        <path d="M34.14,15.23A9.9,9.9,0,0,0,31.58,18a6.51,6.51,0,0,1-2.6-.1,16.7,16.7,0,0,0-2-5.6c.94.49,1.82,2.65,2.46,4.29a18.08,18.08,0,0,0,0-3.75,8.07,8.07,0,0,1,.85,3.7c.67-1.51,1.16-2.25,2.24-4.81a11,11,0,0,1-1.8,5.37C31.58,16.64,33,15.34,34.14,15.23Z" style="fill: #74922a"/>
      </g>
      <g>
        <path d="M23.7,16.76a10.43,10.43,0,0,1,2.56,2.82,6.46,6.46,0,0,0,2.59-.1,17.61,17.61,0,0,1,2-5.8,6.57,6.57,0,0,0-2.47,3.47,4.39,4.39,0,0,0-1.09-2.67,9.25,9.25,0,0,1,.25,2.62,6.38,6.38,0,0,0-2.46-3.19,17,17,0,0,1,2.13,5.36A5.53,5.53,0,0,0,23.7,16.76Z" style="fill: #bec675"/>
        <path d="M23.7,16.76a10.43,10.43,0,0,1,2.56,2.82,6.46,6.46,0,0,0,2.59-.1,17.61,17.61,0,0,1,2-5.8,6.57,6.57,0,0,0-2.47,3.47,4.39,4.39,0,0,0-1.09-2.67,9.25,9.25,0,0,1,.25,2.62,6.38,6.38,0,0,0-2.46-3.19,17,17,0,0,1,2.13,5.36A5.53,5.53,0,0,0,23.7,16.76Z" style="fill: #bec675"/>
        <path d="M23.7,17.76a9.11,9.11,0,0,1,2.56,1.88,9.78,9.78,0,0,0,2.59-.07,9.49,9.49,0,0,1,2-3.87c-1,.34-1.82,1.83-2.47,3a9.43,9.43,0,0,1,0-2.6,4.23,4.23,0,0,0-.85,2.56c-.68-1-1.17-1.55-2.25-3.32a6.16,6.16,0,0,0,1.8,3.71C26.27,18.76,24.9,17.83,23.7,17.76Z" style="fill: #74922a"/>
      </g>
      <g>
        <path d="M27.29,17a5,5,0,0,1,2.39,2.31,12.09,12.09,0,0,0-.19-3c.58.43.94,2.19,1,3A5.28,5.28,0,0,1,33,16.85,10.69,10.69,0,0,0,30.87,21l-1.59-.17A10.32,10.32,0,0,0,27.29,17Z" style="fill: #bec675"/>
        <path d="M29.68,20.3a2.94,2.94,0,0,1,.75-1.54,2.21,2.21,0,0,0,.09,1.56,5.89,5.89,0,0,1,2.55-1,5.59,5.59,0,0,0-2.17,1.74L29.31,21a5.28,5.28,0,0,0-2-1.63A5.38,5.38,0,0,1,29.68,20.3Z" style="fill: #74922a"/>
      </g>
    </g>
    <g>
      <g>
        <path d="M41.94,8.17a7,7,0,0,0-2.39,3.58,28,28,0,0,1,.2-4.58c-.58.68-.94,3.4-1,4.65A7.18,7.18,0,0,0,36.21,8a21,21,0,0,1,2.16,6.39l1.6-.26A19.83,19.83,0,0,1,41.94,8.17Z" style="fill: #bec675"/>
        <path d="M39.55,13.29a5.58,5.58,0,0,0-.75-2.38,4.92,4.92,0,0,1-.09,2.41,4.94,4.94,0,0,0-2.57-1.56,6.68,6.68,0,0,1,2.16,2.69l1.6-.11a6.33,6.33,0,0,1,2-2.52A4.81,4.81,0,0,0,39.55,13.29Z" style="fill: #74922a"/>
      </g>
      <g>
        <path d="M48.8,10.92A14.24,14.24,0,0,0,46.24,15a4.44,4.44,0,0,1-2.6-.15,33.22,33.22,0,0,0-2-8.39c.94.74,1.81,2.57,2.46,5a8.23,8.23,0,0,1,1.09-3.87,18.63,18.63,0,0,0-.24,3.8c.67-2.27,1.54-4,2.46-4.62a31.7,31.7,0,0,0-2.14,7.76C46.29,12.43,47.6,11.08,48.8,10.92Z" style="fill: #bec675"/>
        <path d="M48.8,10.92A14.24,14.24,0,0,0,46.24,15a4.44,4.44,0,0,1-2.6-.15,33.22,33.22,0,0,0-2-8.39c.94.74,1.81,2.57,2.46,5a8.23,8.23,0,0,1,1.09-3.87,18.63,18.63,0,0,0-.24,3.8c.67-2.27,1.54-4,2.46-4.62a31.7,31.7,0,0,0-2.14,7.76C46.29,12.43,47.6,11.08,48.8,10.92Z" style="fill: #bec675"/>
        <path d="M48.8,12.32A9.9,9.9,0,0,0,46.24,15a6.51,6.51,0,0,1-2.6-.1,16.48,16.48,0,0,0-2-5.6c.94.49,1.81,2.65,2.46,4.29a19.58,19.58,0,0,0,0-3.75,8.19,8.19,0,0,1,.85,3.7c.67-1.51,1.16-2.25,2.24-4.81a11,11,0,0,1-1.8,5.37C46.23,13.76,47.6,12.43,48.8,12.32Z" style="fill: #74922a"/>
      </g>
      <g>
        <path d="M38.35,13.87a10.25,10.25,0,0,1,2.55,2.82,6.51,6.51,0,0,0,2.6-.1,17.61,17.61,0,0,1,2-5.8A6.52,6.52,0,0,0,43,14.26,4.55,4.55,0,0,0,42,11.58a9.7,9.7,0,0,1,.24,2.63A6.44,6.44,0,0,0,39.73,11a17,17,0,0,1,2.13,5.36A5.53,5.53,0,0,0,38.35,13.87Z" style="fill: #bec675"/>
        <path d="M38.35,13.87a10.25,10.25,0,0,1,2.55,2.82,6.51,6.51,0,0,0,2.6-.1,17.61,17.61,0,0,1,2-5.8A6.52,6.52,0,0,0,43,14.26,4.55,4.55,0,0,0,42,11.58a9.7,9.7,0,0,1,.24,2.63A6.44,6.44,0,0,0,39.73,11a17,17,0,0,1,2.13,5.36A5.53,5.53,0,0,0,38.35,13.87Z" style="fill: #bec675"/>
        <path d="M38.35,14.84a8.92,8.92,0,0,1,2.55,1.88,9.06,9.06,0,0,0,2.6-.07,9.49,9.49,0,0,1,2-3.87c-1,.34-1.82,1.83-2.47,3a9.36,9.36,0,0,1,0-2.59,4.3,4.3,0,0,0-.85,2.56c-.68-1-1.17-1.55-2.25-3.32a6.24,6.24,0,0,0,1.8,3.71A11.74,11.74,0,0,0,38.35,14.84Z" style="fill: #74922a"/>
      </g>
      <g>
        <path d="M41.94,14.08a5,5,0,0,1,2.39,2.31,11.66,11.66,0,0,0-.19-3c.58.43.94,2.19,1,3A5.32,5.32,0,0,1,47.68,14a10.66,10.66,0,0,0-2.17,4.13l-1.59-.17A10.28,10.28,0,0,0,41.94,14.08Z" style="fill: #bec675"/>
        <path d="M44.33,17.39a2.94,2.94,0,0,1,.75-1.54,2.13,2.13,0,0,0,.1,1.55,5.9,5.9,0,0,1,2.54-1,5.59,5.59,0,0,0-2.17,1.74L44,18.07a5.28,5.28,0,0,0-2-1.63A5.4,5.4,0,0,1,44.33,17.39Z" style="fill: #74922a"/>
      </g>
      <g>
        <path d="M37.81,12.36A6.89,6.89,0,0,0,35.42,16a28,28,0,0,1,.2-4.58c-.58.68-.94,3.39-1,4.65a7.18,7.18,0,0,0-2.54-3.8,20.74,20.74,0,0,1,2.17,6.39l1.59-.27A20.12,20.12,0,0,1,37.81,12.36Z" style="fill: #bec675"/>
        <path d="M35.42,17.48a5.73,5.73,0,0,0-.75-2.38,4.8,4.8,0,0,1-.1,2.41A5,5,0,0,0,32,15.91a6.8,6.8,0,0,1,2.17,2.7l1.59-.12a6.56,6.56,0,0,1,2-2.52A4.83,4.83,0,0,0,35.42,17.48Z" style="fill: #74922a"/>
      </g>
      <g>
        <path d="M44.66,15.12a14.27,14.27,0,0,0-2.56,4.07,4.32,4.32,0,0,1-2.59-.14,33.3,33.3,0,0,0-2-8.4c1,.75,1.82,2.57,2.47,5a8.15,8.15,0,0,1,1.09-3.88,19.37,19.37,0,0,0-.25,3.8c.68-2.26,1.54-3.94,2.46-4.61a31.13,31.13,0,0,0-2.14,7.8C42.14,16.63,43.46,15.28,44.66,15.12Z" style="fill: #bec675"/>
        <path d="M44.66,15.12a14.27,14.27,0,0,0-2.56,4.07,4.32,4.32,0,0,1-2.59-.14,33.3,33.3,0,0,0-2-8.4c1,.75,1.82,2.57,2.47,5a8.15,8.15,0,0,1,1.09-3.88,19.37,19.37,0,0,0-.25,3.8c.68-2.26,1.54-3.94,2.46-4.61a31.13,31.13,0,0,0-2.14,7.8C42.14,16.63,43.46,15.28,44.66,15.12Z" style="fill: #bec675"/>
        <path d="M44.66,16.51a10.09,10.09,0,0,0-2.56,2.73,6.84,6.84,0,0,1-2.59-.1,16.53,16.53,0,0,0-2-5.61c1,.5,1.82,2.65,2.47,4.29a19.58,19.58,0,0,0,0-3.75,8,8,0,0,1,.85,3.71c.68-1.52,1.16-2.25,2.24-4.82a10.79,10.79,0,0,1-1.8,5.38C42.14,17.92,43.46,16.62,44.66,16.51Z" style="fill: #74922a"/>
      </g>
      <g>
        <path d="M34.21,18.07a10.29,10.29,0,0,1,2.56,2.82,6.17,6.17,0,0,0,2.6-.11,17.61,17.61,0,0,1,2-5.8,6.63,6.63,0,0,0-2.47,3.48,4.43,4.43,0,0,0-1.08-2.68,9.7,9.7,0,0,1,.24,2.63,6.23,6.23,0,0,0-2.46-3.19,16.73,16.73,0,0,1,2.14,5.36A5.44,5.44,0,0,0,34.21,18.07Z" style="fill: #bec675"/>
        <path d="M34.21,18.07a10.29,10.29,0,0,1,2.56,2.82,6.17,6.17,0,0,0,2.6-.11,17.61,17.61,0,0,1,2-5.8,6.63,6.63,0,0,0-2.47,3.48,4.43,4.43,0,0,0-1.08-2.68,9.7,9.7,0,0,1,.24,2.63,6.23,6.23,0,0,0-2.46-3.19,16.73,16.73,0,0,1,2.14,5.36A5.44,5.44,0,0,0,34.21,18.07Z" style="fill: #bec675"/>
        <path d="M34.21,19a8.82,8.82,0,0,1,2.56,1.89,9.84,9.84,0,0,0,2.6-.07,9.49,9.49,0,0,1,2-3.87c-.95.34-1.82,1.83-2.47,3a9.36,9.36,0,0,1,0-2.59A4.17,4.17,0,0,0,38.05,20c-.67-1.05-1.16-1.55-2.24-3.33a6.16,6.16,0,0,0,1.8,3.71A12.43,12.43,0,0,0,34.21,19Z" style="fill: #74922a"/>
      </g>
      <g>
        <path d="M45.34,13.67A5.1,5.1,0,0,1,47.73,16a12.09,12.09,0,0,0-.2-3c.58.44.94,2.2,1,3a5.32,5.32,0,0,1,2.54-2.46,10.78,10.78,0,0,0-2.16,4.13l-1.6-.17A10.27,10.27,0,0,0,45.34,13.67Z" style="fill: #bec675"/>
        <path d="M47.73,17a2.9,2.9,0,0,1,.75-1.54A2.08,2.08,0,0,0,48.57,17a5.9,5.9,0,0,1,2.54-1A5.32,5.32,0,0,0,49,17.73l-1.6-.07a5.12,5.12,0,0,0-2-1.63A5.56,5.56,0,0,1,47.73,17Z" style="fill: #74922a"/>
      </g>
      <g>
        <path d="M37.81,18.27a5.21,5.21,0,0,1,2.39,2.32,12.09,12.09,0,0,0-.2-3c.58.44.94,2.19,1,3a5.35,5.35,0,0,1,2.54-2.45,10.81,10.81,0,0,0-2.16,4.12l-1.6-.17A10.24,10.24,0,0,0,37.81,18.27Z" style="fill: #bec675"/>
        <path d="M40.2,21.58A2.9,2.9,0,0,1,41,20,2.11,2.11,0,0,0,41,21.6a5.68,5.68,0,0,1,2.54-1,5.45,5.45,0,0,0-2.16,1.73l-1.6-.07a5.21,5.21,0,0,0-2-1.63A5.69,5.69,0,0,1,40.2,21.58Z" style="fill: #74922a"/>
      </g>
      <g>
        <path d="M47.14,14.66a6.86,6.86,0,0,0-2.39,3.58,29.2,29.2,0,0,1,.19-4.58c-.57.68-.93,3.4-1,4.65a7.33,7.33,0,0,0-2.55-3.79,20.34,20.34,0,0,1,2.17,6.38l1.59-.26A19.88,19.88,0,0,1,47.14,14.66Z" style="fill: #bec675"/>
        <path d="M44.79,19.76A5.73,5.73,0,0,0,44,17.38,4.92,4.92,0,0,1,44,19.79a5.06,5.06,0,0,0-2.55-1.6,6.62,6.62,0,0,1,2.17,2.69l1.57-.12a6.47,6.47,0,0,1,2-2.52A4.74,4.74,0,0,0,44.79,19.76Z" style="fill: #74922a"/>
      </g>
      <g>
        <path d="M54,17.41a14.46,14.46,0,0,0-2.56,4.08,4.4,4.4,0,0,1-2.59-.15,33.22,33.22,0,0,0-2-8.39c1,.74,1.82,2.57,2.47,5a8.17,8.17,0,0,1,1.08-3.88,20.17,20.17,0,0,0-.24,3.8c.68-2.27,1.54-3.94,2.46-4.62A31.24,31.24,0,0,0,50.52,21C51.53,18.93,52.83,17.58,54,17.41Z" style="fill: #bec675"/>
        <path d="M54,17.41a14.46,14.46,0,0,0-2.56,4.08,4.4,4.4,0,0,1-2.59-.15,33.22,33.22,0,0,0-2-8.39c1,.74,1.82,2.57,2.47,5a8.17,8.17,0,0,1,1.08-3.88,20.17,20.17,0,0,0-.24,3.8c.68-2.27,1.54-3.94,2.46-4.62A31.24,31.24,0,0,0,50.52,21C51.53,18.93,52.83,17.58,54,17.41Z" style="fill: #bec675"/>
        <path d="M54,18.81a9.9,9.9,0,0,0-2.56,2.72,6.46,6.46,0,0,1-2.59-.1,16.48,16.48,0,0,0-2-5.6c1,.5,1.82,2.65,2.47,4.29a19.58,19.58,0,0,0,0-3.75,8,8,0,0,1,.85,3.71c.68-1.52,1.17-2.25,2.25-4.82a11,11,0,0,1-1.8,5.37C51.46,20.22,52.83,18.92,54,18.81Z" style="fill: #74922a"/>
      </g>
      <g>
        <path d="M43.58,20.37a10.25,10.25,0,0,1,2.56,2.81,6.17,6.17,0,0,0,2.6-.1,17.61,17.61,0,0,1,2-5.8,6.63,6.63,0,0,0-2.46,3.47,4.5,4.5,0,0,0-1.09-2.67,9.7,9.7,0,0,1,.24,2.63A6.31,6.31,0,0,0,45,17.51a17,17,0,0,1,2.13,5.36A5.44,5.44,0,0,0,43.58,20.37Z" style="fill: #bec675"/>
        <path d="M43.58,20.37a10.25,10.25,0,0,1,2.56,2.81,6.17,6.17,0,0,0,2.6-.1,17.61,17.61,0,0,1,2-5.8,6.63,6.63,0,0,0-2.46,3.47,4.5,4.5,0,0,0-1.09-2.67,9.7,9.7,0,0,1,.24,2.63A6.31,6.31,0,0,0,45,17.51a17,17,0,0,1,2.13,5.36A5.44,5.44,0,0,0,43.58,20.37Z" style="fill: #bec675"/>
        <path d="M43.58,21.33a9,9,0,0,1,2.56,1.88,9.06,9.06,0,0,0,2.6-.07,9.49,9.49,0,0,1,2-3.87c-.94.35-1.82,1.83-2.46,3a9.36,9.36,0,0,1,0-2.59,4.2,4.2,0,0,0-.85,2.55c-.67-1-1.16-1.55-2.24-3.32A6.16,6.16,0,0,0,47,22.62C46.14,22.31,44.78,21.41,43.58,21.33Z" style="fill: #74922a"/>
      </g>
      <g>
        <path d="M49.86,17.41a10.25,10.25,0,0,1,2.55,2.82,6.51,6.51,0,0,0,2.6-.1,17.61,17.61,0,0,1,2-5.8,6.52,6.52,0,0,0-2.47,3.47,4.43,4.43,0,0,0-1.08-2.68,9.7,9.7,0,0,1,.24,2.63,6.38,6.38,0,0,0-2.46-3.19,17,17,0,0,1,2.13,5.36A5.45,5.45,0,0,0,49.86,17.41Z" style="fill: #bec675"/>
        <path d="M49.86,17.41a10.25,10.25,0,0,1,2.55,2.82,6.51,6.51,0,0,0,2.6-.1,17.61,17.61,0,0,1,2-5.8,6.52,6.52,0,0,0-2.47,3.47,4.43,4.43,0,0,0-1.08-2.68,9.7,9.7,0,0,1,.24,2.63,6.38,6.38,0,0,0-2.46-3.19,17,17,0,0,1,2.13,5.36A5.45,5.45,0,0,0,49.86,17.41Z" style="fill: #bec675"/>
        <path d="M49.86,18.37a8.77,8.77,0,0,1,2.55,1.89,9.84,9.84,0,0,0,2.6-.07,9.49,9.49,0,0,1,2-3.87c-.95.34-1.82,1.83-2.47,3a9.36,9.36,0,0,1,0-2.59,4.17,4.17,0,0,0-.85,2.56c-.68-1-1.17-1.55-2.25-3.33a6.16,6.16,0,0,0,1.8,3.71A12,12,0,0,0,49.86,18.37Z" style="fill: #74922a"/>
      </g>
      <g>
        <path d="M47.14,20.57a5.12,5.12,0,0,1,2.39,2.32,12.09,12.09,0,0,0-.2-3c.58.44.94,2.19,1,3a5.26,5.26,0,0,1,2.54-2.45,10.81,10.81,0,0,0-2.16,4.12l-1.6-.17A10.24,10.24,0,0,0,47.14,20.57Z" style="fill: #bec675"/>
        <path d="M49.57,23.88a2.9,2.9,0,0,1,.75-1.54,2.16,2.16,0,0,0,.09,1.56,5.85,5.85,0,0,1,2.54-1,5.56,5.56,0,0,0-2.16,1.74l-1.6-.07a5.28,5.28,0,0,0-2-1.63A5.67,5.67,0,0,1,49.57,23.88Z" style="fill: #74922a"/>
      </g>
      <g>
        <path d="M53.45,18.68A5,5,0,0,1,55.84,21a12.59,12.59,0,0,0-.19-3c.57.44.93,2.19,1,3a5.41,5.41,0,0,1,2.55-2.45A10.66,10.66,0,0,0,57,22.68l-1.59-.17A10.47,10.47,0,0,0,53.45,18.68Z" style="fill: #bec675"/>
        <path d="M55.84,22a2.9,2.9,0,0,1,.75-1.54A2.16,2.16,0,0,0,56.68,22a5.89,5.89,0,0,1,2.55-1,5.29,5.29,0,0,0-2.17,1.74l-1.59-.08a5.26,5.26,0,0,0-2-1.62A5.38,5.38,0,0,1,55.84,22Z" style="fill: #74922a"/>
      </g>
      <g>
        <path d="M32.67,14.76a6.89,6.89,0,0,0-2.39,3.59,29.2,29.2,0,0,1,.19-4.58c-.57.68-.93,3.39-1,4.65a7.2,7.2,0,0,0-2.55-3.8A20.6,20.6,0,0,1,29.09,21l1.6-.26A19.85,19.85,0,0,1,32.67,14.76Z" style="fill: #bec675"/>
        <path d="M30.28,19.88a5.73,5.73,0,0,0-.75-2.38,4.92,4.92,0,0,1-.09,2.41,5.13,5.13,0,0,0-2.55-1.6A6.7,6.7,0,0,1,29.06,21l1.6-.1a6.43,6.43,0,0,1,2-2.53A4.81,4.81,0,0,0,30.28,19.88Z" style="fill: #74922a"/>
      </g>
      <g>
        <path d="M39.52,17.51A14.21,14.21,0,0,0,37,21.59a4.52,4.52,0,0,1-2.6-.14,33.3,33.3,0,0,0-2-8.4c1,.75,1.82,2.57,2.47,5a8.15,8.15,0,0,1,1.09-3.88A19.48,19.48,0,0,0,35.68,18c.68-2.27,1.55-4,2.46-4.62A31.17,31.17,0,0,0,36,21.11C37,19,38.33,17.68,39.52,17.51Z" style="fill: #bec675"/>
        <path d="M39.52,17.51A14.21,14.21,0,0,0,37,21.59a4.52,4.52,0,0,1-2.6-.14,33.3,33.3,0,0,0-2-8.4c1,.75,1.82,2.57,2.47,5a8.15,8.15,0,0,1,1.09-3.88A19.48,19.48,0,0,0,35.68,18c.68-2.27,1.55-4,2.46-4.62A31.17,31.17,0,0,0,36,21.11C37,19,38.33,17.68,39.52,17.51Z" style="fill: #bec675"/>
        <path d="M39.52,18.91A9.9,9.9,0,0,0,37,21.64a6.89,6.89,0,0,1-2.6-.1,16.53,16.53,0,0,0-2-5.61c1,.5,1.82,2.65,2.47,4.29a19.58,19.58,0,0,0,0-3.75,8.26,8.26,0,0,1,.84,3.71c.68-1.52,1.17-2.25,2.25-4.82a11.05,11.05,0,0,1-1.79,5.4C37,20.32,38.33,19,39.52,18.91Z" style="fill: #74922a"/>
      </g>
      <g>
        <path d="M29.08,20.47a10.25,10.25,0,0,1,2.55,2.82,6.17,6.17,0,0,0,2.6-.11,17.12,17.12,0,0,1,2-5.79,6.52,6.52,0,0,0-2.47,3.47,4.5,4.5,0,0,0-1.09-2.68,9.32,9.32,0,0,1,.25,2.63,6.38,6.38,0,0,0-2.46-3.19A17,17,0,0,1,32.59,23,5.45,5.45,0,0,0,29.08,20.47Z" style="fill: #bec675"/>
        <path d="M29.08,20.47a10.25,10.25,0,0,1,2.55,2.82,6.17,6.17,0,0,0,2.6-.11,17.12,17.12,0,0,1,2-5.79,6.52,6.52,0,0,0-2.47,3.47,4.5,4.5,0,0,0-1.09-2.68,9.32,9.32,0,0,1,.25,2.63,6.38,6.38,0,0,0-2.46-3.19A17,17,0,0,1,32.59,23,5.45,5.45,0,0,0,29.08,20.47Z" style="fill: #bec675"/>
        <path d="M29.08,21.43a9.26,9.26,0,0,1,2.55,1.88,9.43,9.43,0,0,0,2.6-.06,9.37,9.37,0,0,1,2-3.87c-.95.34-1.83,1.83-2.47,3a9.36,9.36,0,0,1,0-2.59,4.22,4.22,0,0,0-.84,2.56c-.69-1.05-1.17-1.56-2.25-3.33a6.21,6.21,0,0,0,1.8,3.72A12,12,0,0,0,29.08,21.43Z" style="fill: #74922a"/>
      </g>
      <g>
        <path d="M32.67,20.67A5,5,0,0,1,35.06,23a12.09,12.09,0,0,0-.2-3c.58.44.94,2.19,1,3a5.35,5.35,0,0,1,2.54-2.45,10.64,10.64,0,0,0-2.16,4.13l-1.6-.17A10.28,10.28,0,0,0,32.67,20.67Z" style="fill: #bec675"/>
        <path d="M35.06,24a2.9,2.9,0,0,1,.75-1.54A2.16,2.16,0,0,0,35.9,24a5.68,5.68,0,0,1,2.54-1,5.32,5.32,0,0,0-2.16,1.74l-1.6-.08a5.21,5.21,0,0,0-2-1.63A5.56,5.56,0,0,1,35.06,24Z" style="fill: #74922a"/>
      </g>
      <g>
        <path d="M39.78,17.5a7,7,0,0,0-2.39,3.58,28,28,0,0,1,.2-4.58c-.58.68-.94,3.4-1,4.65a7.34,7.34,0,0,0-2.54-3.8,21.06,21.06,0,0,1,2.09,6.41l1.6-.26A20.28,20.28,0,0,1,39.78,17.5Z" style="fill: #bec675"/>
        <path d="M37.39,22.62a5.73,5.73,0,0,0-.75-2.38,4.92,4.92,0,0,1-.09,2.41A5,5,0,0,0,34,21.05a6.73,6.73,0,0,1,2.13,2.71l1.6-.11a6.47,6.47,0,0,1,2-2.52A4.85,4.85,0,0,0,37.39,22.62Z" style="fill: #74922a"/>
      </g>
      <g>
        <path d="M46.64,20.26a13.72,13.72,0,0,0-2.56,4.07,4.44,4.44,0,0,1-2.6-.15,33.22,33.22,0,0,0-2-8.39c1,.74,1.82,2.57,2.47,5A8.23,8.23,0,0,1,43,16.92a18.63,18.63,0,0,0-.24,3.8c.67-2.26,1.54-3.94,2.46-4.62a31.7,31.7,0,0,0-2.14,7.76C44.14,21.76,45.44,20.42,46.64,20.26Z" style="fill: #bec675"/>
        <path d="M46.64,20.26a13.72,13.72,0,0,0-2.56,4.07,4.44,4.44,0,0,1-2.6-.15,33.22,33.22,0,0,0-2-8.39c1,.74,1.82,2.57,2.47,5A8.23,8.23,0,0,1,43,16.92a18.63,18.63,0,0,0-.24,3.8c.67-2.26,1.54-3.94,2.46-4.62a31.7,31.7,0,0,0-2.14,7.76C44.14,21.76,45.44,20.42,46.64,20.26Z" style="fill: #bec675"/>
        <path d="M46.64,21.65a9.9,9.9,0,0,0-2.56,2.72,6.51,6.51,0,0,1-2.6-.1,16.48,16.48,0,0,0-2-5.6c1,.5,1.82,2.65,2.47,4.29a19.58,19.58,0,0,0,0-3.75,8.33,8.33,0,0,1,.85,3.7C43.47,21.4,44,20.67,45,18.1a11,11,0,0,1-1.8,5.38C44.06,23.06,45.44,21.76,46.64,21.65Z" style="fill: #74922a"/>
      </g>
      <g>
        <path d="M36.19,23.21A10.06,10.06,0,0,1,38.74,26a6.17,6.17,0,0,0,2.6-.1,17.61,17.61,0,0,1,2-5.8,6.57,6.57,0,0,0-2.47,3.47,4.5,4.5,0,0,0-1.09-2.67A9.25,9.25,0,0,1,40,23.54a6.44,6.44,0,0,0-2.46-3.19,17.16,17.16,0,0,1,2.17,5.41A5.46,5.46,0,0,0,36.19,23.21Z" style="fill: #bec675"/>
        <path d="M36.19,23.21A10.06,10.06,0,0,1,38.74,26a6.17,6.17,0,0,0,2.6-.1,17.61,17.61,0,0,1,2-5.8,6.57,6.57,0,0,0-2.47,3.47,4.5,4.5,0,0,0-1.09-2.67A9.25,9.25,0,0,1,40,23.54a6.44,6.44,0,0,0-2.46-3.19,17.16,17.16,0,0,1,2.17,5.41A5.46,5.46,0,0,0,36.19,23.21Z" style="fill: #bec675"/>
        <path d="M36.19,24.17a8.92,8.92,0,0,1,2.55,1.88,9.06,9.06,0,0,0,2.6-.07,9.68,9.68,0,0,1,2-3.87c-1,.34-1.82,1.84-2.47,3a9.36,9.36,0,0,1,0-2.59A4.26,4.26,0,0,0,40,25.07c-.68-1-1.17-1.55-2.24-3.32a6.14,6.14,0,0,0,1.79,3.71A12.68,12.68,0,0,0,36.19,24.17Z" style="fill: #74922a"/>
      </g>
      <g>
        <path d="M39.78,23.41a5,5,0,0,1,2.36,2.35,12.59,12.59,0,0,0-.19-3c.57.44.93,2.19,1,3a5.3,5.3,0,0,1,2.54-2.45,10.62,10.62,0,0,0-2.17,4.12l-1.59-.17A10.18,10.18,0,0,0,39.78,23.41Z" style="fill: #bec675"/>
        <path d="M42.14,26.76a2.9,2.9,0,0,1,.75-1.54,2.11,2.11,0,0,0,.1,1.56,5.85,5.85,0,0,1,2.54-1,5.42,5.42,0,0,0-2.17,1.74l-1.59-.07a5.28,5.28,0,0,0-2-1.63A5.68,5.68,0,0,1,42.14,26.76Z" style="fill: #74922a"/>
      </g>
      <g>
        <path d="M33.42,6.46a5,5,0,0,1,2.39,2.32,12.59,12.59,0,0,0-.19-3c.57.44.93,2.19,1,3a5.28,5.28,0,0,1,2.55-2.45A10.66,10.66,0,0,0,37,10.46l-1.59-.17A10.47,10.47,0,0,0,33.42,6.46Z" style="fill: #bec675"/>
        <path d="M35.81,9.76a2.9,2.9,0,0,1,.75-1.54,2.16,2.16,0,0,0,.09,1.56,5.89,5.89,0,0,1,2.55-1A5.29,5.29,0,0,0,37,10.52l-1.59-.08a5.26,5.26,0,0,0-2-1.62A5.38,5.38,0,0,1,35.81,9.76Z" style="fill: #74922a"/>
      </g>
    </g>
    <g>
      <g>
        <path d="M14.87,8.85a7,7,0,0,0-2.38,3.59,28,28,0,0,1,.19-4.58c-.58.67-.94,3.39-1,4.65A7.21,7.21,0,0,0,9.14,8.76a21,21,0,0,1,2.17,6.39l1.59-.27A20.42,20.42,0,0,1,14.87,8.85Z" style="fill: #bec675"/>
        <path d="M12.49,14a6.08,6.08,0,0,0-.75-2.38,5,5,0,0,1-.1,2.41A5,5,0,0,0,9.1,12.4a6.89,6.89,0,0,1,2.17,2.7L12.86,15a6.65,6.65,0,0,1,2-2.52A4.83,4.83,0,0,0,12.49,14Z" style="fill: #74922a"/>
      </g>
      <g>
        <path d="M21.73,11.61a14.24,14.24,0,0,0-2.56,4.08,4.4,4.4,0,0,1-2.59-.15,33.73,33.73,0,0,0-2-8.4c.95.75,1.82,2.57,2.47,5a8.17,8.17,0,0,1,1.08-3.88,20.27,20.27,0,0,0-.24,3.81c.68-2.27,1.54-4,2.46-4.62a31.17,31.17,0,0,0-2.13,7.75C19.22,13.12,20.53,11.76,21.73,11.61Z" style="fill: #bec675"/>
        <path d="M21.73,11.61a14.24,14.24,0,0,0-2.56,4.08,4.4,4.4,0,0,1-2.59-.15,33.73,33.73,0,0,0-2-8.4c.95.75,1.82,2.57,2.47,5a8.17,8.17,0,0,1,1.08-3.88,20.27,20.27,0,0,0-.24,3.81c.68-2.27,1.54-4,2.46-4.62a31.17,31.17,0,0,0-2.13,7.75C19.22,13.12,20.53,11.76,21.73,11.61Z" style="fill: #bec675"/>
        <path d="M21.73,13a10.16,10.16,0,0,0-2.59,2.76,6.46,6.46,0,0,1-2.59-.11,16.7,16.7,0,0,0-2-5.6c.95.5,1.82,2.65,2.47,4.29a19.58,19.58,0,0,0,0-3.75,8.11,8.11,0,0,1,.85,3.71c.68-1.52,1.16-2.25,2.24-4.82a11,11,0,0,1-1.8,5.38C19.14,14.41,20.53,13.11,21.73,13Z" style="fill: #74922a"/>
      </g>
      <g>
        <path d="M11.28,14.56a10.39,10.39,0,0,1,2.56,2.81,6.28,6.28,0,0,0,2.59-.09,17.61,17.61,0,0,1,2-5.8A6.52,6.52,0,0,0,16,15a4.43,4.43,0,0,0-1.08-2.68,9.7,9.7,0,0,1,.24,2.63,6.23,6.23,0,0,0-2.46-3.19,16.8,16.8,0,0,1,2.13,5.36A5.38,5.38,0,0,0,11.28,14.56Z" style="fill: #bec675"/>
        <path d="M11.28,14.56a10.39,10.39,0,0,1,2.56,2.81,6.28,6.28,0,0,0,2.59-.09,17.61,17.61,0,0,1,2-5.8A6.52,6.52,0,0,0,16,15a4.43,4.43,0,0,0-1.08-2.68,9.7,9.7,0,0,1,.24,2.63,6.23,6.23,0,0,0-2.46-3.19,16.8,16.8,0,0,1,2.13,5.36A5.38,5.38,0,0,0,11.28,14.56Z" style="fill: #bec675"/>
        <path d="M11.28,15.52a9.31,9.31,0,0,1,2.56,1.88,9.37,9.37,0,0,0,2.59-.06,9.68,9.68,0,0,1,2-3.87c-1,.34-1.82,1.83-2.47,3a9.36,9.36,0,0,1,0-2.59,4.23,4.23,0,0,0-.85,2.56c-.67-1-1.17-1.55-2.24-3.33a6.21,6.21,0,0,0,1.8,3.72A11.93,11.93,0,0,0,11.28,15.52Z" style="fill: #74922a"/>
      </g>
      <g>
        <path d="M14.87,14.76a5,5,0,0,1,2.39,2.31,12.09,12.09,0,0,0-.19-3c.58.44.94,2.19,1,3a5.3,5.3,0,0,1,2.54-2.45,10.81,10.81,0,0,0-2.16,4.12l-1.6-.17A10.29,10.29,0,0,0,14.87,14.76Z" style="fill: #bec675"/>
        <path d="M17.26,18.07A3.1,3.1,0,0,1,18,16.53a2.11,2.11,0,0,0,.1,1.56,5.85,5.85,0,0,1,2.54-1,5.45,5.45,0,0,0-2.16,1.73l-1.6-.07a5.17,5.17,0,0,0-2-1.62A5.38,5.38,0,0,1,17.26,18.07Z" style="fill: #74922a"/>
      </g>
      <g>
        <path d="M10.74,13.05a6.86,6.86,0,0,0-2.39,3.58,28,28,0,0,1,.2-4.58c-.58.68-.94,3.4-1,4.65A7.2,7.2,0,0,0,5,12.9a20.74,20.74,0,0,1,2.17,6.39L8.76,19A20.14,20.14,0,0,1,10.74,13.05Z" style="fill: #bec675"/>
        <path d="M8.35,18.17a5.73,5.73,0,0,0-.75-2.38,4.92,4.92,0,0,1-.09,2.41A5,5,0,0,0,5,16.6a6.62,6.62,0,0,1,2.17,2.69l1.59-.11a6.47,6.47,0,0,1,2-2.52A4.71,4.71,0,0,0,8.35,18.17Z" style="fill: #74922a"/>
      </g>
      <g>
        <path d="M17.59,15.76A14.21,14.21,0,0,0,15,19.84a4.44,4.44,0,0,1-2.6-.15,33.22,33.22,0,0,0-2-8.39c1,.74,1.82,2.57,2.47,5A8.22,8.22,0,0,1,14,12.43a20.17,20.17,0,0,0-.24,3.8c.68-2.27,1.55-3.94,2.46-4.62a31.24,31.24,0,0,0-2.13,7.76C15.14,17.31,16.39,16,17.59,15.76Z" style="fill: #bec675"/>
        <path d="M17.59,15.76A14.21,14.21,0,0,0,15,19.84a4.44,4.44,0,0,1-2.6-.15,33.22,33.22,0,0,0-2-8.39c1,.74,1.82,2.57,2.47,5A8.22,8.22,0,0,1,14,12.43a20.17,20.17,0,0,0-.24,3.8c.68-2.27,1.55-3.94,2.46-4.62a31.24,31.24,0,0,0-2.13,7.76C15.14,17.31,16.39,16,17.59,15.76Z" style="fill: #bec675"/>
        <path d="M17.59,17.2A9.86,9.86,0,0,0,15,19.92a6.51,6.51,0,0,1-2.6-.1,16.48,16.48,0,0,0-2-5.6c1,.49,1.82,2.65,2.47,4.29a19.58,19.58,0,0,0,0-3.75,8.07,8.07,0,0,1,.85,3.7c.68-1.51,1.17-2.25,2.25-4.81A11,11,0,0,1,14.21,19C15,18.61,16.39,17.31,17.59,17.2Z" style="fill: #74922a"/>
      </g>
      <g>
        <path d="M7.14,18.76A10.09,10.09,0,0,1,9.7,21.57a6.51,6.51,0,0,0,2.6-.1,17.61,17.61,0,0,1,2-5.8,6.55,6.55,0,0,0-2.46,3.47,4.56,4.56,0,0,0-1.09-2.68A9,9,0,0,1,11,19.09,6.33,6.33,0,0,0,8.53,15.9a17.06,17.06,0,0,1,2.14,5.36A5.46,5.46,0,0,0,7.14,18.76Z" style="fill: #bec675"/>
        <path d="M7.14,18.76A10.09,10.09,0,0,1,9.7,21.57a6.51,6.51,0,0,0,2.6-.1,17.61,17.61,0,0,1,2-5.8,6.55,6.55,0,0,0-2.46,3.47,4.56,4.56,0,0,0-1.09-2.68A9,9,0,0,1,11,19.09,6.33,6.33,0,0,0,8.53,15.9a17.06,17.06,0,0,1,2.14,5.36A5.46,5.46,0,0,0,7.14,18.76Z" style="fill: #bec675"/>
        <path d="M7.14,19.76A9,9,0,0,1,9.7,21.64a9.06,9.06,0,0,0,2.6-.07,9.49,9.49,0,0,1,2-3.87c-.94.34-1.82,1.83-2.46,3a8.72,8.72,0,0,1,0-2.6A4.3,4.3,0,0,0,11,20.66c-.67-1-1.16-1.55-2.24-3.33a6.21,6.21,0,0,0,1.8,3.72C9.72,20.7,8.34,19.76,7.14,19.76Z" style="fill: #74922a"/>
      </g>
      <g>
        <path d="M10.74,19a5,5,0,0,1,2.39,2.31,12.09,12.09,0,0,0-.2-3c.58.44.94,2.19,1,3a5.3,5.3,0,0,1,2.54-2.45,10.67,10.67,0,0,0-2.16,4.12l-1.6-.17A10.27,10.27,0,0,0,10.74,19Z" style="fill: #bec675"/>
        <path d="M13.14,22.27a2.9,2.9,0,0,1,.75-1.54A2.13,2.13,0,0,0,14,22.28a6.16,6.16,0,0,1,2.54-1A5.56,5.56,0,0,0,14.36,23L12.76,23a5.21,5.21,0,0,0-2-1.63A5.56,5.56,0,0,1,13.14,22.27Z" style="fill: #74922a"/>
      </g>
      <g>
        <path d="M20.14,15.34a7,7,0,0,0-2.39,3.59,28,28,0,0,1,.2-4.58c-.58.68-.94,3.4-1,4.65a7.2,7.2,0,0,0-2.55-3.8,20.74,20.74,0,0,1,2.17,6.39l1.6-.26A19.8,19.8,0,0,1,20.14,15.34Z" style="fill: #bec675"/>
        <path d="M17.72,20.47A5.73,5.73,0,0,0,17,18.09a4.92,4.92,0,0,1-.09,2.41,5,5,0,0,0-2.55-1.6,6.62,6.62,0,0,1,2.17,2.69l1.6-.11a6.33,6.33,0,0,1,2-2.52A4.74,4.74,0,0,0,17.72,20.47Z" style="fill: #74922a"/>
      </g>
      <g>
        <path d="M27,18.1a14.21,14.21,0,0,0-2.55,4.08,4.44,4.44,0,0,1-2.6-.15,32.8,32.8,0,0,0-2-8.39c1,.74,1.82,2.56,2.47,5a8.15,8.15,0,0,1,1.09-3.88,19.48,19.48,0,0,0-.25,3.81c.68-2.27,1.55-4,2.46-4.62a31.8,31.8,0,0,0-2.13,7.76C24.46,19.61,25.76,18.26,27,18.1Z" style="fill: #bec675"/>
        <path d="M27,18.1a14.21,14.21,0,0,0-2.55,4.08,4.44,4.44,0,0,1-2.6-.15,32.8,32.8,0,0,0-2-8.39c1,.74,1.82,2.56,2.47,5a8.15,8.15,0,0,1,1.09-3.88,19.48,19.48,0,0,0-.25,3.81c.68-2.27,1.55-4,2.46-4.62a31.8,31.8,0,0,0-2.13,7.76C24.46,19.61,25.76,18.26,27,18.1Z" style="fill: #bec675"/>
        <path d="M27,19.5a9.86,9.86,0,0,0-2.55,2.72,6.51,6.51,0,0,1-2.6-.1,16.27,16.27,0,0,0-2-5.6c1,.49,1.82,2.65,2.47,4.29a19.58,19.58,0,0,0,0-3.75,8.07,8.07,0,0,1,.85,3.7c.68-1.51,1.17-2.25,2.25-4.81a11,11,0,0,1-1.8,5.37C24.39,20.91,25.76,19.61,27,19.5Z" style="fill: #74922a"/>
      </g>
      <g>
        <path d="M16.51,21.05a10.29,10.29,0,0,1,2.56,2.82,6.51,6.51,0,0,0,2.6-.1,17.09,17.09,0,0,1,2-5.8,6.52,6.52,0,0,0-2.47,3.47,4.49,4.49,0,0,0-1.06-2.68,9,9,0,0,1,.24,2.63,6.36,6.36,0,0,0-2.45-3.19,17,17,0,0,1,2.13,5.36A5.52,5.52,0,0,0,16.51,21.05Z" style="fill: #bec675"/>
        <path d="M16.51,21.05a10.29,10.29,0,0,1,2.56,2.82,6.51,6.51,0,0,0,2.6-.1,17.09,17.09,0,0,1,2-5.8,6.52,6.52,0,0,0-2.47,3.47,4.49,4.49,0,0,0-1.06-2.68,9,9,0,0,1,.24,2.63,6.36,6.36,0,0,0-2.45-3.19,17,17,0,0,1,2.13,5.36A5.52,5.52,0,0,0,16.51,21.05Z" style="fill: #bec675"/>
        <path d="M16.51,22a9,9,0,0,1,2.56,1.88,9.84,9.84,0,0,0,2.6-.07,9.37,9.37,0,0,1,2-3.87c-1,.34-1.83,1.83-2.47,3a9.36,9.36,0,0,1,0-2.59,4.3,4.3,0,0,0-.85,2.56c-.67-1-1.16-1.55-2.24-3.33a6.21,6.21,0,0,0,1.8,3.72A11.17,11.17,0,0,0,16.51,22Z" style="fill: #74922a"/>
      </g>
      <g>
        <path d="M20.14,21.26a5,5,0,0,1,2.39,2.31,12.09,12.09,0,0,0-.2-3c.58.43.94,2.19,1,3a5.32,5.32,0,0,1,2.54-2.46,10.78,10.78,0,0,0-2.16,4.13l-1.6-.17A10.27,10.27,0,0,0,20.14,21.26Z" style="fill: #bec675"/>
        <path d="M22.5,24.57A2.9,2.9,0,0,1,23.25,23a2.13,2.13,0,0,0,.09,1.55,5.85,5.85,0,0,1,2.54-1,5.39,5.39,0,0,0-2.16,1.74l-1.6-.07a5,5,0,0,0-2-1.63A5.43,5.43,0,0,1,22.5,24.57Z" style="fill: #74922a"/>
      </g>
      <g>
        <path d="M5.6,15.45A7,7,0,0,0,3.21,19a28,28,0,0,1,.2-4.58c-.58.68-.94,3.4-1,4.65A7.18,7.18,0,0,0-.13,15.3,21,21,0,0,1,2,21.69l1.6-.26A19.83,19.83,0,0,1,5.6,15.45Z" style="fill: #bec675"/>
        <path d="M3.21,20.57a5.73,5.73,0,0,0-.75-2.38,4.92,4.92,0,0,1-.09,2.41A5,5,0,0,0-.17,19,6.68,6.68,0,0,1,2,21.69l1.6-.11a6.4,6.4,0,0,1,2-2.52A4.74,4.74,0,0,0,3.21,20.57Z" style="fill: #74922a"/>
      </g>
      <g>
        <path d="M12.45,18.2A14.43,14.43,0,0,0,9.9,22.28a4.44,4.44,0,0,1-2.6-.15,33.22,33.22,0,0,0-2-8.39c1,.74,1.82,2.57,2.47,5a8.23,8.23,0,0,1,1.09-3.87,19.37,19.37,0,0,0-.25,3.8c.68-2.27,1.55-3.94,2.46-4.62a31.8,31.8,0,0,0-2.13,7.76C10,19.76,11.25,18.37,12.45,18.2Z" style="fill: #bec675"/>
        <path d="M12.45,18.2A14.43,14.43,0,0,0,9.9,22.28a4.44,4.44,0,0,1-2.6-.15,33.22,33.22,0,0,0-2-8.39c1,.74,1.82,2.57,2.47,5a8.23,8.23,0,0,1,1.09-3.87,19.37,19.37,0,0,0-.25,3.8c.68-2.27,1.55-3.94,2.46-4.62a31.8,31.8,0,0,0-2.13,7.76C10,19.76,11.25,18.37,12.45,18.2Z" style="fill: #bec675"/>
        <path d="M12.45,19.6A10,10,0,0,0,9.9,22.32a6.51,6.51,0,0,1-2.6-.1,16.48,16.48,0,0,0-2-5.6c1,.49,1.82,2.65,2.47,4.29a19.58,19.58,0,0,0,0-3.75,8.18,8.18,0,0,1,.84,3.7c.68-1.51,1.17-2.25,2.25-4.81a11,11,0,0,1-1.8,5.37C9.88,21,11.25,19.76,12.45,19.6Z" style="fill: #74922a"/>
      </g>
      <g>
        <path d="M2,21.15A10.29,10.29,0,0,1,4.56,24a6.51,6.51,0,0,0,2.6-.1,17.61,17.61,0,0,1,2-5.8,6.52,6.52,0,0,0-2.47,3.47,4.67,4.67,0,0,0-1.08-2.68,9.7,9.7,0,0,1,.24,2.63A6.44,6.44,0,0,0,3.39,18.3a17,17,0,0,1,2.13,5.36A5.49,5.49,0,0,0,2,21.15Z" style="fill: #bec675"/>
        <path d="M2,21.15A10.29,10.29,0,0,1,4.56,24a6.51,6.51,0,0,0,2.6-.1,17.61,17.61,0,0,1,2-5.8,6.52,6.52,0,0,0-2.47,3.47,4.67,4.67,0,0,0-1.08-2.68,9.7,9.7,0,0,1,.24,2.63A6.44,6.44,0,0,0,3.39,18.3a17,17,0,0,1,2.13,5.36A5.49,5.49,0,0,0,2,21.15Z" style="fill: #bec675"/>
        <path d="M2,22.12A9,9,0,0,1,4.56,24a9.84,9.84,0,0,0,2.6-.07,9.49,9.49,0,0,1,2-3.87c-1,.34-1.83,1.83-2.47,3a9.36,9.36,0,0,1,0-2.59A4.23,4.23,0,0,0,5.84,23c-.68-1-1.17-1.55-2.25-3.33a6.21,6.21,0,0,0,1.8,3.72A12.11,12.11,0,0,0,2,22.12Z" style="fill: #74922a"/>
      </g>
      <g>
        <path d="M5.6,21.36A5,5,0,0,1,8,23.67a12.09,12.09,0,0,0-.19-3c.57.43.93,2.19,1,3a5.28,5.28,0,0,1,2.55-2.45,10.62,10.62,0,0,0-2.17,4.12l-1.59-.17A10.32,10.32,0,0,0,5.6,21.36Z" style="fill: #bec675"/>
        <path d="M8,24.67a2.9,2.9,0,0,1,.75-1.54,2.16,2.16,0,0,0,.09,1.56,5.89,5.89,0,0,1,2.55-1,5.42,5.42,0,0,0-2.17,1.74l-1.59-.07a5.28,5.28,0,0,0-2-1.63A5.68,5.68,0,0,1,8,24.67Z" style="fill: #74922a"/>
      </g>
      <g>
        <path d="M12.72,18.19a6.86,6.86,0,0,0-2.39,3.58,28,28,0,0,1,.19-4.58c-.58.68-.94,3.4-1,4.65A7.18,7.18,0,0,0,7,18a21,21,0,0,1,2.16,6.39l1.6-.26A19.49,19.49,0,0,1,12.72,18.19Z" style="fill: #bec675"/>
        <path d="M10.33,23.31a5.89,5.89,0,0,0-.76-2.38,4.92,4.92,0,0,1-.09,2.41,5,5,0,0,0-2.54-1.6A6.68,6.68,0,0,1,9.1,24.43l1.6-.11a6.4,6.4,0,0,1,2-2.52A4.71,4.71,0,0,0,10.33,23.31Z" style="fill: #74922a"/>
      </g>
      <g>
        <path d="M19.57,20.94A14,14,0,0,0,17,25a4.44,4.44,0,0,1-2.6-.15,33.22,33.22,0,0,0-2-8.39c.94.74,1.82,2.56,2.46,5A8.42,8.42,0,0,1,16,17.6a20.27,20.27,0,0,0-.24,3.81c.67-2.27,1.54-4,2.46-4.62A31.7,31.7,0,0,0,16,24.55C17.06,22.45,18.37,21.1,19.57,20.94Z" style="fill: #bec675"/>
        <path d="M19.57,20.94A14,14,0,0,0,17,25a4.44,4.44,0,0,1-2.6-.15,33.22,33.22,0,0,0-2-8.39c.94.74,1.82,2.56,2.46,5A8.42,8.42,0,0,1,16,17.6a20.27,20.27,0,0,0-.24,3.81c.67-2.27,1.54-4,2.46-4.62A31.7,31.7,0,0,0,16,24.55C17.06,22.45,18.37,21.1,19.57,20.94Z" style="fill: #bec675"/>
        <path d="M19.57,22.34A9.9,9.9,0,0,0,17,25.06a6.51,6.51,0,0,1-2.6-.1,16.48,16.48,0,0,0-2-5.6c.94.49,1.82,2.65,2.46,4.29a18.08,18.08,0,0,0,0-3.75,7.94,7.94,0,0,1,.85,3.7c.67-1.51,1.16-2.25,2.24-4.81a11,11,0,0,1-1.8,5.37C17,23.76,18.37,22.45,19.57,22.34Z" style="fill: #74922a"/>
      </g>
      <g>
        <path d="M9.14,23.89a10.43,10.43,0,0,1,2.56,2.82,6.46,6.46,0,0,0,2.59-.1,17.61,17.61,0,0,1,2-5.8,6.52,6.52,0,0,0-2.47,3.47,4.43,4.43,0,0,0-1.08-2.68A9.7,9.7,0,0,1,13,24.23,6.33,6.33,0,0,0,10.52,21a16.8,16.8,0,0,1,2.13,5.36A5.53,5.53,0,0,0,9.14,23.89Z" style="fill: #bec675"/>
        <path d="M9.14,23.89a10.43,10.43,0,0,1,2.56,2.82,6.46,6.46,0,0,0,2.59-.1,17.61,17.61,0,0,1,2-5.8,6.52,6.52,0,0,0-2.47,3.47,4.43,4.43,0,0,0-1.08-2.68A9.7,9.7,0,0,1,13,24.23,6.33,6.33,0,0,0,10.52,21a16.8,16.8,0,0,1,2.13,5.36A5.53,5.53,0,0,0,9.14,23.89Z" style="fill: #bec675"/>
        <path d="M9.14,24.86a9.11,9.11,0,0,1,2.56,1.88,9,9,0,0,0,2.59-.07,9.49,9.49,0,0,1,2-3.87c-1,.34-1.82,1.83-2.47,3a9.36,9.36,0,0,1,0-2.59A4.23,4.23,0,0,0,13,25.77c-.68-1-1.17-1.55-2.24-3.33a6.2,6.2,0,0,0,1.79,3.72A11.91,11.91,0,0,0,9.14,24.86Z" style="fill: #74922a"/>
      </g>
      <g>
        <path d="M12.72,24.1a5,5,0,0,1,2.38,2.31,12.09,12.09,0,0,0-.19-3c.58.44.94,2.2,1,3A5.43,5.43,0,0,1,18.46,24a10.51,10.51,0,0,0-2.16,4.13l-1.6-.17A10.44,10.44,0,0,0,12.72,24.1Z" style="fill: #bec675"/>
        <path d="M15.14,27.4a2.91,2.91,0,0,1,.75-1.53A2.18,2.18,0,0,0,16,27.42a6,6,0,0,1,2.55-1,5.39,5.39,0,0,0-2.16,1.74l-1.6-.08a5.26,5.26,0,0,0-2-1.62A5.68,5.68,0,0,1,15.14,27.4Z" style="fill: #74922a"/>
      </g>
    </g>
    <g>
      <g>
        <path d="M27.37,15.28A6.86,6.86,0,0,0,25,18.86a28,28,0,0,1,.19-4.58c-.58.68-.94,3.39-1,4.65a7.18,7.18,0,0,0-2.54-3.8,21,21,0,0,1,2.16,6.39l1.6-.26A19.49,19.49,0,0,1,27.37,15.28Z" style="fill: #bec675"/>
        <path d="M25,20.4A6,6,0,0,0,24.23,18a5,5,0,0,1-.1,2.42,5,5,0,0,0-2.54-1.6,6.68,6.68,0,0,1,2.16,2.69l1.6-.11a6.4,6.4,0,0,1,2-2.52A4.71,4.71,0,0,0,25,20.4Z" style="fill: #74922a"/>
      </g>
      <g>
        <path d="M34.22,18a14.46,14.46,0,0,0-2.56,4.08A4.4,4.4,0,0,1,29.07,22a33.73,33.73,0,0,0-2-8.4c1,.75,1.82,2.57,2.46,5a8.42,8.42,0,0,1,1.09-3.88,18.72,18.72,0,0,0-.24,3.81c.68-2.27,1.54-4,2.46-4.62a31.7,31.7,0,0,0-2.14,7.76C31.71,19.54,33,18.19,34.22,18Z" style="fill: #bec675"/>
        <path d="M34.22,18a14.46,14.46,0,0,0-2.56,4.08A4.4,4.4,0,0,1,29.07,22a33.73,33.73,0,0,0-2-8.4c1,.75,1.82,2.57,2.46,5a8.42,8.42,0,0,1,1.09-3.88,18.72,18.72,0,0,0-.24,3.81c.68-2.27,1.54-4,2.46-4.62a31.7,31.7,0,0,0-2.14,7.76C31.71,19.54,33,18.19,34.22,18Z" style="fill: #bec675"/>
        <path d="M34.22,19.43a9.9,9.9,0,0,0-2.56,2.72,6.46,6.46,0,0,1-2.59-.1,16.48,16.48,0,0,0-2-5.6c1,.49,1.82,2.65,2.46,4.29a18.17,18.17,0,0,0,0-3.76,8.27,8.27,0,0,1,.85,3.71c.68-1.51,1.16-2.25,2.24-4.82a11,11,0,0,1-1.8,5.38C31.65,20.84,33,19.53,34.22,19.43Z" style="fill: #74922a"/>
      </g>
      <g>
        <path d="M23.77,21a10.43,10.43,0,0,1,2.56,2.82,6.46,6.46,0,0,0,2.59-.1,17.61,17.61,0,0,1,2-5.8,6.52,6.52,0,0,0-2.47,3.47,4.55,4.55,0,0,0-1.08-2.68,9.7,9.7,0,0,1,.24,2.63,6.33,6.33,0,0,0-2.46-3.19,16.8,16.8,0,0,1,2.13,5.36A5.53,5.53,0,0,0,23.77,21Z" style="fill: #bec675"/>
        <path d="M23.77,21a10.43,10.43,0,0,1,2.56,2.82,6.46,6.46,0,0,0,2.59-.1,17.61,17.61,0,0,1,2-5.8,6.52,6.52,0,0,0-2.47,3.47,4.55,4.55,0,0,0-1.08-2.68,9.7,9.7,0,0,1,.24,2.63,6.33,6.33,0,0,0-2.46-3.19,16.8,16.8,0,0,1,2.13,5.36A5.53,5.53,0,0,0,23.77,21Z" style="fill: #bec675"/>
        <path d="M23.77,22a9.11,9.11,0,0,1,2.56,1.88,9.78,9.78,0,0,0,2.59-.07,9.49,9.49,0,0,1,2-3.87c-1,.34-1.82,1.83-2.47,3a9.36,9.36,0,0,1,0-2.59,4.23,4.23,0,0,0-.85,2.56c-.68-1.05-1.17-1.55-2.24-3.33a6.2,6.2,0,0,0,1.79,3.72A11.46,11.46,0,0,0,23.77,22Z" style="fill: #74922a"/>
      </g>
      <g>
        <path d="M27.37,21.19a5,5,0,0,1,2.38,2.31,12.59,12.59,0,0,0-.19-3c.58.44.94,2.2,1,3a5.26,5.26,0,0,1,2.54-2.45,10.47,10.47,0,0,0-2.16,4.12L29.34,25A10.27,10.27,0,0,0,27.37,21.19Z" style="fill: #bec675"/>
        <path d="M29.75,24.49A2.87,2.87,0,0,1,30.5,23a2.13,2.13,0,0,0,.1,1.55,5.85,5.85,0,0,1,2.54-1A5.32,5.32,0,0,0,31,25.25l-1.6-.08a5.17,5.17,0,0,0-2-1.62A5.68,5.68,0,0,1,29.75,24.49Z" style="fill: #74922a"/>
      </g>
      <g>
        <path d="M23.23,19.47a6.89,6.89,0,0,0-2.39,3.59,28.17,28.17,0,0,1,.2-4.59c-.58.68-.94,3.4-1.05,4.65a7.23,7.23,0,0,0-2.53-3.79,20.93,20.93,0,0,1,2.16,6.38l1.6-.26A19.46,19.46,0,0,1,23.23,19.47Z" style="fill: #bec675"/>
        <path d="M20.84,24.59a5.73,5.73,0,0,0-.75-2.38,4.8,4.8,0,0,1-.1,2.41A5,5,0,0,0,17.46,23a6.68,6.68,0,0,1,2.16,2.69l1.6-.11a6.4,6.4,0,0,1,2-2.52A4.74,4.74,0,0,0,20.84,24.59Z" style="fill: #74922a"/>
      </g>
      <g>
        <path d="M30.08,22.23a14.27,14.27,0,0,0-2.56,4.07,4.4,4.4,0,0,1-2.59-.15,33.22,33.22,0,0,0-2-8.39c1,.74,1.82,2.57,2.47,5a8.15,8.15,0,0,1,1.09-3.88,19.37,19.37,0,0,0-.25,3.8c.68-2.26,1.54-3.94,2.46-4.61a31.17,31.17,0,0,0-2.13,7.75C27.58,23.76,28.89,22.39,30.08,22.23Z" style="fill: #bec675"/>
        <path d="M30.08,22.23a14.27,14.27,0,0,0-2.56,4.07,4.4,4.4,0,0,1-2.59-.15,33.22,33.22,0,0,0-2-8.39c1,.74,1.82,2.57,2.47,5a8.15,8.15,0,0,1,1.09-3.88,19.37,19.37,0,0,0-.25,3.8c.68-2.26,1.54-3.94,2.46-4.61a31.17,31.17,0,0,0-2.13,7.75C27.58,23.76,28.89,22.39,30.08,22.23Z" style="fill: #bec675"/>
        <path d="M30.08,23.62a10.36,10.36,0,0,0-2.56,2.72,6.46,6.46,0,0,1-2.59-.1,16.48,16.48,0,0,0-2-5.6c1,.5,1.82,2.65,2.47,4.29a19.58,19.58,0,0,0,0-3.75,8,8,0,0,1,.85,3.71c.68-1.52,1.17-2.25,2.24-4.82a10.88,10.88,0,0,1-1.79,5.38C27.51,25,28.89,23.76,30.08,23.62Z" style="fill: #74922a"/>
      </g>
      <g>
        <path d="M19.63,25.18A10.25,10.25,0,0,1,22.19,28a6.17,6.17,0,0,0,2.6-.1,17.61,17.61,0,0,1,2-5.8,6.63,6.63,0,0,0-2.46,3.47,4.5,4.5,0,0,0-1.09-2.67,9,9,0,0,1,.24,2.63A6.31,6.31,0,0,0,21,22.32a16.83,16.83,0,0,1,2.14,5.36A5.46,5.46,0,0,0,19.63,25.18Z" style="fill: #bec675"/>
        <path d="M19.63,25.18A10.25,10.25,0,0,1,22.19,28a6.17,6.17,0,0,0,2.6-.1,17.61,17.61,0,0,1,2-5.8,6.63,6.63,0,0,0-2.46,3.47,4.5,4.5,0,0,0-1.09-2.67,9,9,0,0,1,.24,2.63A6.31,6.31,0,0,0,21,22.32a16.83,16.83,0,0,1,2.14,5.36A5.46,5.46,0,0,0,19.63,25.18Z" style="fill: #bec675"/>
        <path d="M19.63,26.14A9,9,0,0,1,22.19,28a9.43,9.43,0,0,0,2.6-.06,9.53,9.53,0,0,1,2-3.88c-.94.35-1.82,1.84-2.46,3a8.72,8.72,0,0,1,0-2.6,4.33,4.33,0,0,0-.85,2.57c-.67-1-1.16-1.56-2.24-3.33A6.16,6.16,0,0,0,23,27.43,12.83,12.83,0,0,0,19.63,26.14Z" style="fill: #74922a"/>
      </g>
      <g>
        <path d="M23.23,25.38a5.14,5.14,0,0,1,2.39,2.31,12.09,12.09,0,0,0-.2-3c.58.44.94,2.19,1,3A5.26,5.26,0,0,1,29,25.24a10.81,10.81,0,0,0-2.16,4.12l-1.6-.17A10.27,10.27,0,0,0,23.23,25.38Z" style="fill: #bec675"/>
        <path d="M25.62,28.69a2.9,2.9,0,0,1,.75-1.54,2.16,2.16,0,0,0,.09,1.56,5.9,5.9,0,0,1,2.54-1,5.56,5.56,0,0,0-2.16,1.74l-1.6-.07a5.21,5.21,0,0,0-2-1.63A5.67,5.67,0,0,1,25.62,28.69Z" style="fill: #74922a"/>
      </g>
      <g>
        <path d="M32.6,21.76a6.86,6.86,0,0,0-2.39,3.58,28,28,0,0,1,.2-4.58c-.58.68-.94,3.4-1,4.65a7.26,7.26,0,0,0-2.55-3.8A20.74,20.74,0,0,1,29,28l1.59-.26A20.14,20.14,0,0,1,32.6,21.76Z" style="fill: #bec675"/>
        <path d="M30.21,26.89a5.73,5.73,0,0,0-.75-2.38,4.92,4.92,0,0,1-.09,2.41,5.06,5.06,0,0,0-2.55-1.6A6.62,6.62,0,0,1,29,28l1.59-.11a6.47,6.47,0,0,1,2-2.52A4.71,4.71,0,0,0,30.21,26.89Z" style="fill: #74922a"/>
      </g>
      <g>
        <path d="M39.45,24.52a14.46,14.46,0,0,0-2.56,4.08,4.4,4.4,0,0,1-2.59-.15,33.22,33.22,0,0,0-2-8.39c1,.74,1.83,2.57,2.47,5a8.12,8.12,0,0,1,1.09-3.87,19.37,19.37,0,0,0-.25,3.8c.68-2.27,1.54-3.94,2.46-4.62a31.8,31.8,0,0,0-2.13,7.76C37,26,38.26,24.69,39.45,24.52Z" style="fill: #bec675"/>
        <path d="M39.45,24.52a14.46,14.46,0,0,0-2.56,4.08,4.4,4.4,0,0,1-2.59-.15,33.22,33.22,0,0,0-2-8.39c1,.74,1.83,2.57,2.47,5a8.12,8.12,0,0,1,1.09-3.87,19.37,19.37,0,0,0-.25,3.8c.68-2.27,1.54-3.94,2.46-4.62a31.8,31.8,0,0,0-2.13,7.76C37,26,38.26,24.69,39.45,24.52Z" style="fill: #bec675"/>
        <path d="M39.45,25.92a9.9,9.9,0,0,0-2.56,2.72,6.46,6.46,0,0,1-2.59-.1,16.48,16.48,0,0,0-2-5.6c1,.49,1.83,2.65,2.47,4.29a19.58,19.58,0,0,0,0-3.75,8.07,8.07,0,0,1,.85,3.7c.68-1.51,1.17-2.24,2.25-4.81a11,11,0,0,1-1.8,5.37C36.88,27.33,38.26,26,39.45,25.92Z" style="fill: #74922a"/>
      </g>
      <g>
        <path d="M29,27.48a10.09,10.09,0,0,1,2.56,2.81,6.51,6.51,0,0,0,2.6-.1,17.09,17.09,0,0,1,2-5.8,6.52,6.52,0,0,0-2.47,3.47,4.5,4.5,0,0,0-1.09-2.67,8.9,8.9,0,0,1,.24,2.62,6.36,6.36,0,0,0-2.45-3.19A17,17,0,0,1,32.52,30,5.48,5.48,0,0,0,29,27.48Z" style="fill: #bec675"/>
        <path d="M29,27.48a10.09,10.09,0,0,1,2.56,2.81,6.51,6.51,0,0,0,2.6-.1,17.09,17.09,0,0,1,2-5.8,6.52,6.52,0,0,0-2.47,3.47,4.5,4.5,0,0,0-1.09-2.67,8.9,8.9,0,0,1,.24,2.62,6.36,6.36,0,0,0-2.45-3.19A17,17,0,0,1,32.52,30,5.48,5.48,0,0,0,29,27.48Z" style="fill: #bec675"/>
        <path d="M29,28.44a9,9,0,0,1,2.56,1.88,9.06,9.06,0,0,0,2.6-.07,9.37,9.37,0,0,1,2-3.87c-.95.34-1.83,1.83-2.47,3a8.72,8.72,0,0,1,0-2.6,4.37,4.37,0,0,0-.85,2.56c-.67-1-1.16-1.55-2.24-3.32a6.16,6.16,0,0,0,1.8,3.71C31.58,29.42,30.2,28.51,29,28.44Z" style="fill: #74922a"/>
      </g>
      <g>
        <path d="M32.6,27.68A5.14,5.14,0,0,1,35,30,12.14,12.14,0,0,0,34.8,27c.57.44.93,2.19,1,3a5.26,5.26,0,0,1,2.54-2.45,10.67,10.67,0,0,0-2.16,4.12l-1.59-.17A10.3,10.3,0,0,0,32.6,27.68Z" style="fill: #bec675"/>
        <path d="M35,31a2.9,2.9,0,0,1,.75-1.54A2.16,2.16,0,0,0,35.83,31a5.85,5.85,0,0,1,2.54-1,5.56,5.56,0,0,0-2.16,1.74l-1.59-.07a5.28,5.28,0,0,0-2-1.63A5.68,5.68,0,0,1,35,31Z" style="fill: #74922a"/>
      </g>
      <g>
        <path d="M18.14,21.87a7,7,0,0,0-2.39,3.58,28,28,0,0,1,.2-4.58c-.58.69-.94,3.4-1,4.65a7.19,7.19,0,0,0-2.54-3.79,20.41,20.41,0,0,1,2.16,6.38l1.59-.26A20.14,20.14,0,0,1,18.14,21.87Z" style="fill: #bec675"/>
        <path d="M15.7,27A5.73,5.73,0,0,0,15,24.61,4.92,4.92,0,0,1,14.86,27a5,5,0,0,0-2.54-1.6,6.83,6.83,0,0,1,2.16,2.69L16.07,28a6.47,6.47,0,0,1,2-2.52A4.9,4.9,0,0,0,15.7,27Z" style="fill: #74922a"/>
      </g>
      <g>
        <path d="M24.94,24.63a14.24,14.24,0,0,0-2.55,4.07,4.44,4.44,0,0,1-2.6-.15,33.22,33.22,0,0,0-2-8.39c1,.74,1.82,2.57,2.47,5a8.27,8.27,0,0,1,1.09-3.88,19.48,19.48,0,0,0-.25,3.81c.68-2.27,1.55-4,2.46-4.62a31.6,31.6,0,0,0-2.13,7.75C22.44,26.14,23.75,24.76,24.94,24.63Z" style="fill: #bec675"/>
        <path d="M24.94,24.63a14.24,14.24,0,0,0-2.55,4.07,4.44,4.44,0,0,1-2.6-.15,33.22,33.22,0,0,0-2-8.39c1,.74,1.82,2.57,2.47,5a8.27,8.27,0,0,1,1.09-3.88,19.48,19.48,0,0,0-.25,3.81c.68-2.27,1.55-4,2.46-4.62a31.6,31.6,0,0,0-2.13,7.75C22.44,26.14,23.75,24.76,24.94,24.63Z" style="fill: #bec675"/>
        <path d="M24.94,26a10.16,10.16,0,0,0-2.55,2.72,6.7,6.7,0,0,1-2.6-.09,16.53,16.53,0,0,0-2-5.61c1,.5,1.82,2.65,2.47,4.29a19.58,19.58,0,0,0,0-3.75,8.13,8.13,0,0,1,.84,3.71c.68-1.52,1.17-2.25,2.25-4.82a11,11,0,0,1-1.8,5.38C22.37,27.43,23.75,26.13,24.94,26Z" style="fill: #74922a"/>
      </g>
      <g>
        <path d="M14.49,27.58a10.09,10.09,0,0,1,2.56,2.81,6.17,6.17,0,0,0,2.6-.1,17.61,17.61,0,0,1,2-5.8A6.63,6.63,0,0,0,19.18,28a4.5,4.5,0,0,0-1.09-2.68,9,9,0,0,1,.24,2.63,6.39,6.39,0,0,0-2.45-3.2A17.09,17.09,0,0,1,18,30.09,5.46,5.46,0,0,0,14.49,27.58Z" style="fill: #bec675"/>
        <path d="M14.49,27.58a10.09,10.09,0,0,1,2.56,2.81,6.17,6.17,0,0,0,2.6-.1,17.61,17.61,0,0,1,2-5.8A6.63,6.63,0,0,0,19.18,28a4.5,4.5,0,0,0-1.09-2.68,9,9,0,0,1,.24,2.63,6.39,6.39,0,0,0-2.45-3.2A17.09,17.09,0,0,1,18,30.09,5.46,5.46,0,0,0,14.49,27.58Z" style="fill: #bec675"/>
        <path d="M14.49,28.54a8.78,8.78,0,0,1,2.56,1.88,9.06,9.06,0,0,0,2.6-.07,9.68,9.68,0,0,1,2-3.87c-1,.35-1.82,1.84-2.47,3a9.36,9.36,0,0,1,0-2.59,4.3,4.3,0,0,0-.85,2.56c-.67-1-1.16-1.56-2.24-3.33a6.16,6.16,0,0,0,1.8,3.71A12.63,12.63,0,0,0,14.49,28.54Z" style="fill: #74922a"/>
      </g>
      <g>
        <path d="M18.14,27.76a5,5,0,0,1,2.39,2.32,12.09,12.09,0,0,0-.2-3c.58.44.94,2.19,1,3a5.41,5.41,0,0,1,2.55-2.45,10.62,10.62,0,0,0-2.17,4.12l-1.59-.17A10.26,10.26,0,0,0,18.14,27.76Z" style="fill: #bec675"/>
        <path d="M20.48,31.09a2.9,2.9,0,0,1,.75-1.54,2.16,2.16,0,0,0,.09,1.56,5.89,5.89,0,0,1,2.55-1,5.42,5.42,0,0,0-2.17,1.74l-1.56-.09a5.28,5.28,0,0,0-2-1.63A5.73,5.73,0,0,1,20.48,31.09Z" style="fill: #74922a"/>
      </g>
      <g>
        <path d="M25.2,24.61a6.94,6.94,0,0,0-2.38,3.58A28,28,0,0,1,23,23.61c-.58.68-.94,3.4-1,4.65a7.18,7.18,0,0,0-2.54-3.8,21,21,0,0,1,2.16,6.39l1.6-.26A20.12,20.12,0,0,1,25.2,24.61Z" style="fill: #bec675"/>
        <path d="M22.82,29.76a5.89,5.89,0,0,0-.76-2.38A4.92,4.92,0,0,1,22,29.79a5,5,0,0,0-2.54-1.6,6.68,6.68,0,0,1,2.16,2.69l1.6-.11a6.47,6.47,0,0,1,2-2.52A4.71,4.71,0,0,0,22.82,29.76Z" style="fill: #74922a"/>
      </g>
      <g>
        <path d="M32.05,27.36a14.43,14.43,0,0,0-2.55,4.08,4.44,4.44,0,0,1-2.6-.15,33.22,33.22,0,0,0-2-8.39c.94.74,1.82,2.57,2.46,5A8.35,8.35,0,0,1,28.45,24a18.63,18.63,0,0,0-.24,3.8c.67-2.27,1.54-3.94,2.46-4.62A31.7,31.7,0,0,0,28.53,31C29.55,28.88,30.86,27.52,32.05,27.36Z" style="fill: #bec675"/>
        <path d="M32.05,27.36a14.43,14.43,0,0,0-2.55,4.08,4.44,4.44,0,0,1-2.6-.15,33.22,33.22,0,0,0-2-8.39c.94.74,1.82,2.57,2.46,5A8.35,8.35,0,0,1,28.45,24a18.63,18.63,0,0,0-.24,3.8c.67-2.27,1.54-3.94,2.46-4.62A31.7,31.7,0,0,0,28.53,31C29.55,28.88,30.86,27.52,32.05,27.36Z" style="fill: #bec675"/>
        <path d="M32.05,28.76a10.16,10.16,0,0,0-2.55,2.72,6.51,6.51,0,0,1-2.6-.1,16.48,16.48,0,0,0-2-5.6c.94.49,1.82,2.65,2.46,4.29a18.08,18.08,0,0,0,0-3.75,8.19,8.19,0,0,1,.85,3.7c.67-1.51,1.16-2.24,2.24-4.81a11,11,0,0,1-1.8,5.37C29.48,30.17,30.86,28.87,32.05,28.76Z" style="fill: #74922a"/>
      </g>
      <g>
        <path d="M21.61,30.32a10.06,10.06,0,0,1,2.55,2.81,6.51,6.51,0,0,0,2.6-.1,17.61,17.61,0,0,1,2-5.8,6.57,6.57,0,0,0-2.47,3.47A4.42,4.42,0,0,0,25.21,28a9.63,9.63,0,0,1,.24,2.62A6.38,6.38,0,0,0,23,27.46a17,17,0,0,1,2.13,5.36A5.48,5.48,0,0,0,21.61,30.32Z" style="fill: #bec675"/>
        <path d="M21.61,30.32a10.06,10.06,0,0,1,2.55,2.81,6.51,6.51,0,0,0,2.6-.1,17.61,17.61,0,0,1,2-5.8,6.57,6.57,0,0,0-2.47,3.47A4.42,4.42,0,0,0,25.21,28a9.63,9.63,0,0,1,.24,2.62A6.38,6.38,0,0,0,23,27.46a17,17,0,0,1,2.13,5.36A5.48,5.48,0,0,0,21.61,30.32Z" style="fill: #bec675"/>
        <path d="M21.61,31.28a8.83,8.83,0,0,1,2.53,1.88,9.06,9.06,0,0,0,2.6-.07,9.49,9.49,0,0,1,2-3.87c-1,.34-1.82,1.84-2.47,3a9.43,9.43,0,0,1,0-2.6,4.3,4.3,0,0,0-.85,2.56c-.68-1-1.17-1.55-2.25-3.32A6.21,6.21,0,0,0,25,32.57C24.14,32.26,22.81,31.36,21.61,31.28Z" style="fill: #74922a"/>
      </g>
      <g>
        <path d="M25.2,30.52a5,5,0,0,1,2.39,2.31,12.14,12.14,0,0,0-.19-2.95c.58.44.94,2.19,1,3A5.28,5.28,0,0,1,31,30.43a10.69,10.69,0,0,0-2.17,4.12l-1.59-.17A10.3,10.3,0,0,0,25.2,30.52Z" style="fill: #bec675"/>
        <path d="M27.59,33.83a2.9,2.9,0,0,1,.75-1.54,2.21,2.21,0,0,0,.09,1.56,5.89,5.89,0,0,1,2.55-1,5.59,5.59,0,0,0-2.17,1.74l-1.59-.07a5.28,5.28,0,0,0-2-1.63A5.68,5.68,0,0,1,27.59,33.83Z" style="fill: #74922a"/>
      </g>
    </g>
    <g>
      <g>
        <path d="M58.14,16.62a14.06,14.06,0,0,0-2.56,4.07,4.36,4.36,0,0,1-2.6-.14,33.3,33.3,0,0,0-2-8.4c.94.75,1.82,2.57,2.46,5a8.3,8.3,0,0,1,1.09-3.88,20.27,20.27,0,0,0-.24,3.81c.67-2.27,1.54-3.95,2.46-4.62a31.63,31.63,0,0,0-2.14,7.75C55.67,18.13,57,16.76,58.14,16.62Z" style="fill: #bec675"/>
        <path d="M58.14,16.62a14.06,14.06,0,0,0-2.56,4.07,4.36,4.36,0,0,1-2.6-.14,33.3,33.3,0,0,0-2-8.4c.94.75,1.82,2.57,2.46,5a8.3,8.3,0,0,1,1.09-3.88,20.27,20.27,0,0,0-.24,3.81c.67-2.27,1.54-3.95,2.46-4.62a31.63,31.63,0,0,0-2.14,7.75C55.67,18.13,57,16.76,58.14,16.62Z" style="fill: #bec675"/>
        <path d="M58.14,18a9.93,9.93,0,0,0-2.56,2.73,6.89,6.89,0,0,1-2.6-.1A16.61,16.61,0,0,0,51,15c.94.5,1.82,2.65,2.46,4.29a18.08,18.08,0,0,0,0-3.75,8.11,8.11,0,0,1,.85,3.71c.67-1.52,1.16-2.25,2.24-4.82a11,11,0,0,1-1.8,5.38C55.61,19.42,57,18.12,58.14,18Z" style="fill: #74922a"/>
      </g>
      <g>
        <path d="M47.73,19.57a10.29,10.29,0,0,1,2.56,2.82,6.12,6.12,0,0,0,2.59-.11,17.56,17.56,0,0,1,2-5.79A6.52,6.52,0,0,0,52.41,20a4.44,4.44,0,0,0-1.09-2.68,9.32,9.32,0,0,1,.25,2.63,6.32,6.32,0,0,0-2.43-3.15,16.8,16.8,0,0,1,2.13,5.36A5.41,5.41,0,0,0,47.73,19.57Z" style="fill: #bec675"/>
        <path d="M47.73,19.57a10.29,10.29,0,0,1,2.56,2.82,6.12,6.12,0,0,0,2.59-.11,17.56,17.56,0,0,1,2-5.79A6.52,6.52,0,0,0,52.41,20a4.44,4.44,0,0,0-1.09-2.68,9.32,9.32,0,0,1,.25,2.63,6.32,6.32,0,0,0-2.43-3.15,16.8,16.8,0,0,1,2.13,5.36A5.41,5.41,0,0,0,47.73,19.57Z" style="fill: #bec675"/>
        <path d="M47.73,20.53a9.31,9.31,0,0,1,2.56,1.88,9.37,9.37,0,0,0,2.59-.06,9.68,9.68,0,0,1,2-3.87c-1,.34-1.82,1.83-2.47,3a9.36,9.36,0,0,1,0-2.59,4.23,4.23,0,0,0-.85,2.56c-.68-1.05-1.17-1.56-2.25-3.33a6.18,6.18,0,0,0,1.83,3.64C50.3,21.51,48.93,20.61,47.73,20.53Z" style="fill: #74922a"/>
      </g>
      <g>
        <path d="M51.32,19.76a5,5,0,0,1,2.39,2.32,12.09,12.09,0,0,0-.19-3c.58.44.94,2.19,1,3a5.3,5.3,0,0,1,2.54-2.45,10.56,10.56,0,0,0-2.12,4.13l-1.6-.17A10.24,10.24,0,0,0,51.32,19.76Z" style="fill: #bec675"/>
        <path d="M53.71,23.08a3.1,3.1,0,0,1,.75-1.54,2.11,2.11,0,0,0,.1,1.56,5.85,5.85,0,0,1,2.54-1,5.35,5.35,0,0,0-2.16,1.66l-1.6-.07a5.17,5.17,0,0,0-2-1.62A5.56,5.56,0,0,1,53.71,23.08Z" style="fill: #74922a"/>
      </g>
      <g>
        <path d="M51.08,19.1a10.21,10.21,0,0,1,2.55,2.81,6.17,6.17,0,0,0,2.6-.1,17.61,17.61,0,0,1,2-5.8,6.52,6.52,0,0,0-2.47,3.47,4.5,4.5,0,0,0-1.09-2.67,9.32,9.32,0,0,1,.25,2.63,6.38,6.38,0,0,0-2.46-3.19,17,17,0,0,1,2.13,5.35A5.48,5.48,0,0,0,51.08,19.1Z" style="fill: #bec675"/>
        <path d="M51.08,19.1a10.21,10.21,0,0,1,2.55,2.81,6.17,6.17,0,0,0,2.6-.1,17.61,17.61,0,0,1,2-5.8,6.52,6.52,0,0,0-2.47,3.47,4.5,4.5,0,0,0-1.09-2.67,9.32,9.32,0,0,1,.25,2.63,6.38,6.38,0,0,0-2.46-3.19,17,17,0,0,1,2.13,5.35A5.48,5.48,0,0,0,51.08,19.1Z" style="fill: #bec675"/>
        <path d="M51.08,20.06a9.06,9.06,0,0,1,2.55,1.88,9.06,9.06,0,0,0,2.6-.07,9.49,9.49,0,0,1,2-3.87c-.95.34-1.83,1.83-2.47,3a9.43,9.43,0,0,1,0-2.6A4.3,4.3,0,0,0,54.91,21c-.68-1-1.17-1.55-2.25-3.32a6.16,6.16,0,0,0,1.8,3.71A12.48,12.48,0,0,0,51.08,20.06Z" style="fill: #74922a"/>
      </g>
      <g>
        <path d="M51.94,13.4A6.84,6.84,0,0,0,49.56,17a28,28,0,0,1,.19-4.58c-.58.68-.94,3.4-1,4.66a7.18,7.18,0,0,0-2.54-3.8,20.93,20.93,0,0,1,2.16,6.38l1.6-.26A20.12,20.12,0,0,1,51.94,13.4Z" style="fill: #bec675"/>
        <path d="M49.56,18.52a6.08,6.08,0,0,0-.75-2.38,5,5,0,0,1-.1,2.41A5,5,0,0,0,46.17,17a6.68,6.68,0,0,1,2.16,2.69l1.6-.11a6.56,6.56,0,0,1,2-2.52A4.83,4.83,0,0,0,49.56,18.52Z" style="fill: #74922a"/>
      </g>
      <g>
        <path d="M58.8,16.16a14.06,14.06,0,0,0-2.56,4.07,4.28,4.28,0,0,1-2.6-.15,33.22,33.22,0,0,0-2-8.39c.94.74,1.82,2.57,2.46,5a8.3,8.3,0,0,1,1.09-3.88,20.17,20.17,0,0,0-.24,3.8c.67-2.26,1.54-3.94,2.46-4.61a30.79,30.79,0,0,0-2.17,7.76C56.29,17.67,57.6,16.32,58.8,16.16Z" style="fill: #bec675"/>
        <path d="M58.8,16.16a14.06,14.06,0,0,0-2.56,4.07,4.28,4.28,0,0,1-2.6-.15,33.22,33.22,0,0,0-2-8.39c.94.74,1.82,2.57,2.46,5a8.3,8.3,0,0,1,1.09-3.88,20.17,20.17,0,0,0-.24,3.8c.67-2.26,1.54-3.94,2.46-4.61a30.79,30.79,0,0,0-2.17,7.76C56.29,17.67,57.6,16.32,58.8,16.16Z" style="fill: #bec675"/>
        <path d="M58.8,17.55a9.9,9.9,0,0,0-2.56,2.72,6.7,6.7,0,0,1-2.6-.09,16.61,16.61,0,0,0-2-5.61c.94.5,1.82,2.65,2.46,4.29a18.08,18.08,0,0,0,0-3.75A8,8,0,0,1,55,18.82c.67-1.52,1.16-2.25,2.24-4.82a11,11,0,0,1-1.8,5.38C56.22,19,57.6,17.66,58.8,17.55Z" style="fill: #74922a"/>
      </g>
      <g>
        <path d="M51.94,19.31a5,5,0,0,1,2.39,2.32,12.09,12.09,0,0,0-.19-3c.58.44.94,2.19,1,3a5.41,5.41,0,0,1,2.55-2.45,11,11,0,0,0-2.17,4.12l-1.59-.17A10.43,10.43,0,0,0,51.94,19.31Z" style="fill: #bec675"/>
        <path d="M54.33,22.62a2.94,2.94,0,0,1,.75-1.54,2.21,2.21,0,0,0,.09,1.56,5.76,5.76,0,0,1,2.55-1,5.48,5.48,0,0,0-2.17,1.73L54,23.3a5.28,5.28,0,0,0-2-1.63A5.52,5.52,0,0,1,54.33,22.62Z" style="fill: #74922a"/>
      </g>
      <g>
        <path d="M54.66,20.35a14.46,14.46,0,0,0-2.56,4.08,4.4,4.4,0,0,1-2.59-.15,33.22,33.22,0,0,0-2-8.39c1,.74,1.82,2.56,2.47,5A8.1,8.1,0,0,1,51.06,17a20.17,20.17,0,0,0-.24,3.8c.68-2.27,1.54-3.94,2.46-4.62A31.24,31.24,0,0,0,51.15,24C52.14,21.86,53.46,20.51,54.66,20.35Z" style="fill: #bec675"/>
        <path d="M54.66,20.35a14.46,14.46,0,0,0-2.56,4.08,4.4,4.4,0,0,1-2.59-.15,33.22,33.22,0,0,0-2-8.39c1,.74,1.82,2.56,2.47,5A8.1,8.1,0,0,1,51.06,17a20.17,20.17,0,0,0-.24,3.8c.68-2.27,1.54-3.94,2.46-4.62A31.24,31.24,0,0,0,51.15,24C52.14,21.86,53.46,20.51,54.66,20.35Z" style="fill: #bec675"/>
        <path d="M54.66,21.76a9.9,9.9,0,0,0-2.56,2.72,6.46,6.46,0,0,1-2.59-.1,16.48,16.48,0,0,0-2-5.6c1,.49,1.82,2.65,2.47,4.29a19.58,19.58,0,0,0,0-3.75,7.94,7.94,0,0,1,.85,3.7c.68-1.51,1.17-2.25,2.25-4.81a11,11,0,0,1-1.8,5.37C52.14,23.16,53.46,21.86,54.66,21.76Z" style="fill: #74922a"/>
      </g>
      <g>
        <path d="M44.21,23.3a10.29,10.29,0,0,1,2.56,2.82,6.51,6.51,0,0,0,2.6-.1,17.09,17.09,0,0,1,2-5.8,6.52,6.52,0,0,0-2.47,3.47A4.56,4.56,0,0,0,47.81,21a9,9,0,0,1,.24,2.63,6.36,6.36,0,0,0-2.45-3.19,17.63,17.63,0,0,1,2.13,5.36A5.49,5.49,0,0,0,44.21,23.3Z" style="fill: #bec675"/>
        <path d="M44.21,23.3a10.29,10.29,0,0,1,2.56,2.82,6.51,6.51,0,0,0,2.6-.1,17.09,17.09,0,0,1,2-5.8,6.52,6.52,0,0,0-2.47,3.47A4.56,4.56,0,0,0,47.81,21a9,9,0,0,1,.24,2.63,6.36,6.36,0,0,0-2.45-3.19,17.63,17.63,0,0,1,2.13,5.36A5.49,5.49,0,0,0,44.21,23.3Z" style="fill: #bec675"/>
        <path d="M44.21,24.27a9,9,0,0,1,2.56,1.88,9.84,9.84,0,0,0,2.6-.07,9.37,9.37,0,0,1,2-3.87c-1,.34-1.83,1.83-2.47,3a8.72,8.72,0,0,1,0-2.6,4.3,4.3,0,0,0-.85,2.56c-.67-1-1.16-1.55-2.24-3.32a6.16,6.16,0,0,0,1.8,3.71A12.43,12.43,0,0,0,44.21,24.27Z" style="fill: #74922a"/>
      </g>
      <g>
        <path d="M47.06,22.13a5,5,0,0,1,2.39,2.31,12.09,12.09,0,0,0-.2-3c.58.44.94,2.19,1,3A5.26,5.26,0,0,1,52.79,22a10.81,10.81,0,0,0-2.16,4.12L49,25.94A10.29,10.29,0,0,0,47.06,22.13Z" style="fill: #bec675"/>
        <path d="M49.45,25.44a2.9,2.9,0,0,1,.75-1.54,2.16,2.16,0,0,0,.09,1.56,5.85,5.85,0,0,1,2.54-1,5.56,5.56,0,0,0-2.16,1.74l-1.59-.07a5.28,5.28,0,0,0-2-1.63A5.68,5.68,0,0,1,49.45,25.44Z" style="fill: #74922a"/>
      </g>
      <g>
        <path d="M49.52,22.76A14.46,14.46,0,0,0,47,26.84a4.4,4.4,0,0,1-2.59-.15,33.22,33.22,0,0,0-2-8.39c1,.74,1.82,2.57,2.47,5a8.12,8.12,0,0,1,1.09-3.87,18.63,18.63,0,0,0-.24,3.8c.67-2.27,1.53-3.94,2.45-4.62A31.24,31.24,0,0,0,46,26.37C47,24.26,48.32,22.91,49.52,22.76Z" style="fill: #bec675"/>
        <path d="M49.52,22.76A14.46,14.46,0,0,0,47,26.84a4.4,4.4,0,0,1-2.59-.15,33.22,33.22,0,0,0-2-8.39c1,.74,1.82,2.57,2.47,5a8.12,8.12,0,0,1,1.09-3.87,18.63,18.63,0,0,0-.24,3.8c.67-2.27,1.53-3.94,2.45-4.62A31.24,31.24,0,0,0,46,26.37C47,24.26,48.32,22.91,49.52,22.76Z" style="fill: #bec675"/>
        <path d="M49.52,24.15A9.9,9.9,0,0,0,47,26.87a6.46,6.46,0,0,1-2.59-.1,16.48,16.48,0,0,0-2-5.6c1,.49,1.82,2.65,2.47,4.29a19.58,19.58,0,0,0,0-3.75,8.2,8.2,0,0,1,.86,3.7c.67-1.51,1.16-2.25,2.24-4.81A11,11,0,0,1,46.14,26C47,25.56,48.32,24.26,49.52,24.15Z" style="fill: #74922a"/>
      </g>
      <g>
        <path d="M39.07,25.7a10.29,10.29,0,0,1,2.56,2.82,6.51,6.51,0,0,0,2.6-.1,17.09,17.09,0,0,1,2-5.8,6.52,6.52,0,0,0-2.47,3.47,4.5,4.5,0,0,0-1.09-2.68A10.12,10.12,0,0,1,42.92,26a6.44,6.44,0,0,0-2.46-3.19,17,17,0,0,1,2.13,5.36A5.49,5.49,0,0,0,39.07,25.7Z" style="fill: #bec675"/>
        <path d="M39.07,25.7a10.29,10.29,0,0,1,2.56,2.82,6.51,6.51,0,0,0,2.6-.1,17.09,17.09,0,0,1,2-5.8,6.52,6.52,0,0,0-2.47,3.47,4.5,4.5,0,0,0-1.09-2.68A10.12,10.12,0,0,1,42.92,26a6.44,6.44,0,0,0-2.46-3.19,17,17,0,0,1,2.13,5.36A5.49,5.49,0,0,0,39.07,25.7Z" style="fill: #bec675"/>
        <path d="M39.07,26.67a9,9,0,0,1,2.56,1.88,9.84,9.84,0,0,0,2.6-.07,9.37,9.37,0,0,1,2-3.87c-.95.34-1.83,1.83-2.47,3a9.43,9.43,0,0,1,0-2.6,4.22,4.22,0,0,0-.84,2.56c-.68-1-1.17-1.55-2.25-3.32A6.16,6.16,0,0,0,42.47,28,12.63,12.63,0,0,0,39.07,26.67Z" style="fill: #74922a"/>
      </g>
      <g>
        <path d="M43.38,24.24a5,5,0,0,1,2.39,2.31,11.67,11.67,0,0,0-.2-2.95c.58.44.94,2.19,1,3a5.26,5.26,0,0,1,2.54-2.45A10.67,10.67,0,0,0,47,28.27l-1.6-.17A10.26,10.26,0,0,0,43.38,24.24Z" style="fill: #bec675"/>
        <path d="M45.77,27.55A2.9,2.9,0,0,1,46.52,26a2.16,2.16,0,0,0,.09,1.56,5.85,5.85,0,0,1,2.54-1A5.56,5.56,0,0,0,47,28.31l-1.6-.07a5.28,5.28,0,0,0-2-1.63A5.54,5.54,0,0,1,45.77,27.55Z" style="fill: #74922a"/>
      </g>
      <g>
        <path d="M35.84,27.14A10.39,10.39,0,0,1,38.4,30a6.17,6.17,0,0,0,2.6-.1,17.61,17.61,0,0,1,2-5.8,6.62,6.62,0,0,0-2.47,3.47,4.42,4.42,0,0,0-1.08-2.67,9.7,9.7,0,0,1,.24,2.63,6.33,6.33,0,0,0-2.46-3.19,17,17,0,0,1,2.14,5.35A5.46,5.46,0,0,0,35.84,27.14Z" style="fill: #bec675"/>
        <path d="M35.84,27.14A10.39,10.39,0,0,1,38.4,30a6.17,6.17,0,0,0,2.6-.1,17.61,17.61,0,0,1,2-5.8,6.62,6.62,0,0,0-2.47,3.47,4.42,4.42,0,0,0-1.08-2.67,9.7,9.7,0,0,1,.24,2.63,6.33,6.33,0,0,0-2.46-3.19,17,17,0,0,1,2.14,5.35A5.46,5.46,0,0,0,35.84,27.14Z" style="fill: #bec675"/>
        <path d="M35.84,28.1A9.11,9.11,0,0,1,38.4,30a9.43,9.43,0,0,0,2.6-.06A9.53,9.53,0,0,1,43,26c-1,.34-1.82,1.83-2.47,3a9.36,9.36,0,0,1,0-2.59A4.17,4.17,0,0,0,39.68,29C39,28,38.52,27.45,37.44,25.68a6.16,6.16,0,0,0,1.8,3.71A12.76,12.76,0,0,0,35.84,28.1Z" style="fill: #74922a"/>
      </g>
      <g>
        <path d="M39.44,27.34a5.14,5.14,0,0,1,2.39,2.31,12.67,12.67,0,0,0-.2-2.95c.58.44.94,2.19,1,3a5.26,5.26,0,0,1,2.54-2.45A10.81,10.81,0,0,0,43,31.37l-1.6-.17A10.26,10.26,0,0,0,39.44,27.34Z" style="fill: #bec675"/>
        <path d="M41.83,30.65a2.93,2.93,0,0,1,.74-1.54,2.11,2.11,0,0,0,.1,1.56,5.85,5.85,0,0,1,2.54-1,5.56,5.56,0,0,0-2.16,1.74l-1.6-.07a5.28,5.28,0,0,0-2-1.63A5.72,5.72,0,0,1,41.83,30.65Z" style="fill: #74922a"/>
      </g>
      <g>
        <path d="M36.71,21.44A6.89,6.89,0,0,0,34.32,25a29.2,29.2,0,0,1,.19-4.58c-.57.68-.93,3.39-1,4.65A7.26,7.26,0,0,0,31,21.3a20.6,20.6,0,0,1,2.17,6.38l1.59-.26A20.16,20.16,0,0,1,36.71,21.44Z" style="fill: #bec675"/>
        <path d="M34.32,26.56a5.73,5.73,0,0,0-.75-2.38,4.92,4.92,0,0,1-.09,2.41A5.06,5.06,0,0,0,30.93,25a6.7,6.7,0,0,1,2.17,2.69l1.59-.1a6.43,6.43,0,0,1,2-2.53A4.83,4.83,0,0,0,34.32,26.56Z" style="fill: #74922a"/>
      </g>
      <g>
        <path d="M36.71,27.35a5.21,5.21,0,0,1,2.39,2.32,12.09,12.09,0,0,0-.2-3c.58.44.94,2.19,1,3a5.35,5.35,0,0,1,2.54-2.45,10.81,10.81,0,0,0-2.16,4.12l-1.6-.16A10.13,10.13,0,0,0,36.71,27.35Z" style="fill: #bec675"/>
        <path d="M39.14,30.66a2.9,2.9,0,0,1,.75-1.54A2.11,2.11,0,0,0,40,30.68a5.85,5.85,0,0,1,2.54-1,5.45,5.45,0,0,0-2.16,1.73l-1.6-.07a5,5,0,0,0-2-1.62A5.67,5.67,0,0,1,39.14,30.66Z" style="fill: #74922a"/>
      </g>
      <g>
        <path d="M32.57,25.64a7,7,0,0,0-2.39,3.58,28,28,0,0,1,.2-4.58c-.58.68-.94,3.4-1,4.65a7.18,7.18,0,0,0-2.54-3.8A21,21,0,0,1,29,31.88l1.6-.26A20.12,20.12,0,0,1,32.57,25.64Z" style="fill: #bec675"/>
        <path d="M30.14,30.76a5.73,5.73,0,0,0-.75-2.38,4.92,4.92,0,0,1-.09,2.41,5,5,0,0,0-2.54-1.6,6.68,6.68,0,0,1,2.16,2.69l1.6-.11a6.47,6.47,0,0,1,2-2.52A4.74,4.74,0,0,0,30.14,30.76Z" style="fill: #74922a"/>
      </g>
      <g>
        <path d="M39.43,28.39a14.24,14.24,0,0,0-2.56,4.08,4.44,4.44,0,0,1-2.6-.15,32.8,32.8,0,0,0-2-8.39c.95.74,1.83,2.57,2.47,5a8.35,8.35,0,0,1,1.09-3.87,18.63,18.63,0,0,0-.24,3.8c.67-2.27,1.54-3.94,2.46-4.62A31.7,31.7,0,0,0,35.91,32C36.92,29.9,38.23,28.56,39.43,28.39Z" style="fill: #bec675"/>
        <path d="M39.43,28.39a14.24,14.24,0,0,0-2.56,4.08,4.44,4.44,0,0,1-2.6-.15,32.8,32.8,0,0,0-2-8.39c.95.74,1.83,2.57,2.47,5a8.35,8.35,0,0,1,1.09-3.87,18.63,18.63,0,0,0-.24,3.8c.67-2.27,1.54-3.94,2.46-4.62A31.7,31.7,0,0,0,35.91,32C36.92,29.9,38.23,28.56,39.43,28.39Z" style="fill: #bec675"/>
        <path d="M39.43,29.76a9.9,9.9,0,0,0-2.56,2.72,6.51,6.51,0,0,1-2.6-.1,16.27,16.27,0,0,0-2-5.6c.95.49,1.83,2.65,2.47,4.29a18.08,18.08,0,0,0,0-3.75,8.33,8.33,0,0,1,.85,3.7c.67-1.51,1.16-2.25,2.24-4.81A11,11,0,0,1,36,31.58C36.85,31.2,38.23,29.9,39.43,29.76Z" style="fill: #74922a"/>
      </g>
      <g>
        <path d="M29,31.35a10.06,10.06,0,0,1,2.55,2.81,6.51,6.51,0,0,0,2.6-.1,17.61,17.61,0,0,1,2-5.8,6.52,6.52,0,0,0-2.47,3.47,4.33,4.33,0,0,0-1.09-2.67,9.25,9.25,0,0,1,.25,2.62,6.38,6.38,0,0,0-2.46-3.19,17,17,0,0,1,2.13,5.36A5.48,5.48,0,0,0,29,31.35Z" style="fill: #bec675"/>
        <path d="M29,31.35a10.06,10.06,0,0,1,2.55,2.81,6.51,6.51,0,0,0,2.6-.1,17.61,17.61,0,0,1,2-5.8,6.52,6.52,0,0,0-2.47,3.47,4.33,4.33,0,0,0-1.09-2.67,9.25,9.25,0,0,1,.25,2.62,6.38,6.38,0,0,0-2.46-3.19,17,17,0,0,1,2.13,5.36A5.48,5.48,0,0,0,29,31.35Z" style="fill: #bec675"/>
        <path d="M29,32.31a8.92,8.92,0,0,1,2.55,1.88,9.06,9.06,0,0,0,2.6-.07,9.68,9.68,0,0,1,2-3.87c-1,.34-1.82,1.83-2.47,3a9.43,9.43,0,0,1,0-2.6,4.23,4.23,0,0,0-.85,2.56c-.68-1-1.17-1.55-2.25-3.32a6.16,6.16,0,0,0,1.8,3.71A12.53,12.53,0,0,0,29,32.31Z" style="fill: #74922a"/>
      </g>
      <g>
        <path d="M32.57,30.9A5,5,0,0,1,35,33.21a12.66,12.66,0,0,0-.19-2.95c.57.44.94,2.19,1,3a5.17,5.17,0,0,1,2.54-2.45,10.69,10.69,0,0,0-2.17,4.12l-1.59-.17A10.28,10.28,0,0,0,32.57,30.9Z" style="fill: #bec675"/>
        <path d="M35,34.21a2.9,2.9,0,0,1,.75-1.54,2.16,2.16,0,0,0,.1,1.56,5.85,5.85,0,0,1,2.54-1A5.42,5.42,0,0,0,36.18,35l-1.59-.07a5.28,5.28,0,0,0-2-1.63A5.68,5.68,0,0,1,35,34.21Z" style="fill: #74922a"/>
      </g>
      <g>
        <path d="M42,27.15a7,7,0,0,0-2.4,3.59,29.21,29.21,0,0,1,.2-4.58c-.57.68-.94,3.4-1,4.65A7.26,7.26,0,0,0,36.24,27,20.46,20.46,0,0,1,38.4,33.4l1.6-.26A19.84,19.84,0,0,1,42,27.15Z" style="fill: #bec675"/>
        <path d="M39.59,32.28a5.58,5.58,0,0,0-.75-2.38,5,5,0,0,1-.08,2.41,5.06,5.06,0,0,0-2.55-1.6,6.68,6.68,0,0,1,2.16,2.69l1.6-.11a6.4,6.4,0,0,1,2-2.52A4.74,4.74,0,0,0,39.59,32.28Z" style="fill: #74922a"/>
      </g>
      <g>
        <path d="M27.43,28a6.94,6.94,0,0,0-2.38,3.58A28,28,0,0,1,25.24,27c-.58.68-.94,3.4-1,4.65a7.18,7.18,0,0,0-2.54-3.8,21,21,0,0,1,2.16,6.39l1.6-.26A20.12,20.12,0,0,1,27.43,28Z" style="fill: #bec675"/>
        <path d="M25.05,33.16a5.89,5.89,0,0,0-.76-2.38,4.92,4.92,0,0,1-.09,2.41,5,5,0,0,0-2.54-1.6,6.68,6.68,0,0,1,2.16,2.69l1.6-.11a6.47,6.47,0,0,1,2-2.52A4.76,4.76,0,0,0,25.05,33.16Z" style="fill: #74922a"/>
      </g>
      <g>
        <path d="M34.29,30.76a14.24,14.24,0,0,0-2.56,4.08,4.48,4.48,0,0,1-2.59-.08,33.22,33.22,0,0,0-2-8.39c.94.74,1.82,2.57,2.46,5a8.35,8.35,0,0,1,1.09-3.87,18.63,18.63,0,0,0-.24,3.8C31.12,29,32,27.36,32.9,26.68a32.26,32.26,0,0,0-2.13,7.76C31.78,32.3,33.14,31,34.29,30.76Z" style="fill: #bec675"/>
        <path d="M34.29,30.76a14.24,14.24,0,0,0-2.56,4.08,4.48,4.48,0,0,1-2.59-.08,33.22,33.22,0,0,0-2-8.39c.94.74,1.82,2.57,2.46,5a8.35,8.35,0,0,1,1.09-3.87,18.63,18.63,0,0,0-.24,3.8C31.12,29,32,27.36,32.9,26.68a32.26,32.26,0,0,0-2.13,7.76C31.78,32.3,33.14,31,34.29,30.76Z" style="fill: #bec675"/>
        <path d="M34.29,32.19a9.9,9.9,0,0,0-2.56,2.72,6.51,6.51,0,0,1-2.6-.1,16.48,16.48,0,0,0-2-5.6c.94.49,1.82,2.65,2.46,4.29a18.08,18.08,0,0,0,0-3.75,8.19,8.19,0,0,1,.85,3.7c.67-1.51,1.16-2.25,2.24-4.81A11,11,0,0,1,30.88,34C31.72,33.6,33.14,32.3,34.29,32.19Z" style="fill: #74922a"/>
      </g>
      <g>
        <path d="M23.84,33.76a10.25,10.25,0,0,1,2.56,2.81,6.46,6.46,0,0,0,2.59-.1,17.61,17.61,0,0,1,2-5.8,6.52,6.52,0,0,0-2.47,3.47,4.55,4.55,0,0,0-1.08-2.68,9.7,9.7,0,0,1,.24,2.63,6.38,6.38,0,0,0-2.46-3.19,17,17,0,0,1,2.13,5.36A5.4,5.4,0,0,0,23.84,33.76Z" style="fill: #bec675"/>
        <path d="M23.84,33.76a10.25,10.25,0,0,1,2.56,2.81,6.46,6.46,0,0,0,2.59-.1,17.61,17.61,0,0,1,2-5.8,6.52,6.52,0,0,0-2.47,3.47,4.55,4.55,0,0,0-1.08-2.68,9.7,9.7,0,0,1,.24,2.63,6.38,6.38,0,0,0-2.46-3.19,17,17,0,0,1,2.13,5.36A5.4,5.4,0,0,0,23.84,33.76Z" style="fill: #bec675"/>
        <path d="M23.84,34.76a9.11,9.11,0,0,1,2.56,1.88A9,9,0,0,0,29,36.57a9.49,9.49,0,0,1,2-3.87c-.95.34-1.82,1.83-2.47,3a9.43,9.43,0,0,1,0-2.6,4.23,4.23,0,0,0-.85,2.56c-.68-1-1.17-1.55-2.25-3.32a6.3,6.3,0,0,0,1.8,3.71C26.41,35.68,25,34.76,23.84,34.76Z" style="fill: #74922a"/>
      </g>
      <g>
        <path d="M27.43,34a5,5,0,0,1,2.39,2.31,11.66,11.66,0,0,0-.19-2.95c.58.44.94,2.19,1,3a5.28,5.28,0,0,1,2.55-2.45A10.62,10.62,0,0,0,31,38l-1.59-.17A10.16,10.16,0,0,0,27.43,34Z" style="fill: #bec675"/>
        <path d="M29.82,37.26a2.94,2.94,0,0,1,.75-1.54,2.21,2.21,0,0,0,.09,1.56,5.89,5.89,0,0,1,2.55-1A5.59,5.59,0,0,0,31,38L29.45,38a5.28,5.28,0,0,0-2-1.63A5.68,5.68,0,0,1,29.82,37.26Z" style="fill: #74922a"/>
      </g>
      <g>
        <path d="M34.55,30.76a7,7,0,0,0-2.41,3.6,29.2,29.2,0,0,1,.19-4.58c-.57.68-.93,3.4-1,4.65a7.26,7.26,0,0,0-2.55-3.8A20.46,20.46,0,0,1,30.94,37l1.6-.26A20.22,20.22,0,0,1,34.55,30.76Z" style="fill: #bec675"/>
        <path d="M32.14,35.9a5.77,5.77,0,0,0-.75-2.39,5,5,0,0,1-.09,2.42,5.06,5.06,0,0,0-2.55-1.6A6.6,6.6,0,0,1,30.91,37l1.6-.11a6.47,6.47,0,0,1,2-2.52A4.71,4.71,0,0,0,32.14,35.9Z" style="fill: #74922a"/>
      </g>
    </g>
  </g>
</svg>
