<svg id="Layer_1" data-name="Layer 1" xmlns="http://www.w3.org/2000/svg" viewBox="0 0 59.96 44.06">
  <g>
    <g>
      <polygon points="30.17 38.86 30.17 44.09 59.75 26.91 59.75 21.68 30.17 38.86" style="fill: #478479"/>
      <polygon points="30.17 38.86 30.17 44.09 0.41 26.91 0.41 21.68 30.17 38.86" style="fill: #71afa3"/>
      <polygon points="59.75 21.68 30.17 38.86 0.41 21.68 29.98 4.49 59.75 21.68" style="fill: #529386"/>
      <g>
        <path d="M51.17,22.18a2.33,2.33,0,0,0-.46-1.51c-.59-1.8-1.65-4.6-2.71-5.28s-4.94,3-6.23,2.58c-2.6-.9-5.29-8.51-7.89-9.41-2-.68-8.28,0-8.28,0s-.24,3.26,1.58,4.2c2.53,1.3,6.76,8.67,9.5,9.46,1.28.37,8.93-3.9,9.75-2.64,1.25,1.91-2.23,5.07-2.23,5.07v.18c5.07-.21,6.81-1.34,7-2.62h0Z" style="fill: #c5e0d9;opacity: 0.5"/>
        <path d="M25.6,8.56s6.32-.68,8.28,0c2.6.9,5.29,8.51,7.89,9.41,1.29.45,5.08-3.31,6.23-2.58,1.59,1,3.19,6.83,3.19,6.83s-2.5-4.82-4.09-5.41c-1.28-.47-4,1.54-5.33,1.16-2.73-.79-5.57-6.69-8.1-8C31.85,9,25.6,8.56,25.6,8.56Z" style="fill: #c5e0d9"/>
        <path d="M23.81,14.92s5,.52,5.65-.87c.3-.65-1.16-2.56-1.16-2.56s2.06,2.62,3.08,2.91,3.73-.76,3.73-.76-3.53,2.13-4.85,2.09a9.74,9.74,0,0,1-1.62,0C27.47,15.45,23.81,14.92,23.81,14.92Z" style="fill: #c5e0d9"/>
        <path d="M36.62,19.93c-1.15-.07-2.85,1.06-4,1.08a19.32,19.32,0,0,1-3.72-.82,14.33,14.33,0,0,0,3.87,1.27c1.2,0,2.68-1.34,3.87-1.29,1,0,2.72.84,2.74,1.29,0,.68-4,2-4,2s4.5-1.26,4.54-2C40,21,37.82,20,36.62,19.93Z" style="fill: #c5e0d9"/>
        <path d="M46.37,21.51c-.87.09-2.07,1.47-2.93,1.55a2.29,2.29,0,0,1-.73-.13l-1.09-.41s3.47,2.72,5,2.66c1.32-.06,4.4-2.42,4.4-2.42S47.57,21.38,46.37,21.51Zm.08,3c-.85,0-2.72-.24-2.6-.93s1.69-1.63,2.49-1.7,3.5.28,3.57,1S47.44,24.45,46.45,24.48Z" style="fill: #c5e0d9"/>
        <path d="M32.05,17.92s2.7-1.05,3.41-.87S37.59,16,37.59,16s-1.2,1.85-2,1.75A27.09,27.09,0,0,0,32.05,17.92Z" style="fill: #c5e0d9"/>
      </g>
      <g>
        <path d="M7.78,22.37a1.9,1.9,0,0,1,.38-1.23c.48-1.47,1.34-3.75,2.21-4.3s4,2.47,5.07,2.1c2.12-.74,4.31-6.93,6.43-7.67,1.59-.55,6.75,0,6.75,0s.19,2.66-1.29,3.43c-2.06,1.06-5.51,7.06-7.74,7.71-1.05.3-7.27-3.19-7.94-2.16-1,1.56,1.81,4.14,1.81,4.14v.14c-4.13-.17-5.55-1.09-5.68-2.13h0A.1.1,0,0,0,7.78,22.37Z" style="fill: #c5e0d9;opacity: 0.5"/>
        <path d="M28.62,11.27s-5.16-.55-6.75,0c-2.12.74-4.31,6.93-6.43,7.67-1,.37-4.13-2.7-5.07-2.1-1.3.82-2.6,5.57-2.6,5.57s2-3.93,3.33-4.41c1-.39,3.27,1.25,4.34.94,2.23-.64,4.54-5.45,6.6-6.51C23.53,11.67,28.62,11.27,28.62,11.27Z" style="fill: #c5e0d9"/>
        <path d="M30.08,16.46s-4.09.42-4.61-.71c-.24-.54,1-2.09,1-2.09S24.74,15.8,23.91,16s-3-.61-3-.61,2.88,1.73,4,1.69a7.17,7.17,0,0,0,1.31,0C27.1,16.89,30.08,16.46,30.08,16.46Z" style="fill: #c5e0d9"/>
        <path d="M19.64,20.54c.94-.06,2.32.86,3.27.88a15.54,15.54,0,0,0,3-.67,11.3,11.3,0,0,1-3.16,1c-1,0-2.18-1.09-3.15-1.05-.81,0-2.22.69-2.24,1.05,0,.56,3.23,1.66,3.23,1.66s-3.66-1-3.69-1.61S18.66,20.6,19.64,20.54Z" style="fill: #c5e0d9"/>
        <path d="M7.92,22.84s2.51,1.92,3.59,2c1.23.06,4.05-2.16,4.05-2.16l-.88.33a2,2,0,0,1-.59.11c-.71-.07-1.69-1.19-2.39-1.26C10.71,21.72,7.92,22.84,7.92,22.84Zm.89.12c.06-.63,2.14-.93,2.91-.86s1.94.86,2,1.39-1.43.78-2.12.76S8.74,23.62,8.81,23Z" style="fill: #c5e0d9"/>
        <path d="M23.36,18.9a9.7,9.7,0,0,0-2.78-.71c-.58.15-1.74-.87-1.74-.87s1,1.51,1.63,1.42A23.73,23.73,0,0,1,23.36,18.9Z" style="fill: #c5e0d9"/>
      </g>
      <g style="opacity: 0.5">
        <path d="M36.26,28.54c-1.17.57-4.43.45-5.71,0-1.11-.38-1.92-2.37-3-2.76a7.87,7.87,0,0,0-3.58,0c-.83.29-1.45,1.77-2.27,2a11.4,11.4,0,0,1-4.69,0c-1.81-.48-6.57-2.31-5.85-3.57.48-.84,6-.63,4.87-1.11-3-1.3-5.49-2.3-5.56-3.64-.07-1.14,4.13-1.93,5.71-2.21a15.51,15.51,0,0,1,4.14,0c.47.08,1.23.67,1.71.63,1.78-.16,3.64-2.94,5.32-3.39a24.16,24.16,0,0,1,9.32,0c1.86.53,4.1,3.15,5.75,4,2,1,8.48,1.25,8.78,2.95S46.42,25,44.31,25.54c-1.5.39-5.09-.64-6.41,0C37,26,37.2,28.09,36.26,28.54ZM31,27.89a8.87,8.87,0,0,0,4.63,0c.8-.39,2.3-2.31,1.39-2.56-6.69-1.88-6.11-4.81-6.48-3.41-.67,2.54-2.41,2.54-2.25,3.49C28.41,26.19,30,27.54,31,27.89Zm-13.67-.71a9.57,9.57,0,0,0,3.88,0c.65-.23,1.94-1.11,1.79-1.61-.35-1.1-4.09-1.94-5.68-2-1.13-.06-4.1.2-4.33,1C12.7,25.51,16,26.82,17.33,27.18Zm6.49-2.05a9.05,9.05,0,0,0,3.63,0c1.11-.51,2.9-2.61,2.19-3.39-1-1.14-5.84-.38-7.69,0-.95.2-4.34,1.37-3.36,1.52C21.52,23.71,22.4,24.89,23.82,25.13Zm13.92-.25a17.86,17.86,0,0,0,6.23,0c1.69-.43,5.73-2,5.5-3.26C49.21,20.17,44,19.43,42,19.11a21.7,21.7,0,0,0-5.86,0c-1.41.3-5.56,1.35-4.89,2.27C32.83,23.54,36,24.47,37.74,24.88ZM12,19.65c-.22,1.25,3.47,3.32,5.25,3.43,1.31.09,3.16-1.73,4.42-2a29.64,29.64,0,0,1,6.8,0c2.37.19-6.11-2.74-8.42-3.14a14.09,14.09,0,0,0-3.67,0C15.18,18.17,12.16,18.78,12,19.65Zm23.87-1.2c1.22-.26,2.56.18,5.11,0,1.64-.11-3.2-2.82-4.73-3.26a22.37,22.37,0,0,0-8.59,0c-1.47.4-5.16,2.48-3.89,3.15C31.6,22.4,34.3,18.79,35.88,18.45Z" style="fill: #c5e0d9"/>
      </g>
      <g style="opacity: 0.5">
        <path d="M35.13,33.24l.74-.28c0-.57,1.1-.65,1.53-2.3,0,0,0,0,0,0a2.56,2.56,0,0,0-.22-.35,5.15,5.15,0,0,1-.93-.2s-.11,0-.27,0a20.41,20.41,0,0,0-4.63,0c-.86.18-2.13,1.42-3,1.36l-.19,0a1.48,1.48,0,0,1-.57.16c-.09.21-3.12.15-3.41.66-.49.86,2.75,2.11,4,2.44a8,8,0,0,0,3.2,0c.56-.2,1-1.2,1.54-1.4A5.7,5.7,0,0,1,35.13,33.24Zm-4.08,1a6.4,6.4,0,0,1-2.65,0c-.92-.24-3.15-1.13-3-1.81s2.18-.71,3-.66c1.08.06,3.63.63,3.86,1.37C32.37,33.49,31.49,34.09,31.05,34.24Zm1.78-1.4c-1-.16-1.57-1-3.57-1.27-.67-.1,1.64-.9,2.29-1,1.26-.26,4.53-.78,5.24,0,.48.53-.74,2-1.49,2.3A5.87,5.87,0,0,1,32.83,32.84Z" style="fill: #c5e0d9"/>
      </g>
    </g>
    <polygon points="30.17 38.86 30.17 44.09 59.75 26.9 55.23 24.3 30.17 38.86" style="fill: #529386;opacity: 0.5"/>
    <polygon points="0.41 21.68 0.41 26.91 4.92 24.29 0.41 21.68" style="fill: #8ecec2"/>
  </g>
</svg>
