<svg id="Layer_1" data-name="Layer 1" xmlns="http://www.w3.org/2000/svg" viewBox="0 0 59.34 67.45">
  <g>
    <g style="isolation: isolate">
      <path d="M31.7,4.49l-.18,61.44A1.28,1.28,0,0,1,30.75,67,4.12,4.12,0,0,1,27,67a1.33,1.33,0,0,1-.77-1.09l.17-61.45a1.32,1.32,0,0,0,.78,1.09,4.09,4.09,0,0,0,3.73,0A1.35,1.35,0,0,0,31.7,4.49Z" style="fill: #75554a"/>
      <path d="M30.92,3.4a1.14,1.14,0,0,1,0,2.16,4.09,4.09,0,0,1-3.73,0,1.14,1.14,0,0,1,0-2.16A4.09,4.09,0,0,1,30.92,3.4Z" style="fill: #9e7363"/>
    </g>
    <g style="isolation: isolate">
      <polygon points="49.01 15.1 47.81 14.4 42.97 12.77 44.16 13.46 49.01 15.1" style="fill: #dd7003"/>
      <polygon points="19.97 27.43 18.77 26.73 18.8 35.59 20 36.29 19.97 27.43" style="fill: #f98f07"/>
      <polygon points="44.16 13.46 42.97 12.77 18.77 26.73 19.97 27.43 44.16 13.46" style="fill: #f98f07"/>
      <polygon points="19.97 27.43 20 36.29 44.19 22.32 49.01 15.1 44.16 13.46 19.97 27.43" style="fill: #dd7003"/>
    </g>
    <g style="isolation: isolate">
      <polygon points="13.96 4.26 15.16 3.56 39.35 17.53 38.15 18.23 13.96 4.26" style="fill: #dd7003"/>
      <polygon points="38.15 18.23 39.35 17.53 44.18 24.75 42.98 25.45 38.15 18.23" style="fill: #dd7003"/>
      <polygon points="38.15 18.23 42.98 25.45 38.13 27.09 13.94 13.12 13.96 4.26 38.15 18.23" style="fill: #f98f07"/>
    </g>
  </g>
  <g>
    <path d="M17.56,12.47V8.93l.4.23V10c.08-.61.29-.81.64-.61h0a1.54,1.54,0,0,1,.61,1.15c.1-.48.3-.62.61-.44h0a1.19,1.19,0,0,1,.5.71,4.06,4.06,0,0,1,.18,1.31v2l-.5-.29V11.8a1.56,1.56,0,0,0-.09-.59.69.69,0,0,0-.26-.35.19.19,0,0,0-.28.05.84.84,0,0,0-.11.49v2.08l-.5-.29V11.08a1.72,1.72,0,0,0-.09-.58.64.64,0,0,0-.27-.36.19.19,0,0,0-.28,0,.87.87,0,0,0-.1.49v2.08Z" style="fill: #fff"/>
    <path d="M21.45,14.64l-.62-3.83.5.29.47,3,.08.05.4-2.52.48.28-.59,3.51a1.08,1.08,0,0,1-.28.68c-.13.09-.32.06-.56-.08L21,15.86v-.78l.37.22a.24.24,0,0,0,.24,0,.53.53,0,0,0,.13-.32l0-.18Z" style="fill: #fff"/>
    <path d="M23.92,16.14V13.33l-.25-.15v-.66l.24.14v-.14a1.17,1.17,0,0,1,.19-.79c.12-.13.31-.12.55,0l.25.15v.69l-.28-.16c-.07,0-.13,0-.17,0a.45.45,0,0,0-.06.27v.22l.54.31v.67l-.54-.31v2.81Z" style="fill: #fff"/>
    <path d="M26.18,17.57a1.62,1.62,0,0,1-.59-.6,3.68,3.68,0,0,1-.36-.88,4.07,4.07,0,0,1-.12-1V15a2.54,2.54,0,0,1,.13-.83.8.8,0,0,1,.37-.46.6.6,0,0,1,.58.08,1.67,1.67,0,0,1,.57.58,3.2,3.2,0,0,1,.36.89,3.67,3.67,0,0,1,.13,1v.13a2.24,2.24,0,0,1-.13.82.78.78,0,0,1-.36.47A.6.6,0,0,1,26.18,17.57Zm0-.78a.27.27,0,0,0,.42-.07,1.36,1.36,0,0,0,.15-.72,2.6,2.6,0,0,0-.15-.89,1,1,0,0,0-.41-.55.27.27,0,0,0-.42.07,1.37,1.37,0,0,0-.16.72,2.5,2.5,0,0,0,.15.88A.93.93,0,0,0,26.18,16.79Z" style="fill: #fff"/>
    <path d="M27.68,18.31V14.77l.4.23v1.16c.05-.77.29-1,.7-.8l.07,0v.79l-.14-.08c-.17-.1-.3-.09-.39,0a1.06,1.06,0,0,0-.14.63V18.6Z" style="fill: #fff"/>
    <path d="M30.05,19.8a1.22,1.22,0,0,1-.44-.41,2.86,2.86,0,0,1-.32-.6,4,4,0,0,1-.18-.7,4.23,4.23,0,0,1-.06-.7v-.12a3.27,3.27,0,0,1,.06-.65,1.59,1.59,0,0,1,.19-.47.51.51,0,0,1,.31-.24A.6.6,0,0,1,30,16a1.51,1.51,0,0,1,.53.56,3.49,3.49,0,0,1,.32.84,4.36,4.36,0,0,1,.1.94v.33l-1.47-.85a2.77,2.77,0,0,0,.15.76.87.87,0,0,0,.38.47.31.31,0,0,0,.3,0,.3.3,0,0,0,.15-.24l.46.26a1.1,1.1,0,0,1-.31.71A.5.5,0,0,1,30.05,19.8Zm0-3.05a.26.26,0,0,0-.34,0,1,1,0,0,0-.16.5l1,.57a2,2,0,0,0-.14-.68A.78.78,0,0,0,30,16.75Z" style="fill: #fff"/>
    <path d="M32.11,21a1.7,1.7,0,0,1-.63-.67,2.2,2.2,0,0,1-.23-1l.45.26a.86.86,0,0,0,.11.4.71.71,0,0,0,.31.33c.12.07.22.09.29.05s.11-.12.11-.26a.72.72,0,0,0-.08-.32,1.1,1.1,0,0,0-.28-.3L32,19.34a1.73,1.73,0,0,1-.51-.63,2.07,2.07,0,0,1-.17-.84,1.35,1.35,0,0,1,.1-.55.36.36,0,0,1,.29-.21.61.61,0,0,1,.4.11,1.48,1.48,0,0,1,.59.62,2.18,2.18,0,0,1,.23,1l-.45-.26a1.07,1.07,0,0,0-.1-.38.66.66,0,0,0-.27-.28c-.11-.06-.19-.07-.25,0a.29.29,0,0,0-.08.23.67.67,0,0,0,.06.3.92.92,0,0,0,.23.26l.18.13a2,2,0,0,1,.54.66,2,2,0,0,1,.19.87,1.05,1.05,0,0,1-.11.55.41.41,0,0,1-.29.23A.74.74,0,0,1,32.11,21Z" style="fill: #fff"/>
    <path d="M34.23,22.14a1.36,1.36,0,0,1-.44-.38,1.47,1.47,0,0,1-.26-.58,3.14,3.14,0,0,1-.08-.87V18.76l-.31-.18v-.66l.31.18v-1l.47.27v1l.61.35v.66l-.6-.35v1.61a1.15,1.15,0,0,0,.08.44.47.47,0,0,0,.22.27l.31.18v.77Z" style="fill: #fff"/>
  </g>
</svg>
