<svg xmlns="http://www.w3.org/2000/svg" viewBox="0 0 256 256">
  <g style="isolation: isolate">
    <g id="Layer_1" data-name="Layer 1">
      <rect x="-0.27" width="256" height="256" rx="64.53" style="fill: #f4f4f4"/>
      <g>
        <g>
          <g>
            <g>
              <path d="M216.28,156.47c-4.86-2.32-10.79-2.92-16.08-3.34a60.53,60.53,0,0,1-9.09-1.42c-1.75-.41-5.18-1.88-3.26-4.2.27-.32.29-.4.29-.64l.11-.16a1.61,1.61,0,0,0,.09-1.27c-1.1-2.35-2.84-3.3-5.25-4.07-6.47-2-13.43-1.68-20.13-1.57-7.81.13-15.54.94-23.33,1.34a26.56,26.56,0,0,1-5-.24c-2.58-.34-3.34-1.77-4.32-3.88-1-2.27-4-3.4-6.23-4.1-6.25-2-13.56-1.53-20-1.19-6.18.32-13.08,0-19,2-2.76.94-4.6,3.76-7.23,4.67-.5.13-1,.23-1.53.33-2,.29-4.09.43-6.14.68a62.46,62.46,0,0,0-7.45.85,28.18,28.18,0,0,0-9,3.18,11.12,11.12,0,0,0-4,4.79c-1.08,2.13-1.77,4.09-3.89,5.4-3.57,2.19-12.91,5-11.1,10.9,1.47,4.8,8,4.66,12,5.41a20.09,20.09,0,0,1,5.38,1.71c2.67,1.37,2.43,5.47,3.08,8.12.77,3.18,3.16,5.25,6.27,6.66,3.26,1.48,7.13,1.69,10.67,1.81a33,33,0,0,0,11-1.58c3.15-1,5.94-2.86,9.15-3.65,4.28-1.06,8.7-.44,13,.25s8.37,1.31,12.57,1.79c5.4.62,10.82,1.09,16.1-.5,3.71-1.12,7.12-3,11-3.73s7.36.82,11,1.62c5.91,1.32,11.19-.89,16.22-3.83,2.49-1.46,4.83-3.31,7.5-4.44,3.31-1.4,6.89-1.13,10.36-1.71,3.13-.53,6-1.91,9.12-2.58,5.78-1.25,18.77.61,21.72-6.26C221.88,161,218.48,157.52,216.28,156.47Z" style="fill: #c2cacb"/>
              <path d="M214.53,156.31c-4.79-2.19-10.62-2.76-15.83-3.15a62.77,62.77,0,0,1-8.95-1.35c-1.72-.39-5.09-1.77-3.21-4,.27-.3.29-.38.29-.6l.11-.16a1.44,1.44,0,0,0,.09-1.2c-1.09-2.22-2.79-3.11-5.17-3.84-6.37-1.92-13.22-1.58-19.81-1.48-7.68.12-15.29.88-23,1.26a28.49,28.49,0,0,1-4.88-.22c-2.54-.33-3.28-1.67-4.25-3.68s-4-3.2-6.13-3.86c-6.15-1.9-13.35-1.45-19.7-1.13-6.08.3-12.87,0-18.7,1.9-2.72.89-4.53,3.56-7.12,4.41-.49.12-1,.22-1.5.31-2,.28-4,.41-6,.65a60.39,60.39,0,0,0-7.33.8,28.3,28.3,0,0,0-8.9,3,10.58,10.58,0,0,0-3.94,4.52c-1.05,2-1.73,3.87-3.82,5.1-3.52,2.07-12.71,4.73-10.93,10.3,1.45,4.54,7.83,4.4,11.77,5.12a20.13,20.13,0,0,1,5.29,1.61c2.64,1.3,2.4,5.17,3,7.67.76,3,3.11,5,6.16,6.3,3.22,1.4,7,1.6,10.5,1.71a33.72,33.72,0,0,0,10.85-1.49c3.1-.94,5.85-2.7,9-3.46,4.21-1,8.55-.41,12.76.24s8.24,1.24,12.38,1.69c5.3.59,10.64,1,15.83-.47,3.66-1.06,7-2.8,10.78-3.53s7.25.78,10.8,1.54c5.82,1.24,11-.85,16-3.62,2.46-1.38,4.76-3.13,7.39-4.2,3.26-1.32,6.78-1.06,10.2-1.61,3.07-.5,5.92-1.81,9-2.44,5.68-1.18,19.68.57,22.58-5.91C221.24,160.57,216.69,157.3,214.53,156.31Z" style="fill: #c2cacb;opacity: 0.2;mix-blend-mode: screen"/>
              <path d="M42,172.15c-2,0-3.72.57-3,2.06.84,1.82,5.4,2.58,6.83,1.31C48.06,173.54,44.8,172.21,42,172.15Z" style="fill: #c2cacb"/>
              <path d="M41.78,172.33c-1.68,0-3.15.48-2.56,1.74.71,1.54,4.57,2.19,5.79,1.11C46.89,173.51,44.13,172.38,41.78,172.33Z" style="fill: #c2cacb;opacity: 0.5;mix-blend-mode: screen"/>
              <path d="M195.34,182.82s4-1,4.18-4.09-6.09-4.08-12.62-2.34-12.43,4.78-8.26,7.56S191.08,184.82,195.34,182.82Z" style="fill: #c2cacb"/>
              <path d="M194.85,182.31s3.71-1,3.88-3.8-5.66-3.8-11.72-2.18-11.56,4.44-7.68,7S190.89,184.16,194.85,182.31Z" style="fill: #c2cacb;opacity: 0.5;mix-blend-mode: screen"/>
              <path d="M208.65,175.43s5.39-1.74,2.17-3.13-8.78-.26-8,1.56S206.21,176,208.65,175.43Z" style="fill: #c2cacb"/>
              <path d="M208.44,174.86s4.57-1.48,1.84-2.66-7.44-.22-6.78,1.33S206.38,175.3,208.44,174.86Z" style="fill: #c2cacb;opacity: 0.5;mix-blend-mode: screen"/>
            </g>
            <path d="M55.54,144.49a11.57,11.57,0,0,0-4.79,5c-1.53,3-2.82,4.79-5.93,6.35s-9.29,3.33-8.31,8c0,.08.12,0,.11-.05a4.05,4.05,0,0,1,1.74-3.55,18.71,18.71,0,0,1,3.53-1.52,24.37,24.37,0,0,0,4.86-2.39,10.48,10.48,0,0,0,2.74-2.62A14.23,14.23,0,0,0,51.17,151c1.29-2.52,2-4.7,4.39-6.49C55.59,144.51,55.57,144.47,55.54,144.49Z" style="fill: #fff"/>
            <path d="M59.77,182a11.2,11.2,0,0,1-3.15-6.79,6,6,0,0,0-2-4.12v0c1.52,1.75,1.34,4.28,1.85,6.42a8.39,8.39,0,0,0,3.26,4.58C59.73,182.12,59.83,182,59.77,182Z" style="fill: #fff"/>
            <path d="M145.91,178.76c-3.5,0-6.7,1.24-9.91,2.54A25.22,25.22,0,0,1,123.07,183s-.06.05,0,.06a20.53,20.53,0,0,0,10.06-.29c4.33-1.1,8.23-3.62,12.77-3.92C145.93,178.88,146,178.76,145.91,178.76Z" style="fill: #fff"/>
            <path d="M218.9,160s0,0,0,0c1.14,3.16-1.29,5.42-3.91,6.59-.05,0-.08.15,0,.12C217.88,165.81,220.76,163.25,218.9,160Z" style="fill: #fff"/>
            <path d="M206.66,174.35a7.13,7.13,0,0,1-1.86-.67,1.07,1.07,0,0,1-.58-.88c0-.15.22-.35.28-.5s0-.05-.06,0-.27.13-.42.24a.75.75,0,0,0-.19.35.92.92,0,0,0,.18.89,3.07,3.07,0,0,0,2.6.79C206.7,174.53,206.77,174.38,206.66,174.35Z" style="fill: #fff"/>
            <path d="M181.16,179.64a24.45,24.45,0,0,1,3.75-2.24s0,0,0,0c-2.05.83-4.37,1.21-5.43,3.42-1.13,2.36,2.77,3.05,4.22,3.07.09,0,.17-.14.06-.16C181.78,183.34,178.7,181.81,181.16,179.64Z" style="fill: #fff"/>
            <path d="M208.12,174.35H208a.48.48,0,0,1-.12,0c-.07,0-.15.08-.14.15a.09.09,0,0,0,0,.11.26.26,0,0,0,.22.07C208.17,174.68,208.32,174.34,208.12,174.35Z" style="fill: #fff"/>
            <path d="M185.26,183.68h0a.39.39,0,0,1-.24,0c-.06,0-.13.07-.09.12l0,0c-.07.09,0,.21.12.14s.11,0,.15-.05S185.37,183.69,185.26,183.68Z" style="fill: #fff"/>
            <path d="M61.23,183a1.12,1.12,0,0,1-.42-.25.09.09,0,0,0-.11,0l0,0s-.07,0,0,0,0,0,0,0a.15.15,0,0,0-.05.17c.09.18.33.22.5.29S61.37,183.06,61.23,183Z" style="fill: #fff"/>
            <path d="M41.54,172.54s0,0,0,0c-.63,0-1.62,0-2,.61s.35,1.53,1,1.78c0,0,.11-.06.07-.09-.43-.38-1.46-1.05-.73-1.68A4.57,4.57,0,0,1,41.54,172.54Z" style="fill: #fff"/>
            <path d="M41.09,175a.25.25,0,0,0-.16-.06c-.09,0-.18.13-.09.18a.22.22,0,0,0,.12.05h0C41,175.14,41.16,175,41.09,175Z" style="fill: #fff"/>
          </g>
          <path d="M189.48,150.1a25,25,0,0,0-6.44-2,55.21,55.21,0,0,1-10.94-3.53c-4.61-2-9.23-2.24-14.2-2.42-5.37-.19-10.73-.26-16.09-.48-10.75-.46-21.46-1.31-32.21-1.61q-8.09-.21-16.17-.32c-5.36-.08-10.72-.33-16.08-.27a74.74,74.74,0,0,0-15.62,1.92,36.77,36.77,0,0,0-9.54,3.29c5.38,6.35,20.51,23.21,34.79,30,0,0,28.1,8.3,59.7,6.55a66.12,66.12,0,0,0,15.58-6.11c6.38-3.47,20.29-14.81,28-23.37C189.78,151.54,189.92,150.32,189.48,150.1Z" style="fill: #898e85;opacity: 0.5;mix-blend-mode: multiply"/>
          <path d="M121.89,77.87a2,2,0,0,0,0,.27c0,.4,1.08.55,2.39-.07a56.7,56.7,0,0,1,13.07,4.43l-11.1,1v0l-.11-.15c-.06-.08-.11-.16-.18-.24l-.1-.13-.24-.27-.07-.08a12.3,12.3,0,0,0-3.29-2.35h0c-.29-.15-.59-.29-.9-.43a14.93,14.93,0,0,0-1.91-.66Z" style="fill: #c2cacb;mix-blend-mode: multiply"/>
          <g>
            <path d="M114.21,79l11.65,3.21,13.25-1.17s16.74,9.54,16.89,9.76-.51,5.68-.51,5.9-28.25,6.91-28.61,7.13-23.23-6.11-23.23-6.11L93.46,91.32l-.07-1.75Z"/>
            <g>
              <g>
                <g>
                  <polygon points="112.85 94.65 107.56 103.93 109.39 106.65 121.37 107.78 134.32 104.66 129.71 86.68 112.85 94.65" style="fill: #007e33"/>
                  <polygon points="140.51 89.35 129.71 86.68 134.32 104.66 142.72 102.63 140.51 89.35" style="fill: #04672b"/>
                </g>
                <polygon points="129.7 86.81 134.1 104.36 132.21 87.28 129.7 86.81" style="fill: #036028"/>
              </g>
              <g>
                <path d="M143.7,85.27c-.73-1.74-4.35-1.88-8.07-.31s-6.14,4.26-5.41,6l4.16,13.75,15.29-5.82Z" style="fill: #7abde9"/>
                <path d="M130.83,93c3.46-4,8.44-5.57,13.74-5.72l-.87-2c-.73-1.74-4.35-1.88-8.07-.31s-6.14,4.26-5.41,6Z" style="fill: #0070c6"/>
                <path d="M146.79,92.33l-.63-1.45a16.06,16.06,0,0,0-13.92,6.76l.53,1.74A18.22,18.22,0,0,1,146.79,92.33Z" style="fill: #0070c6"/>
                <path d="M142.94,101.45l6.73-2.56-6-13.62c-.67-1.6-3.76-1.84-7.14-.66C138,88.19,141.7,97.64,142.94,101.45Z" style="fill: #b2b2b2;mix-blend-mode: multiply"/>
              </g>
              <g>
                <path d="M126.89,84.51c.74-1.74-1.67-4.44-5.39-6s-7.33-1.46-8.07.28l-7,12.55,14.81,6.94Z" style="fill: #ffe52c"/>
                <path d="M112.41,80.6c5.3-.31,9.87,2.2,13.66,5.9l.82-2c.74-1.74-1.67-4.44-5.39-6s-7.33-1.46-8.07.28Z" style="fill: #838382"/>
                <path d="M124,91.64l.6-1.46A16.06,16.06,0,0,0,110,84.86l-.89,1.59A18.22,18.22,0,0,1,124,91.64Z" style="fill: #838382"/>
                <path d="M114.72,95.21l6.52,3.05,5.65-13.75c.68-1.6-1.29-4-4.49-5.6C120.84,82.45,116.6,91.66,114.72,95.21Z" style="fill: #b2b2b2;mix-blend-mode: multiply"/>
              </g>
              <g>
                <g>
                  <polygon points="102.12 84.26 92.66 89.21 92.73 92.48 102.2 99.91 114.78 104.28 120.62 86.66 102.12 84.26" style="fill: #e30613"/>
                  <polygon points="128.26 94.74 120.62 86.66 114.78 104.28 122.95 107.12 128.26 94.74" style="fill: #a80613"/>
                </g>
                <polygon points="120.54 86.77 114.76 103.91 122.4 88.52 120.54 86.77" style="fill: #6f1207"/>
              </g>
            </g>
            <path d="M185.78,86.73a4.84,4.84,0,0,0-4.37-4.08c-3.93-.43-54-9.75-54-9.75a25.76,25.76,0,0,0-4.37-.29S70.74,81.2,57.93,86.15c0,0-8.59,36.4-7.57,54.75,0,0,19.07,24,36.84,32.47,0,0,28.1,8.3,59.7,6.55a66.12,66.12,0,0,0,15.58-6.11c8.3-4.52,30.29-24,33.2-30.73C195.68,143.08,189.42,95,185.78,86.73ZM154.62,94.6l-24.76,7.71s-6.4-.29-6.84-.43-12.67-4.08-13.69-4.52S99.14,94,99.14,94l-4.52-3.2c3.5-2.19,27.53-14.27,27.53-14.27,9,.14,26.79,10.48,26.79,10.48s4.66,3.64,5.39,5.1A3.16,3.16,0,0,1,154.62,94.6Z" style="fill: #3c3c3b"/>
            <path d="M185.78,86.73a4.84,4.84,0,0,0-4.37-4.08c-3.93-.43-54-9.75-54-9.75a25.76,25.76,0,0,0-4.37-.29l-2.61.43a.28.28,0,0,1-.22.4C108.86,75.38,98,79.26,86.93,82.17A115.59,115.59,0,0,1,70,85.36c-3.92.43-8.14,1.29-12.16,1.1C57,90,49.39,123.54,50.36,140.9c0,0,19.07,24,36.84,32.47,0,0,28.1,8.3,59.7,6.55a66.12,66.12,0,0,0,15.58-6.11c8.3-4.52,30.29-24,33.2-30.73C195.68,143.08,189.42,95,185.78,86.73ZM161.55,97.45a159.24,159.24,0,0,1-17.74,14.33c-2.61,1.77-5.36,4.1-8.2,5.57-3.38,1.74-5,2.4-8.08,1.63-13.39-3.34-27.42-14.56-37.36-24a.33.33,0,0,1,.32-.55c6.57,1.79,12.8,4.6,19.37,6.41l9.71,2.66c1.44.39,3,1,4.58,1.45.76.1,1.52.18,2.28.21,5.93.25,11.62-1.75,17.29-3.19,5.89-1.49,11.56-3.77,17.51-5.06A.33.33,0,0,1,161.55,97.45Zm-51.14,19.89c-4.84-1.28-10-1.83-14.37-4.44-4.65-2.78-8.43-7.14-12-11.15-.24-.28.07-.72.4-.53,6.38,3.76,12.72,7.58,19.09,11.35a34.36,34.36,0,0,1,7.19,4.21C111,117,110.71,117.42,110.41,117.34Zm11.74-40.8c9,.14,26.79,10.48,26.79,10.48s4.66,3.64,5.39,5.1a3.16,3.16,0,0,1,.29,2.48l-24.76,7.71s-6.4-.29-6.84-.43-12.67-4.08-13.69-4.52S99.14,94,99.14,94l-4.52-3.2C98.12,88.62,122.15,76.54,122.15,76.54ZM69.35,86.67c3.72-1.22,7.67-1.26,11.45-2.26,4.07-1.07,8.26-1.66,12.35-2.66a.32.32,0,0,1,.29.07c4.16-1.09,8.31-2.24,12.49-3.23a.33.33,0,0,1,.26.6c-7,3.85-13.94,7.68-21.17,11-5.25,2.4-11-.49-15.75-2.91A.33.33,0,0,1,69.35,86.67Zm-9.59,27.11c-.18,6.36-3.15,11.49-6.64,16.66-.17.25-.64.18-.62-.17.59-10.27,2.33-20.42,4-30.56.2-2,.42-4.07.82-6.08C57.38,93.32,59.94,107,59.76,113.78ZM87.61,153c-4.36-2.67-7.15-7-10.52-10.76-3.88-4.3-7.86-8.55-11.35-13.18a14.54,14.54,0,0,1-3.1-6c-.48-2.77-.52-5.63-.85-8.42-.67-5.8-1.52-11.59-1.81-17.43-.16-1.63-.28-3.26-.34-4.9,0-.32,4.55,10.51,6.81,15.72,2.35,5.4,4.82,10.74,7.16,16.15a141.21,141.21,0,0,0,7.44,15.55c2.47,4.22,5.73,8.14,7,12.93A.34.34,0,0,1,87.61,153Zm14.27-2.18c-1.89-1.24-8.34-9.62-10.33-11.94-4.18-4.87-8-10-11.94-15.08a61.21,61.21,0,0,1-4.9-6.68,56.14,56.14,0,0,1-3.38-6.93c-2.15-5.22-4-10-6.59-15.1-.09-.18-4.35-7.15-4.15-7.1,2.68.71,8.46,3.68,10.4,5.58,2.46,2.41,5.07,4.66,7.6,7,4.92,4.53,10,9.23,13.77,14.76a38.83,38.83,0,0,1,6.14,16.1c.61,3.57,3.92,16.17,3.88,19.1A.34.34,0,0,1,101.88,150.8Zm35.31,22.86c-8.72-3.76-16.92-8.73-22.12-16.93A78.21,78.21,0,0,1,108,141.27c-2.09-5.79-3.85-11.68-5.48-17.61-.08-.3.34-.6.56-.32,8.81,11.3,15.29,24.19,23.86,35.67a.26.26,0,0,1,0,.29c3.7,4.54,7.36,9.11,10.68,13.9C137.86,173.51,137.46,173.77,137.19,173.66ZM146,131.25c-2.83,2.65-5.71,5.26-8.72,7.7-1.92,1.55-4.06,4-6.65,4.3-2.76.36-5.55-1.45-8-2.53a32.59,32.59,0,0,1-7.52-4.25c-.21-.16-.07-.48.14-.55,5.27-1.64,10.69-2.88,15.8-5,5.51-2.25,9.77-6.24,14.43-9.89s8.62-7.37,13.22-11.14c1.44-1.18,4.12-3.72,5.57-4.91,3.63-3.11,12.76-13.61,16.49-16.6.27-.22-4.63,9.36-4.85,9.7-4,6.22-9.13,11.56-14.13,17S151.45,126.1,146,131.25Zm3.49,24.6c-.15.26-.66.17-.61-.17,2.24-16.77,10.79-31.42,22.15-43.7.22-.23.69,0,.56.32a71.48,71.48,0,0,1-3.29,6.69.3.3,0,0,1,0,.16c-2.74,6.43-6.71,12.21-9.74,18.5C155.56,143.75,152.84,150,149.44,155.85ZM185.63,132c-.56,5.18-18.79,17.27-24.52,19.57-.23.09-.48-.19-.41-.41,5.59-16.54,12.63-32.54,18.64-48.93a60.51,60.51,0,0,0,2.19-6.55c.08-.4,1.76,14.63,2.8,21.84C185,122.3,186.16,127.12,185.63,132Z" style="fill: #3c3c3b;opacity: 0.5;mix-blend-mode: multiply"/>
            <g>
              <path d="M126.3,72.24c-.08-.22-1.53-5.17-.88-7.57a40.89,40.89,0,0,1,3.28-6.84s4,3.64,3.13,7.42S126.3,72.24,126.3,72.24Z" style="fill: #262625"/>
              <path d="M129.94,59.21a4.88,4.88,0,0,1,.66,3.34c-.58,2.11-2.06,3.82-3.22,5.64a.33.33,0,0,1-.6-.08,24.56,24.56,0,0,1-1.2-4c-.06.18-.11.35-.16.51-.65,2.4.8,7.35.88,7.57,0,0,4.66-3.2,5.53-7C132.37,62.9,131,60.61,129.94,59.21Z" style="fill: #3c3c3b;opacity: 0.7000000000000001;mix-blend-mode: multiply"/>
              <path d="M142.09,63.72s-10,1.32-12.74,4.45a14.89,14.89,0,0,0-3.27,5.6s7.79,0,11.86-4S142.09,63.72,142.09,63.72Z" style="fill: #262625"/>
              <path d="M136.17,69.21c-2.12,1.89-5,2.21-7.68,2.7a.34.34,0,0,1-.37-.49,14.5,14.5,0,0,1,4.93-5.5,9.54,9.54,0,0,0-3.7,2.25,14.89,14.89,0,0,0-3.27,5.6s7.79,0,11.86-4,4.15-6,4.15-6l-.65.1C139.73,65.66,138,67.55,136.17,69.21Z" style="fill: #3c3c3b;opacity: 0.7000000000000001;mix-blend-mode: multiply"/>
              <path d="M123.82,69.11s-2.55,1.31-2.55,3.64a1.57,1.57,0,0,1,1.31.08c.66.36-.51,3.42-.51,4s2.33.65,4.3-1.53S126.44,69.19,123.82,69.11Z" style="fill: #262625"/>
              <path d="M124.15,69.15c.79.89,1.65,1.69,1.51,3s-1,2.47-1.48,3.62c-.14.33-.6.12-.62-.17a9.21,9.21,0,0,0-.3-2.62c-.27-.72-1.16-.68-2-.5a2.46,2.46,0,0,0,0,.28,1.57,1.57,0,0,1,1.31.08c.66.36-.51,3.42-.51,4s2.33.65,4.3-1.53S126.59,69.52,124.15,69.15Z" style="fill: #3c3c3b;opacity: 0.7000000000000001;mix-blend-mode: multiply"/>
              <path d="M127.31,65.78a12.3,12.3,0,0,0-.27,2.63,26.61,26.61,0,0,0,.81-3.19,16.37,16.37,0,0,0,.35-2.15A27.7,27.7,0,0,0,127.31,65.78Z"/>
              <path d="M129.28,71.1c1.53-.8,3.12-1.5,4.56-2.44.76-.49,1.48-1,2.19-1.6A33.25,33.25,0,0,0,129.28,71.1Z"/>
            </g>
            <g>
              <path d="M59.86,100.42c.19,3.35.48,6.68.81,10,.54,5.53,1.2,11,2.19,16.52-.35-6.54-1.07-13.06-1.87-19.56-.42-3.42-1-6.89-1.15-10.34C59.81,98.18,59.8,99.3,59.86,100.42Z"/>
              <path d="M66.39,100.08A51.86,51.86,0,0,0,64,94.45c-.43-.66-.88-1.31-1.34-1.94,1.55,3.31,2.85,6.83,4.2,10.23A26.81,26.81,0,0,1,66.39,100.08Z"/>
              <path d="M72.74,116.05c1,2.29,1.78,4.67,2.79,6.86q3,6.53,6.25,13a171,171,0,0,0,9.2,16q1.71,2.22,3.52,4.36c-4-6.65-8.08-13.26-11.64-20.16-2.19-4.24-4.23-8.55-6.38-12.8-1.45-2.87-2.63-6.11-4.22-9C72.41,114.88,72.57,115.47,72.74,116.05Z"/>
              <path d="M114.68,139.35c.4.84.79,1.68,1.2,2.51.32.52.63,1,.94,1.56,1.79,3.12,3.94,6.09,6,9.05,4.18,6.06,8.56,12,12.75,18,0,.06.12,0,.18,0-1.09-1.69-2.24-3.34-3.37-5-1.9-2.83-3.59-5.78-5.31-8.71-1-1.46-2-2.92-3-4.38-2.31-3.37-4.75-6.66-7-10.07-.83-1.26-1.74-2.65-2.71-4C114.46,138.69,114.57,139,114.68,139.35Z"/>
              <path d="M179,101.44c-1.2,3-2.61,6-3.83,8.89-1.84,4.43-3.59,8.9-5.35,13.37-3.41,8.68-7.3,17.61-9.29,26.76.13-.25.26-.51.4-.75.65-1.11,1.3-2.22,2-3.31l.4-.68c2.83-7.25,5.31-14.66,8.09-21.92,3-7.91,6.66-15.92,8.62-24.2C179.67,100.21,179.33,100.83,179,101.44Z"/>
              <path d="M178.73,89.59q-2.31,2.1-4.6,4.22-4.59,4.27-9.23,8.49c-6.18,5.63-12.86,11.13-18.24,17.55,4.08-3,7.87-6.4,11.78-9.63,2.7-2.52,5.39-5,8.1-7.54,2-1.81,3.92-3.63,5.85-5.48.58-.69,1.15-1.37,1.74-2,2.11-2.41,4.7-4.53,6.69-7.06C180.07,88.66,179.15,89.21,178.73,89.59Z"/>
              <path d="M121.52,117.87c-4.57-2.68-9.11-5.41-13.7-8.05-5.06-2.91-10.28-5.56-15.43-8.3q-7.42-4-14.86-7.9c-1.64-.79-3.28-1.58-4.93-2.35-1.33-.62-2.54-1.36-3.81-2.09a8.65,8.65,0,0,0-3.74-1.49,25.94,25.94,0,0,0,3.27,2.1c2.48,1.55,5,3,7.61,4.35q7.5,4.06,15,8.2c5.13,2.84,10.57,5.17,15.66,8.08a158.58,158.58,0,0,0,14.76,7.79C121.48,118.28,121.7,118,121.52,117.87Z"/>
              <path d="M89.07,82.57l.17-.06c1.45-.41,3-.67,4.44-1.05,2.92-.75,5.87-1.41,8.8-2.16s6.09-1.57,9.13-2.35c1.34-.35,2.69-.61,4-.88L120,74.71c0-.1,0-.18-.19-.15-5.83,1.15-11.53,2.47-17.27,4-2.68.72-5.37,1.38-8,2.14-1.32.38-2.64.77-4,1.18-.58.17-1.4.54-2.16.78Z"/>
              <path d="M92.14,87.21l2.35-1c1.75-.77,3.52-1.52,5.25-2.34,2.36-1.11,4.71-2.27,7.07-3.4-2.54,1-5.08,2-7.57,3.11-1.61.72-3.2,1.46-4.76,2.28A23,23,0,0,0,90.7,87.9a0,0,0,0,0,0,0l-.44.24,0,0C90.88,87.92,91.52,87.48,92.14,87.21Z"/>
              <path d="M156.63,83.41c-5-1.69-10-3.15-15-4.89-2.53-.87-5.16-1.49-7.74-2.15-.81-.21-1.68-.51-2.57-.76-.46,0-.92.08-1.37.1,1.46.46,2.9,1,4.35,1.46,2.56.78,5.15,1.41,7.68,2.29,4.77,1.63,9.72,2.77,14.57,4.11C156.62,83.6,156.73,83.44,156.63,83.41Z"/>
            </g>
            <g style="opacity: 0.5;mix-blend-mode: screen">
              <path d="M88.76,131.1c-1.22-1.78-2.34-3.61-3.49-5.43L81.69,120c-2-2.81-3.94-5.63-5.73-8.64-2-3.3-3.75-6.71-5.64-10.06-.59-1-1.12-2.14-1.65-3.25l-1.16-2c-.53-.88-1-1.8-1.54-2.71,1.21,2.83,2.14,5.82,3.39,8.62,1.57,3.51,3.43,7,5.31,10.3,4,7.22,9.6,13.27,14.57,19.85.06.07.16,0,.23,0C89.23,131.79,89,131.44,88.76,131.1Z" style="fill: #545353;mix-blend-mode: screen"/>
              <path d="M66.87,125.66a54,54,0,0,1-2.78-9.13c-.34-1.51-.56-3.08-.94-4.6,0,.21,0,.41.07.62.3,2.25.53,4.53.88,6.77.31,2,.7,3.94,1.09,5.9l0,.08a18.92,18.92,0,0,0,4.12,6.44c1.26,1.46,2.59,2.9,4,4.29.85.95,1.74,1.85,2.65,2.74a.17.17,0,0,0,.18,0C72.71,134.68,69,130.61,66.87,125.66Z" style="fill: #545353;mix-blend-mode: screen"/>
              <path d="M131.92,109.71c1.65-.5,3.28-1,4.91-1.59.58-.19,1.15-.4,1.73-.61,2-1,4-1.88,6-2.81.74-.34,1.48-.75,2.23-1.14a127.17,127.17,0,0,1-17.32,4.54,11.56,11.56,0,0,1-3.59-.37c-1.7-.29-3.35-.63-5-1.06l-2.47-.61c-1.3-.24-2.63-.41-3.91-.74a31.22,31.22,0,0,0,13.91,5.16A9.71,9.71,0,0,0,131.92,109.71Z" style="fill: #545353;mix-blend-mode: screen"/>
              <path d="M171.69,128.9c-.85,3-1.51,6.08-2.38,9.08-.3,1-.55,2.08-.81,3.12a124.64,124.64,0,0,0,5.36-13.8c1.48-4.4,3.3-9.08,3.85-13.75A95.14,95.14,0,0,0,171.69,128.9Z" style="fill: #545353;mix-blend-mode: screen"/>
              <path d="M154.75,141.61c1.52-3.44,3.22-6.78,4.92-10.13,1.34-2.64,2.83-5.24,4.16-7.9a7.14,7.14,0,0,0,.29-1c-2,3.06-4.26,5.88-6.05,9a51.92,51.92,0,0,0-4.28,11,.3.3,0,0,0,0,.16A12.16,12.16,0,0,0,154.75,141.61Z" style="fill: #545353;mix-blend-mode: screen"/>
              <path d="M147.06,121.57c-3.52,2.68-7.09,5.38-10.75,7.87a42.25,42.25,0,0,1-6.22,3.16l-.14.07a33,33,0,0,0-4,2.36l-.94.69a15.2,15.2,0,0,0,3.62-.82,39.3,39.3,0,0,0,7-3,33.62,33.62,0,0,0,4.9-3.41l.61-.66c2-2.17,4.17-4.15,6.19-6.29A.34.34,0,0,0,147.06,121.57Z" style="fill: #545353;mix-blend-mode: screen"/>
              <path d="M96.07,82.66c-1.1.18-2.22.32-3.32.53-2.31.44-4.61.94-6.92,1.39s-4.4.88-6.57,1.43c-1,.27-2,.55-3,.87-.35.11-1.08.47-1.66.62a56,56,0,0,0,7-.44l1.85-.32c1.68-.32,3.38-.71,5.06-1.15l.76-.25c1.57-.53,3.14-1,4.71-1.58C94.67,83.41,95.38,83.05,96.07,82.66Z" style="fill: #545353;mix-blend-mode: screen"/>
              <path d="M117.7,147.26c-.69-1.07-1.39-2.13-2.09-3.21a52.81,52.81,0,0,0-3.06-4.64c-.16-.13-.32-.26-.49-.38l.21.52c1,1.58,1.72,3.52,2.6,5a.41.41,0,0,1,0,.09,63.9,63.9,0,0,0,4.22,5.95l.46.43C119,149.76,118.38,148.51,117.7,147.26Z" style="fill: #545353;mix-blend-mode: screen"/>
            </g>
          </g>
        </g>
        <g>
          <g>
            <g>
              <path d="M42.77,160.28c-1.53,0-2.77.05-3.37.08-2.46.12-4.14.29-4.29,1.67a25.27,25.27,0,0,0,1.13,10.87l2.37-.45s-1.12-8.48-.2-8.81a35.08,35.08,0,0,1,4.22-.15c0-.55,0-1.12,0-1.71S42.7,160.76,42.77,160.28Z" style="fill: #dfefe7"/>
              <path d="M55.16,163.68l.06-3.56h-.06c0,1.27,0,2.45,0,3.56Z" style="fill: #dfefe7"/>
              <path d="M42.77,160.28c4.54-.08,11.65-.15,12.39-.16a95,95,0,0,0-.69-10C50,149.52,43.92,152.86,42.77,160.28Z" style="fill: #78d7e6;opacity: 0.9"/>
              <path d="M53.23,175.87s1.62-3.9,1.9-12.19c-.53,0-7.65-.21-12.5-.19C43.24,175.45,53.23,175.87,53.23,175.87Z" style="fill: #78d7e6;opacity: 0.9"/>
              <path d="M42.61,161.78c0,.59,0,1.16,0,1.71,4.85,0,12,.17,12.5.19,0-1.11,0-2.29,0-3.56-.74,0-7.85.08-12.39.16C42.7,160.76,42.64,161.26,42.61,161.78Z" style="fill: #60c2cc;opacity: 0.9"/>
            </g>
            <path d="M53.71,177.21l2.24-.06.74-1.18s3.94-10.63,1.27-26.25l-.29-.87-2.37-.08C58.23,165.77,53.71,177.21,53.71,177.21Z" style="fill: #78d7e6;opacity: 0.9"/>
            <path d="M53.23,175.87l.48,1.34s4.52-11.44,1.59-28.44l-.83,1.36C56.58,167.78,53.23,175.87,53.23,175.87Z" style="fill: #40b3bf;opacity: 0.9"/>
          </g>
          <g>
            <path d="M38.65,163.61a3.71,3.71,0,0,1-.23-.47,10.81,10.81,0,0,1-.41-1.06,10.25,10.25,0,0,1-.32-1.09,4.87,4.87,0,0,1-.11-.51s.1.18.23.47.27.67.41,1.06.25.79.32,1.09S38.65,163.61,38.65,163.61Z" style="fill: #b1c9bc"/>
            <path d="M38.31,163.65l-.1-.12c-.06-.07-.15-.17-.25-.3s-.45-.61-.69-1-.46-.74-.62-1-.14-.27-.18-.36l-.06-.13.1.11.25.3c.2.26.45.62.69,1s.46.74.62,1,.13.27.18.35Z" style="fill: #b1c9bc"/>
            <path d="M38.19,163.86l-.13-.1a4,4,0,0,1-.33-.27c-.27-.22-.62-.54-.95-.87s-.66-.67-.89-.93l-.27-.33-.1-.13.13.1.33.26c.27.23.62.55,1,.88s.65.67.88.93l.28.33Z" style="fill: #b1c9bc"/>
            <path d="M38.14,164.22l-.15-.1c-.08-.05-.21-.13-.36-.24-.3-.21-.69-.5-1.07-.81s-.74-.63-1-.88-.23-.24-.31-.31l-.12-.13.15.09.37.25c.3.21.68.5,1.06.81s.74.63,1,.88.23.24.31.31Z" style="fill: #b1c9bc"/>
          </g>
          <g style="mix-blend-mode: multiply">
            <path d="M37,164a79.21,79.21,0,0,0,.45,8.65l1.14-.21s-1.12-8.48-.2-8.81c2.14-.36,16.75,0,16.75,0l0-1.42c-1.94-.08-6.11-.23-9.75-.23C39.87,162,37.18,161.49,37,164Z" style="fill: #dfefe7"/>
          </g>
          <path d="M79.33,154.05a43.59,43.59,0,0,1-4.55.37,10.38,10.38,0,0,1-3.34-.74c-1.44-.52-2.9-1-4.35-1.53s-3-1.05-4.47-1.43c-.75-.19-1.51-.35-2.24-.59L58,149.72C60.63,165.34,56.69,176,56.69,176l29.64-2.18s5.42-9.61,1.27-19.34A80,80,0,0,0,79.33,154.05Z" style="fill: #e30613"/>
          <g style="mix-blend-mode: multiply">
            <path d="M56.69,176l29.64-2.18a22.15,22.15,0,0,0,1.6-3.88l-30.05,1.45A32.91,32.91,0,0,1,56.69,176Z" style="fill: silver"/>
          </g>
          <path d="M74.89,154.1a10.63,10.63,0,0,1-3.38-.75c-1.47-.54-2.94-1-4.42-1.56-.85-.28-1.69-.59-2.54-.87,4.54,15.69-1.36,25.1-1.36,25.1s2.81,0,14.4-.63c4.54-8.82,2.42-18.28,1.42-21.63A33.82,33.82,0,0,1,74.89,154.1Z" style="fill: #fdce00"/>
          <path d="M48.8,156.89c1.51-1.52,2.16-3.34,1.44-4.06s-2.55-.08-4.06,1.44-2.17,3.34-1.44,4.06S47.28,158.41,48.8,156.89Z" style="fill: #fff"/>
          <path d="M52.2,152.3c.26-.13.41-.37.33-.53s-.37-.19-.63-.06-.41.38-.33.54S51.93,152.43,52.2,152.3Z" style="fill: #fff"/>
          <g style="opacity: 0.7000000000000001;mix-blend-mode: multiply">
            <path d="M63.24,176s2.77,0,14.2-.62a18.16,18.16,0,0,0,1.26-3l-14.07.5A16.75,16.75,0,0,1,63.24,176Z" style="fill: #c7c7c7"/>
          </g>
          <path d="M60.3,153.79c2.37.91,4.82,1.6,7.14,2.64a.06.06,0,0,1,0,.07c-.29.94-.52,1.89-.8,2.84,1.15-.76,2.2-1.66,3.39-2.35,0,0,.11-.05.14,0,2.25,2.88,3.5,6.32,5,9.62,1.24-2.57,1.28-5.65,1.41-8.45,0-.06.07-.09.13-.1,3.88-.47,7.76-1,11.61-1.69-.2-.63-.43-1.27-.7-1.91a80,80,0,0,0-8.27-.4l-.23,0-.09-.31a33.82,33.82,0,0,1-4.12.34,10.63,10.63,0,0,1-3.38-.75c-1.47-.54-2.94-1-4.42-1.56-.85-.28-1.69-.59-2.54-.87,0,.14.07.27.11.4-.68-.22-1.36-.43-2-.6s-1.51-.35-2.24-.59L58,149.72c.2,1.15.36,2.26.49,3.35Z" style="fill: #c7c7c7;mix-blend-mode: multiply"/>
          <path d="M58.6,149.83l-.64-.11C60.63,165.34,56.69,176,56.69,176l.76-.06C61.17,164.36,59.17,152.64,58.6,149.83Z" style="fill: silver;mix-blend-mode: multiply"/>
          <g style="opacity: 0.9">
            <path d="M42.61,161.91c0,.79,0,1.53.07,2.23l12.42.29q0-1,.06-2.13C51,162.29,46.78,162.22,42.61,161.91Z" style="fill: #40b3bf"/>
          </g>
          <polygon points="66.71 160.13 69.6 158.18 74.37 166.61 68.92 161.42 66.71 160.13" style="fill: #fdce00;mix-blend-mode: screen"/>
          <path d="M80.44,158.3l7.61-.88a14.07,14.07,0,0,1,.59,3.54H80.85Z" style="fill: #e95315;mix-blend-mode: color-dodge"/>
          <polygon points="59.72 154.23 65.02 156.17 65.83 159.78 59.83 157.86 59.72 154.23" style="fill: #e95315;mix-blend-mode: color-dodge"/>
        </g>
        <g>
          <g>
            <path d="M197.39,150.27l15.44-5.52L209,136.31l3-1.5s2.67,5.07,3.77,7.77,1.38,3.66-2.9,5.18-14.56,4.94-14.56,4.94Z" style="fill: #5bb354"/>
            <path d="M215.81,142.58c-1.1-2.7-3.77-7.77-3.77-7.77l-1.53.77c1,1.75,2.06,3.42,3.05,5.16a14,14,0,0,1,1.72,3.3c.42,1.68-1.81,2.74-3,3.13-4.76,1.52-9.69,2.59-14.47,4.06l.58,1.47s10.28-3.43,14.56-4.94S216.89,145.22,215.81,142.58Z" style="fill: #5bb354;mix-blend-mode: multiply"/>
            <g>
              <polygon points="192.63 141.9 184.63 149.7 164.19 156.17 164.02 173.2 190.93 169.12 200.91 163.58 192.63 141.9" style="fill: #e30613"/>
              <path d="M192.63,141.9l-.8.78c-.5,5.22-1.18,10.43-.49,15.66,0,.14-.13.27-.23.33-3.29,2.18-6.4,4.61-9.46,7.1-.12.1-.45.19-.44-.07a16.21,16.21,0,0,1,.29-2.4c.15-.85.72-2.14-.55-1.67-1.52.56-3,1.1-4.56,1.64a78.1,78.1,0,0,0-9.46,3.91c-.15.08-.36.09-.37-.12-.11-2.71.05-5.48.14-8.2,0-1.16.08-2.33.06-3.5l-2.58.81-.16,17,26.91-4.08,10-5.54Z" style="fill: #e30613;mix-blend-mode: multiply"/>
              <path d="M193.76,160.41a30.62,30.62,0,0,1-6.19,5.22c-2.57,1.61-5.62,1.61-8.32,2.86-.13.06-.38.1-.37-.12.05-1.37.44-2.68.61-4-1.84,2.39-3.53,4.91-6.56,5.87a53.57,53.57,0,0,1-8.9,1.7v1.28l26.91-4.08,10-5.54-3.15-8.24A46.75,46.75,0,0,1,193.76,160.41Z" style="fill: #e30613;mix-blend-mode: multiply"/>
              <polygon points="202.97 163.56 194.24 140.77 192.29 141.67 200.92 164.46 202.97 163.56" style="fill: #a5b1ac"/>
              <polygon points="202.97 163.56 194.24 140.77 194.11 140.96 200.92 164.46 202.97 163.56" style="fill: #7e8783"/>
            </g>
          </g>
          <polygon points="167.99 156.51 184.46 151.18 185.93 154.02 186.27 150.04 190.81 144.82 187.86 150.49 186.27 157.53 183.78 153.22 167.99 156.51" style="fill: #e95315;mix-blend-mode: color-dodge"/>
        </g>
      </g>
    </g>
  </g>
</svg>
