<svg xmlns="http://www.w3.org/2000/svg" viewBox="0 0 256 256">
  <g style="isolation: isolate">
    <g id="Layer_1" data-name="Layer 1">
      <rect x="0.64" width="256" height="256" rx="64.73" style="fill: #f4f4f4"/>
      <g>
        <g>
          <path d="M128.64,175.67v-2h-1.08c-4.15-3.53-19.94-6.17-38.78-6.17S54.1,170.13,50,173.67H48.89v1.93h0c.25,4.39,18,7.93,39.86,7.93s39.38-3.49,39.84-7.84Z" style="fill: #7e8286"/>
          <path d="M128.63,173.66h-1.08c-4.15-3.53-19.94-6.17-38.78-6.17H87.55v16h1.22c21.72,0,39.38-3.49,39.84-7.84l0,0Z" style="fill: #8c959d;opacity: 0.5;mix-blend-mode: multiply"/>
          <path d="M128.63,173.67c0,4.43-17.85,8-39.86,8s-39.86-3.59-39.86-8,17.84-8,39.86-8,39.86,3.58,39.86,8Z" style="fill: #494c4e"/>
        </g>
        <g>
          <path d="M128.07,173.79V87.36H49.47v86.22a.41.41,0,0,0,0,.11.34.34,0,0,0,0,.1v.09h0c.62,3.44,18,7,39.29,7s38.67-3.58,39.28-7h0Z" style="fill: #bfc3c2"/>
          <path d="M59.88,87.36v91c2.58.53,5.56,1,8.85,1.39V87.36Z" style="fill: #bfc3c2;opacity: 0.5;mix-blend-mode: screen"/>
          <path d="M128.07,173.59V87.36H88.77V180.9c21.31,0,38.67-3.58,39.28-7h0v-.29Z" style="fill: #8c959d;opacity: 0.5;mix-blend-mode: multiply"/>
        </g>
        <g>
          <g>
            <path d="M128.64,88V86h-1.08c-4.15-3.53-19.94-6.16-38.78-6.16S54.1,82.5,50,86.05H48.89V88h0c.25,4.38,18,7.92,39.86,7.92s39.38-3.49,39.84-7.84Z" style="fill: #fff"/>
            <path d="M128.64,88V86h-1.08c-4.15-3.53-19.94-6.16-38.78-6.16S54.1,82.5,50,86.05H48.89V88h0c.25,4.38,18,7.92,39.86,7.92s39.38-3.49,39.84-7.84Z" style="fill: #7e8286"/>
            <path d="M128.63,86h-1.08c-4.15-3.53-19.94-6.16-38.78-6.16H87.55v16h1.22c21.72,0,39.38-3.49,39.84-7.84l0,0Z" style="fill: #8c959d;opacity: 0.5;mix-blend-mode: multiply"/>
            <path d="M128.63,86.05c0,4.42-17.85,8-39.86,8s-39.86-3.59-39.86-8,17.84-8,39.86-8,39.86,3.59,39.86,8Z" style="fill: #b2b6ba"/>
            <path d="M127,85.84c0,4-17.12,7.22-38.24,7.22s-38.24-3.23-38.24-7.22,17.12-7.23,38.24-7.23S127,81.85,127,85.84Z" style="fill: #73767a"/>
            <path d="M126.09,86.16c0,3.81-16.71,6.9-37.32,6.9S51.44,90,51.44,86.16s16.71-6.9,37.33-6.9,37.32,3.09,37.32,6.9Z" style="fill: #d2d5d4"/>
            <path d="M123.49,86.27c0,3.2-15.25,5.8-34,5.8s-34.06-2.6-34.06-5.8,15.25-5.81,34.06-5.81,34.05,2.6,34.05,5.81Z" style="fill: #94989c"/>
            <path d="M122.05,86.4c0,3-14.6,5.47-32.61,5.47S56.82,89.43,56.82,86.4s14.6-5.47,32.62-5.47,32.61,2.45,32.61,5.47Z" style="fill: #d2d5d4"/>
            <path d="M116.73,86.41c0,2.24-11.52,4.06-25.73,4.06s-25.72-1.82-25.72-4.06S76.8,82.34,91,82.34s25.73,1.82,25.73,4.07Z" style="fill: #94989c"/>
            <path d="M115.64,86.58c0,2.07-11,3.75-24.64,3.75s-24.64-1.68-24.64-3.75,11-3.75,24.64-3.75,24.64,1.68,24.64,3.75Z" style="fill: #d2d5d4"/>
          </g>
          <path d="M60.05,85.47c0,.57-.83,1.1-1.95,1.18S56,86.34,56,85.77s.84-1.1,2-1.18,2.06.31,2.1.88Z" style="fill: #fff"/>
          <g>
            <path d="M80,84.46a4.8,4.8,0,0,0-4-2.71c-3.47-.59-7.12.1-10.55.63s-6.91.64-10.06,1.87c-1.56.6-1.95,2.47-.66,3.21,1.9,1.09,12,2.33,14.66,2.51a43.67,43.67,0,0,0,4.43.09,12.68,12.68,0,0,0,3.67-.58,3.93,3.93,0,0,0,2.39-1.75A4.78,4.78,0,0,0,80,84.46Zm-2,2.35a2.27,2.27,0,0,1-1,1.31,3.33,3.33,0,0,1-1.53.35,11.62,11.62,0,0,1-1.86-.12c-.52-.07-1-.19-1.56-.29-1.42-.28-6.72-1.38-4.19-3.81a5.67,5.67,0,0,1,3.34-1.16c1.64-.2,3.41-.56,5,0a2.45,2.45,0,0,1,1.74,1.74,4.36,4.36,0,0,1,.09,2Z" style="fill: #73767a"/>
            <path d="M80,83.52a4.83,4.83,0,0,0-4-2.72c-3.47-.58-7.12.1-10.55.63s-6.91.64-10.06,1.87c-1.56.6-1.95,2.47-.66,3.21,1.9,1.1,12,2.33,14.66,2.51a43.67,43.67,0,0,0,4.43.09,12.68,12.68,0,0,0,3.67-.58,3.85,3.85,0,0,0,2.39-1.75A4.75,4.75,0,0,0,80,83.52Zm-2,2.34a2.32,2.32,0,0,1-1,1.32,3.45,3.45,0,0,1-1.53.34,12.9,12.9,0,0,1-1.86-.11c-.52-.08-1-.2-1.56-.3-1.42-.27-6.72-1.38-4.19-3.8a5.68,5.68,0,0,1,3.34-1.17c1.64-.19,3.41-.56,5,0a2.46,2.46,0,0,1,1.74,1.74,4.37,4.37,0,0,1,.09,2Z" style="fill: #b0b3b3"/>
            <g>
              <path d="M60.44,84.92c0,.61-.94,1.13-2.13,1.17s-2.18-.42-2.2-1,.93-1.13,2.13-1.17,2.18.42,2.2,1Z" style="fill: #73767a"/>
              <path d="M60.43,84.53c0,.61-.89,1.17-2.08,1.26s-2.19-.33-2.23-.94.88-1.17,2.07-1.26,2.2.34,2.24.94Z" style="fill: #d2d5d4"/>
            </g>
          </g>
        </g>
      </g>
      <g>
        <g>
          <path d="M216,175.62v-2h-1.09c-4.18-3.56-20.06-6.2-39-6.2s-34.88,2.65-39,6.21h-1.07v1.95h0c.24,4.41,18.1,8,40.09,8S215.52,180,216,175.64Z" style="fill: #7e8286"/>
          <path d="M216,173.6h-1.09c-4.15-3.53-19.83-6.16-38.61-6.2v16.13c21.66,0,39.22-3.54,39.68-7.89l0,0Z" style="fill: #8c959d;opacity: 0.5;mix-blend-mode: multiply"/>
          <path d="M216,173.61c0,4.46-17.95,8.07-40.1,8.07s-40.1-3.61-40.1-8.07,17.95-8.06,40.1-8.06,40.1,3.61,40.1,8.06Z" style="fill: #494c4e"/>
        </g>
        <g>
          <path d="M215.3,173.73V86.78H136.22v86.74s0,.07,0,.11,0,.07,0,.1v.09h0c.63,3.46,18.08,7.06,39.53,7.06s38.9-3.6,39.52-7.06h0Z" style="fill: #bfc3c2"/>
          <g>
            <g>
              <path d="M136.1,99.53c.24,4.35,17.94,7.92,39.64,7.92,21.55,0,39.15-3.55,39.61-7.86a4.7,4.7,0,0,0-.07-1.92c-.46,4.31-18,7.78-39.54,7.78-21.7,0-39.31-3.51-39.55-7.87,0,0-.05.16-.06.22,0,.3,0,.6,0,.9S136.09,99.26,136.1,99.53Z" style="fill: #dcdcde"/>
              <path d="M175.76,106.36c-20.17,0-36.85-3.09-39.66-7.12a2.8,2.8,0,0,0,0,.29c.24,4.35,17.94,7.92,39.64,7.92,21.55,0,39.15-3.55,39.61-7.86,0,0,0-.12,0-.3C212.47,103.29,195.84,106.36,175.76,106.36Z" style="fill: #94989c"/>
            </g>
            <g>
              <path d="M136.1,106.52c.24,4.35,17.94,7.93,39.64,7.93,21.55,0,39.15-3.55,39.61-7.87a4.7,4.7,0,0,0-.07-1.92c-.46,4.32-18,7.78-39.54,7.78-21.7,0-39.31-3.51-39.55-7.86,0,0-.05.16-.06.21,0,.3,0,.61,0,.91S136.09,106.25,136.1,106.52Z" style="fill: #dcdcde"/>
              <path d="M175.76,113.35c-20.17,0-36.85-3.09-39.66-7.12a2.8,2.8,0,0,0,0,.29c.24,4.35,17.94,7.93,39.64,7.93,21.55,0,39.15-3.55,39.61-7.87,0,0,0-.11,0-.3C212.47,110.29,195.84,113.35,175.76,113.35Z" style="fill: #94989c"/>
            </g>
            <g>
              <path d="M136.1,113.51c.24,4.35,17.94,7.93,39.64,7.93,21.55,0,39.15-3.55,39.61-7.86a4.75,4.75,0,0,0-.07-1.93c-.46,4.32-18,7.79-39.54,7.79-21.7,0-39.31-3.52-39.55-7.87,0,.05-.05.16-.06.22,0,.3,0,.6,0,.9S136.09,113.24,136.1,113.51Z" style="fill: #dcdcde"/>
              <path d="M175.76,120.35c-20.17,0-36.85-3.1-39.66-7.13a2.8,2.8,0,0,0,0,.29c.24,4.35,17.94,7.93,39.64,7.93,21.55,0,39.15-3.55,39.61-7.86,0,0,0-.12,0-.3C212.47,117.28,195.84,120.35,175.76,120.35Z" style="fill: #94989c"/>
            </g>
            <g>
              <path d="M136.1,120.51c.24,4.35,17.94,7.92,39.64,7.92,21.55,0,39.15-3.55,39.61-7.86a4.7,4.7,0,0,0-.07-1.92c-.46,4.31-18,7.78-39.54,7.78-21.7,0-39.31-3.51-39.55-7.87,0,0-.05.16-.06.22,0,.3,0,.6,0,.9S136.09,120.24,136.1,120.51Z" style="fill: #dcdcde"/>
              <path d="M175.76,127.34c-20.17,0-36.85-3.1-39.66-7.12a2.8,2.8,0,0,0,0,.29c.24,4.35,17.94,7.92,39.64,7.92,21.55,0,39.15-3.55,39.61-7.86,0,0,0-.12,0-.3C212.47,124.27,195.84,127.34,175.76,127.34Z" style="fill: #94989c"/>
            </g>
            <g>
              <path d="M136.1,127.5c.24,4.35,17.94,7.93,39.64,7.93,21.55,0,39.15-3.55,39.61-7.87a4.7,4.7,0,0,0-.07-1.92c-.46,4.31-18,7.78-39.54,7.78-21.7,0-39.31-3.51-39.55-7.86,0,0-.05.16-.06.21,0,.3,0,.61,0,.91S136.09,127.23,136.1,127.5Z" style="fill: #dcdcde"/>
              <path d="M175.76,134.33c-20.17,0-36.85-3.09-39.66-7.12a2.81,2.81,0,0,0,0,.29c.24,4.35,17.94,7.93,39.64,7.93,21.55,0,39.15-3.55,39.61-7.87,0,0,0-.12,0-.3C212.47,131.26,195.84,134.33,175.76,134.33Z" style="fill: #94989c"/>
            </g>
            <g>
              <path d="M136.1,134.49c.24,4.35,17.94,7.93,39.64,7.93,21.55,0,39.15-3.55,39.61-7.86a4.75,4.75,0,0,0-.07-1.93c-.46,4.32-18,7.79-39.54,7.79-21.7,0-39.31-3.52-39.55-7.87,0,0-.05.16-.06.22,0,.3,0,.6,0,.9S136.09,134.22,136.1,134.49Z" style="fill: #dcdcde"/>
              <path d="M175.76,141.33c-20.17,0-36.85-3.1-39.66-7.13a2.8,2.8,0,0,0,0,.29c.24,4.35,17.94,7.93,39.64,7.93,21.55,0,39.15-3.55,39.61-7.86,0,0,0-.12,0-.3C212.47,138.26,195.84,141.33,175.76,141.33Z" style="fill: #94989c"/>
            </g>
            <g>
              <path d="M136.1,141.48c.24,4.36,17.94,7.93,39.64,7.93,21.55,0,39.15-3.55,39.61-7.86a4.7,4.7,0,0,0-.07-1.92c-.46,4.31-18,7.78-39.54,7.78-21.7,0-39.31-3.51-39.55-7.87,0,.05-.05.16-.06.22,0,.3,0,.6,0,.9S136.09,141.22,136.1,141.48Z" style="fill: #dcdcde"/>
              <path d="M175.76,148.32c-20.17,0-36.85-3.09-39.66-7.12a2.62,2.62,0,0,0,0,.28c.24,4.36,17.94,7.93,39.64,7.93,21.55,0,39.15-3.55,39.61-7.86,0,0,0-.12,0-.3C212.47,145.25,195.84,148.32,175.76,148.32Z" style="fill: #94989c"/>
            </g>
            <g>
              <path d="M136.1,148.48c.24,4.35,17.94,7.92,39.64,7.92,21.55,0,39.15-3.55,39.61-7.86a4.7,4.7,0,0,0-.07-1.92c-.46,4.31-18,7.78-39.54,7.78-21.7,0-39.31-3.51-39.55-7.86,0,0-.05.16-.06.21,0,.3,0,.61,0,.91S136.09,148.21,136.1,148.48Z" style="fill: #dcdcde"/>
              <path d="M175.76,155.31c-20.17,0-36.85-3.09-39.66-7.12a2.81,2.81,0,0,0,0,.29c.24,4.35,17.94,7.92,39.64,7.92,21.55,0,39.15-3.55,39.61-7.86,0,0,0-.12,0-.3C212.47,152.24,195.84,155.31,175.76,155.31Z" style="fill: #94989c"/>
            </g>
            <g>
              <path d="M136.1,103c.24,4.35,17.94,7.93,39.64,7.93,21.55,0,39.15-3.55,39.61-7.86a4.75,4.75,0,0,0-.07-1.93c-.46,4.32-18,7.79-39.54,7.79-21.7,0-39.31-3.52-39.55-7.87,0,0-.05.16-.06.22,0,.3,0,.6,0,.9S136.09,102.75,136.1,103Z" style="fill: #dcdcde"/>
              <path d="M175.76,109.86c-20.17,0-36.85-3.1-39.66-7.12a2.62,2.62,0,0,0,0,.28c.24,4.35,17.94,7.93,39.64,7.93,21.55,0,39.15-3.55,39.61-7.86,0,0,0-.12,0-.3C212.47,106.79,195.84,109.86,175.76,109.86Z" style="fill: #94989c"/>
            </g>
            <g>
              <path d="M136.1,110c.24,4.35,17.94,7.92,39.64,7.92,21.55,0,39.15-3.55,39.61-7.86a4.7,4.7,0,0,0-.07-1.92c-.46,4.31-18,7.78-39.54,7.78-21.7,0-39.31-3.51-39.55-7.86,0,0-.05.15-.06.21,0,.3,0,.6,0,.9S136.09,109.75,136.1,110Z" style="fill: #dcdcde"/>
              <path d="M175.76,116.85c-20.17,0-36.85-3.09-39.66-7.12a2.81,2.81,0,0,0,0,.29c.24,4.35,17.94,7.92,39.64,7.92,21.55,0,39.15-3.55,39.61-7.86,0,0,0-.12,0-.3C212.47,113.78,195.84,116.85,175.76,116.85Z" style="fill: #94989c"/>
            </g>
            <g>
              <path d="M136.1,117c.24,4.35,17.94,7.93,39.64,7.93,21.55,0,39.15-3.55,39.61-7.87a4.7,4.7,0,0,0-.07-1.92c-.46,4.31-18,7.78-39.54,7.78-21.7,0-39.31-3.51-39.55-7.86,0,0-.05.16-.06.22,0,.29,0,.6,0,.9S136.09,116.74,136.1,117Z" style="fill: #dcdcde"/>
              <path d="M175.76,123.84c-20.17,0-36.85-3.09-39.66-7.12a2.81,2.81,0,0,0,0,.29c.24,4.35,17.94,7.93,39.64,7.93,21.55,0,39.15-3.55,39.61-7.87,0,0,0-.12,0-.3C212.47,120.78,195.84,123.84,175.76,123.84Z" style="fill: #94989c"/>
            </g>
            <g>
              <path d="M136.1,124c.24,4.35,17.94,7.93,39.64,7.93,21.55,0,39.15-3.55,39.61-7.86a4.75,4.75,0,0,0-.07-1.93c-.46,4.32-18,7.79-39.54,7.79-21.7,0-39.31-3.52-39.55-7.87,0,0-.05.16-.06.22,0,.3,0,.6,0,.9S136.09,123.73,136.1,124Z" style="fill: #dcdcde"/>
              <path d="M175.76,130.84c-20.17,0-36.85-3.1-39.66-7.13a2.8,2.8,0,0,0,0,.29c.24,4.35,17.94,7.93,39.64,7.93,21.55,0,39.15-3.55,39.61-7.86,0,0,0-.12,0-.3C212.47,127.77,195.84,130.84,175.76,130.84Z" style="fill: #94989c"/>
            </g>
            <g>
              <path d="M136.1,131c.24,4.35,17.94,7.92,39.64,7.92,21.55,0,39.15-3.55,39.61-7.86a4.7,4.7,0,0,0-.07-1.92c-.46,4.31-18,7.78-39.54,7.78-21.7,0-39.31-3.51-39.55-7.87,0,0-.05.16-.06.22,0,.3,0,.6,0,.9S136.09,130.73,136.1,131Z" style="fill: #dcdcde"/>
              <path d="M175.76,137.83c-20.17,0-36.85-3.1-39.66-7.12a2.8,2.8,0,0,0,0,.29c.24,4.35,17.94,7.92,39.64,7.92,21.55,0,39.15-3.55,39.61-7.86,0,0,0-.12,0-.3C212.47,134.76,195.84,137.83,175.76,137.83Z" style="fill: #94989c"/>
            </g>
            <g>
              <path d="M136.1,138c.24,4.35,17.94,7.93,39.64,7.93,21.55,0,39.15-3.55,39.61-7.87a4.7,4.7,0,0,0-.07-1.92c-.46,4.31-18,7.78-39.54,7.78-21.7,0-39.31-3.51-39.55-7.86,0,0-.05.16-.06.21,0,.3,0,.61,0,.91S136.09,137.72,136.1,138Z" style="fill: #dcdcde"/>
              <path d="M175.76,144.82c-20.17,0-36.85-3.09-39.66-7.12a2.81,2.81,0,0,0,0,.29c.24,4.35,17.94,7.93,39.64,7.93,21.55,0,39.15-3.55,39.61-7.87,0,0,0-.12,0-.3C212.47,141.75,195.84,144.82,175.76,144.82Z" style="fill: #94989c"/>
            </g>
            <g>
              <path d="M136.1,145c.24,4.35,17.94,7.93,39.64,7.93,21.55,0,39.15-3.55,39.61-7.87a4.7,4.7,0,0,0-.07-1.92c-.46,4.32-18,7.79-39.54,7.79-21.7,0-39.31-3.52-39.55-7.87,0,.05-.05.16-.06.22,0,.3,0,.6,0,.9S136.09,144.71,136.1,145Z" style="fill: #dcdcde"/>
              <path d="M175.76,151.82c-20.17,0-36.85-3.1-39.66-7.13a2.8,2.8,0,0,0,0,.29c.24,4.35,17.94,7.93,39.64,7.93,21.55,0,39.15-3.55,39.61-7.87,0,0,0-.11,0-.29C212.47,148.75,195.84,151.82,175.76,151.82Z" style="fill: #94989c"/>
            </g>
            <g>
              <path d="M136.1,152c.24,4.35,17.94,7.92,39.64,7.92,21.55,0,39.15-3.55,39.61-7.86a4.7,4.7,0,0,0-.07-1.92c-.46,4.31-18,7.78-39.54,7.78-21.7,0-39.31-3.51-39.55-7.87,0,.05-.05.16-.06.22,0,.3,0,.6,0,.9S136.09,151.71,136.1,152Z" style="fill: #dcdcde"/>
              <path d="M175.76,158.81c-20.17,0-36.85-3.1-39.66-7.12a2.8,2.8,0,0,0,0,.29c.24,4.35,17.94,7.92,39.64,7.92,21.55,0,39.15-3.55,39.61-7.86,0,0,0-.12,0-.3C212.47,155.74,195.84,158.81,175.76,158.81Z" style="fill: #94989c"/>
            </g>
            <g>
              <path d="M136.1,155.47c.24,4.35,17.94,7.93,39.64,7.93,21.55,0,39.15-3.55,39.61-7.87a4.7,4.7,0,0,0-.07-1.92c-.46,4.32-18,7.79-39.54,7.79-21.7,0-39.31-3.52-39.55-7.87,0,.05-.05.16-.06.22,0,.3,0,.6,0,.9S136.09,155.2,136.1,155.47Z" style="fill: #dcdcde"/>
              <path d="M175.76,162.31c-20.17,0-36.85-3.1-39.66-7.13a2.8,2.8,0,0,0,0,.29c.24,4.35,17.94,7.93,39.64,7.93,21.55,0,39.15-3.55,39.61-7.87,0,0,0-.11,0-.29C212.47,159.24,195.84,162.31,175.76,162.31Z" style="fill: #94989c"/>
            </g>
            <g>
              <path d="M136.1,162.46c.24,4.36,17.94,7.93,39.64,7.93,21.55,0,39.15-3.55,39.61-7.86a4.7,4.7,0,0,0-.07-1.92c-.46,4.31-18,7.78-39.54,7.78-21.7,0-39.31-3.51-39.55-7.87,0,0-.05.16-.06.22,0,.3,0,.6,0,.9S136.09,162.2,136.1,162.46Z" style="fill: #dcdcde"/>
              <path d="M175.76,169.3c-20.17,0-36.85-3.1-39.66-7.12a2.62,2.62,0,0,0,0,.28c.24,4.36,17.94,7.93,39.64,7.93,21.55,0,39.15-3.55,39.61-7.86,0,0,0-.12,0-.3C212.47,166.23,195.84,169.3,175.76,169.3Z" style="fill: #94989c"/>
            </g>
            <g>
              <path d="M136.1,159c.24,4.35,17.94,7.93,39.64,7.93,21.55,0,39.15-3.55,39.61-7.87a4.7,4.7,0,0,0-.07-1.92c-.46,4.31-18,7.78-39.54,7.78-21.7,0-39.31-3.51-39.55-7.86,0,0-.05.16-.06.21,0,.3,0,.61,0,.91S136.09,158.7,136.1,159Z" style="fill: #dcdcde"/>
              <path d="M175.76,165.8c-20.17,0-36.85-3.09-39.66-7.12a2.81,2.81,0,0,0,0,.29c.24,4.35,17.94,7.93,39.64,7.93,21.55,0,39.15-3.55,39.61-7.87,0,0,0-.12,0-.3C212.47,162.73,195.84,165.8,175.76,165.8Z" style="fill: #94989c"/>
            </g>
            <g>
              <path d="M136.1,166c.24,4.35,17.94,7.93,39.64,7.93,21.55,0,39.15-3.55,39.61-7.87a4.7,4.7,0,0,0-.07-1.92c-.46,4.32-18,7.79-39.54,7.79-21.7,0-39.31-3.52-39.55-7.87,0,0-.05.16-.06.22,0,.3,0,.6,0,.9S136.09,165.69,136.1,166Z" style="fill: #dcdcde"/>
              <path d="M175.76,172.8c-20.17,0-36.85-3.1-39.66-7.13a2.8,2.8,0,0,0,0,.29c.24,4.35,17.94,7.93,39.64,7.93,21.55,0,39.15-3.55,39.61-7.87,0,0,0-.11,0-.29C212.47,169.73,195.84,172.8,175.76,172.8Z" style="fill: #94989c"/>
            </g>
          </g>
        </g>
        <path d="M215.29,101.22V99.87a1.4,1.4,0,0,0,.06-.28v0h0V99.4a.25.25,0,0,1,0-.08v0h0a4.08,4.08,0,0,0-.1-1.57V86.78H176.55v94.1c21.08-.08,38.12-3.64,38.73-7.06h0v-.09a.38.38,0,0,0,0-.1.31.31,0,0,0,0-.1v-7.22a1.36,1.36,0,0,0,.06-.29h0V166h0a.25.25,0,0,1,0-.08v0a.28.28,0,0,1,0-.09v0a4.06,4.06,0,0,0-.1-1.57v-1.35a1.4,1.4,0,0,0,.06-.28v0h0v-.05h0v-.09a.38.38,0,0,1,0-.1v0a4.08,4.08,0,0,0-.1-1.57v-1.34a1.5,1.5,0,0,0,.06-.29v0h0v-.16a.28.28,0,0,1,0-.09v0a4.09,4.09,0,0,0-.1-1.57v-1.34a1.5,1.5,0,0,0,.06-.29v0h0v0h0a.25.25,0,0,1,0-.08v0a.28.28,0,0,1,0-.09v0a4.06,4.06,0,0,0-.1-1.57v-1.35a1.4,1.4,0,0,0,.06-.28v0h0v0h0v-.1a.34.34,0,0,1,0-.09v0a4.08,4.08,0,0,0-.1-1.57v-1.34a1.5,1.5,0,0,0,.06-.29v0h0v-.07a.2.2,0,0,1,0-.07v0a.28.28,0,0,1,0-.09v0a4.09,4.09,0,0,0-.1-1.57v-1.34a1.5,1.5,0,0,0,.06-.29h0V145h0v-.1a.25.25,0,0,1,0-.08v0h0a4.06,4.06,0,0,0-.1-1.57v-1.35a1.4,1.4,0,0,0,.06-.28v0h0v-.16a.25.25,0,0,1,0-.08v0h0a4.08,4.08,0,0,0-.1-1.57v-1.34a1.5,1.5,0,0,0,.06-.29v0h0v-.16a.28.28,0,0,1,0-.09v0h0a4.09,4.09,0,0,0-.1-1.57v-1.34a1.4,1.4,0,0,0,.06-.28v0h0v-.05h0v-.1a.25.25,0,0,1,0-.08v0h0a4.06,4.06,0,0,0-.1-1.57v-1.35a1.4,1.4,0,0,0,.06-.28v0h0v-.16a.25.25,0,0,1,0-.08v0h0a4.08,4.08,0,0,0-.1-1.57v-1.34a1.5,1.5,0,0,0,.06-.29v0h0v-.16a.28.28,0,0,1,0-.09v0h0a4.09,4.09,0,0,0-.1-1.57v-1.34a1.4,1.4,0,0,0,.06-.28v0h0v-.27h0a4.06,4.06,0,0,0-.1-1.57v-1.35a1.4,1.4,0,0,0,.06-.28v0h0v-.16a.25.25,0,0,1,0-.08v0h0a4.08,4.08,0,0,0-.1-1.57v-1.34a1.5,1.5,0,0,0,.06-.29v0h0v-.16a.28.28,0,0,1,0-.09v0h0a4.09,4.09,0,0,0-.1-1.57v-1.34a1.4,1.4,0,0,0,.06-.28v0h0v0h0v-.1a.25.25,0,0,1,0-.08v0h0a4.06,4.06,0,0,0-.1-1.57v-1.35a1.4,1.4,0,0,0,.06-.28v0h0v-.16a.25.25,0,0,1,0-.08v0h0a4.09,4.09,0,0,0-.1-1.57v-1.34a1.5,1.5,0,0,0,.06-.29v0h0v-.16a.28.28,0,0,1,0-.09v0h0a4,4,0,0,0-.1-1.56v-1.35a1.4,1.4,0,0,0,.06-.28v0h0v0h0v-.1a.25.25,0,0,1,0-.08v0h0A4.06,4.06,0,0,0,215.29,101.22Z" style="fill: #8c959d;opacity: 0.5;mix-blend-mode: multiply"/>
        <path d="M146.82,86.78v91.6c2.59.53,5.59,1,8.9,1.39v-93Z" style="fill: #bfc3c2;opacity: 0.5;mix-blend-mode: screen"/>
        <g>
          <g>
            <path d="M216,87.46v-2h-1.09c-4.18-3.55-20.06-6.2-39-6.2s-34.88,2.65-39,6.22h-1.07V87.4h0c.25,4.41,18.11,8,40.1,8s39.62-3.51,40.09-7.89Z" style="fill: #fff"/>
            <path d="M216,87.46v-2h-1.09c-4.18-3.55-20.06-6.2-39-6.2s-34.88,2.65-39,6.22h-1.07V87.4h0c.25,4.41,18.11,8,40.1,8s39.62-3.51,40.09-7.89Z" style="fill: #7e8286"/>
            <path d="M216,85.44h-1.09c-4.15-3.53-19.83-6.16-38.61-6.2V95.37c21.66,0,39.22-3.54,39.68-7.89l0,0Z" style="fill: #8c959d;opacity: 0.5;mix-blend-mode: multiply"/>
            <path d="M216,85.46c0,4.45-17.95,8.06-40.1,8.06s-40.1-3.61-40.1-8.06,17.95-8.07,40.1-8.07S216,81,216,85.46Z" style="fill: #b2b6ba"/>
            <path d="M214.37,85.25c0,4-17.22,7.26-38.47,7.26s-38.47-3.25-38.47-7.26S154.65,78,175.9,78s38.47,3.25,38.47,7.27Z" style="fill: #73767a"/>
            <path d="M213.45,85.57c0,3.84-16.81,6.94-37.55,6.94s-37.55-3.1-37.55-6.94,16.81-6.94,37.55-6.94,37.55,3.11,37.55,6.94Z" style="fill: #d2d5d4"/>
            <path d="M210.84,85.68c0,3.22-15.34,5.84-34.27,5.84s-34.26-2.62-34.26-5.84,15.34-5.84,34.26-5.84,34.27,2.61,34.27,5.84Z" style="fill: #94989c"/>
            <path d="M209.39,85.82c0,3-14.69,5.5-32.82,5.5s-32.81-2.46-32.81-5.5,14.69-5.5,32.81-5.5,32.82,2.46,32.82,5.5Z" style="fill: #d2d5d4"/>
            <path d="M204,85.82c0,2.26-11.59,4.09-25.88,4.09s-25.88-1.83-25.88-4.09,11.59-4.09,25.88-4.09S204,83.56,204,85.82Z" style="fill: #94989c"/>
            <path d="M202.94,86c0,2.08-11.1,3.77-24.79,3.77S153.36,88.08,153.36,86s11.1-3.78,24.79-3.78,24.79,1.69,24.79,3.78Z" style="fill: #d2d5d4"/>
          </g>
          <path d="M147,84.88c0,.57-.84,1.11-2,1.19s-2.08-.32-2.12-.89.84-1.11,2-1.19,2.08.32,2.12.89Z" style="fill: #fff"/>
          <g>
            <path d="M167.08,83.86a4.84,4.84,0,0,0-4-2.73c-3.49-.58-7.15.11-10.61.63s-7,.65-10.12,1.89c-1.57.6-2,2.48-.66,3.23,1.92,1.1,12,2.34,14.75,2.52a44.06,44.06,0,0,0,4.45.09,12.23,12.23,0,0,0,3.7-.58,3.92,3.92,0,0,0,2.4-1.76,4.78,4.78,0,0,0,.07-3.29Zm-2,2.36A2.29,2.29,0,0,1,164,87.55a3.49,3.49,0,0,1-1.54.34,11.8,11.8,0,0,1-1.87-.11c-.52-.08-1-.2-1.57-.3-1.43-.27-6.75-1.39-4.21-3.83a5.74,5.74,0,0,1,3.36-1.17c1.65-.2,3.43-.56,5,0A2.49,2.49,0,0,1,165,84.18a4.41,4.41,0,0,1,.09,2Z" style="fill: #73767a"/>
            <path d="M167.08,82.91a4.84,4.84,0,0,0-4-2.73c-3.49-.59-7.15.1-10.61.63s-7,.65-10.12,1.88c-1.57.61-2,2.49-.66,3.24,1.92,1.1,12,2.34,14.75,2.52a44.06,44.06,0,0,0,4.45.09,12.88,12.88,0,0,0,3.7-.58A3.92,3.92,0,0,0,167,86.2a4.78,4.78,0,0,0,.07-3.29Zm-2,2.36A2.23,2.23,0,0,1,164,86.59a3.37,3.37,0,0,1-1.54.35,11.82,11.82,0,0,1-1.87-.12c-.52-.07-1-.19-1.57-.29-1.43-.28-6.75-1.39-4.21-3.83a5.74,5.74,0,0,1,3.36-1.17c1.65-.2,3.43-.57,5,0A2.49,2.49,0,0,1,165,83.23a4.41,4.41,0,0,1,.09,2Z" style="fill: #b0b3b3"/>
            <g>
              <path d="M147.4,84.33c0,.61-.94,1.13-2.14,1.17s-2.19-.42-2.21-1,.94-1.14,2.14-1.18,2.19.43,2.21,1Z" style="fill: #73767a"/>
              <path d="M147.39,83.94c.05.61-.89,1.17-2.09,1.26s-2.2-.34-2.25-1,.89-1.17,2.09-1.26,2.21.34,2.25,1Z" style="fill: #d2d5d4"/>
            </g>
          </g>
        </g>
      </g>
    </g>
  </g>
</svg>
