<svg xmlns="http://www.w3.org/2000/svg" xmlns:xlink="http://www.w3.org/1999/xlink" viewBox="0 0 256 256">
  <defs>
    <clipPath id="clip-path">
      <path id="SVGID" d="M197,93.41c-9.58,3.52-23.19,5.71-38.25,5.71s-28.66-2.19-38.25-5.71c9.59-3.54,23.18-5.74,38.25-5.74S187.46,89.87,197,93.41Z" style="fill: none"/>
    </clipPath>
    <clipPath id="clip-path-2">
      <path id="SVGID-2" data-name="SVGID" d="M146.43,155.49c-3-8.7-13.75-7.8-18.44-6.94,0-.29,2.06-20.57,2.09-20.8.46-5-3-6.07-3-6.07s-9.69-4.34-39.72-4.34h-.19c-30,0-39.73,4.34-39.73,4.34s-3.47,1.08-3,6.07c.43,4.76,3.8,37.77,10.45,48.37a27.7,27.7,0,0,0,15.82,11.76,61,61,0,0,0,16.47,2.59h.19a61,61,0,0,0,16.46-2.59,28.18,28.18,0,0,0,12.43-7.45c2.66-.55,5.8-1.05,9.57-1.45,7.75-.82,13.14-2.76,16.64-5.45C148.25,169.06,148.85,162.5,146.43,155.49Zm-19.41.12c4.1-2.93,13.78-5,16.06,3.24a8.71,8.71,0,0,1-.19,5.61c-2.15,5.57-10,8.47-14.39,9a8,8,0,0,1-6.46-1.73A63.13,63.13,0,0,0,127,155.61Z" style="fill: none"/>
    </clipPath>
    <clipPath id="clip-path-3">
      <path id="SVGID-3" data-name="SVGID" d="M116.22,128.83a193.7,193.7,0,0,1-28.89,1.89,194,194,0,0,1-28.9-1.89,192.53,192.53,0,0,1,28.9-1.9A192.19,192.19,0,0,1,116.22,128.83Z" style="fill: none"/>
    </clipPath>
  </defs>
  <g style="isolation: isolate">
    <g id="Layer_1" data-name="Layer 1">
      <rect x="-0.29" y="0.11" width="256" height="256" rx="64.77" style="fill: #f4f4f4"/>
      <g>
        <path d="M158,72.43c-27.87,0-50.47,6.58-50.47,14.7a4.61,4.61,0,0,0,.2,1.27l12.09,77c0,6.62,17.1,12,38.18,12s38.18-5.37,38.18-12l12.09-77a4.61,4.61,0,0,0,.2-1.27C208.48,79,185.88,72.43,158,72.43Z" style="fill: #539e99"/>
        <path d="M208.48,87.13c0-7.9-21.39-14.34-48.22-14.68C133.43,72.79,112,79.23,112,87.13a4.26,4.26,0,0,0,.2,1.27l12.09,77c0,6.38,15.89,11.6,35.93,12,20-.37,35.93-5.59,35.93-12l12.09-77A4.61,4.61,0,0,0,208.48,87.13Z" style="fill: #7cb6b2"/>
        <ellipse cx="158.01" cy="87.13" rx="50.47" ry="14.7" style="fill: #a7cdca"/>
        <path d="M235.12,121.76c-8.26,15.47-34.52,32.29-37.25,32.84s-1.72-4-1.68-9.63,3.25-12.39,4.69-9.5a6.1,6.1,0,0,0,.37.67c1.47,2.33,3.93,2.73,11.85-2.78C219,129.23,230,120,232.26,111.8a8.47,8.47,0,0,0-3.61-10c-12.38-8.71-20.89,8.12-23.85,8.7s-2.06-9.86-2.06-13,4.84-4.68,4.84-4.68c1.35,4.23,9.66-2.48,19.13,0S243.36,106.28,235.12,121.76Z" style="fill: #539e99"/>
        <path d="M226.71,92.9c-5.48-1.43-10.55.2-14.14,1,0,.49.05,1,.05,1.48a4.3,4.3,0,0,1-.94,3.22,9.69,9.69,0,0,1-1.37.88,5.68,5.68,0,0,0-2.31,5,9.23,9.23,0,0,0,.52,2.65c4.28-4.61,11.19-11.63,20.13-5.34a8.47,8.47,0,0,1,3.61,10C230,120,219,129.23,213.1,133.36a45.4,45.4,0,0,1-5,3.08,5.31,5.31,0,0,1-.62,3.05,12.67,12.67,0,0,1-1.47,1.46,6.8,6.8,0,0,0-1.59,3.59,14.21,14.21,0,0,0,.34,6.15c9.11-6,24.38-17.8,30.32-28.93C243.36,106.28,236.2,95.39,226.71,92.9Z" style="fill: #deb000"/>
        <path d="M138.94,103.06a101.35,101.35,0,0,1-17.2-3.4l8.93,70.75A68.79,68.79,0,0,0,142.13,173Z" style="fill: #a7cdca"/>
        <ellipse cx="158.01" cy="87.13" rx="46" ry="11.99" style="fill: #44847f"/>
        <path d="M232.27,111.79c-2.76,17.87-31.86,34.14-32.46,30.5-.34-2.06.58-4.46,1.44-6.15,1.47,2.33,3.93,2.73,11.85-2.78C219,129.23,230,120,232.26,111.8Z" style="fill: #44847f;opacity: 0.5;mix-blend-mode: multiply"/>
        <g style="opacity: 0.5;mix-blend-mode: screen">
          <path d="M204.8,97.19a5.84,5.84,0,0,0,4.59,1.65A9.13,9.13,0,0,0,213.86,97a15.37,15.37,0,0,1,2.29-1.49,12.21,12.21,0,0,1,2.66-.94,15,15,0,0,1,10.81,1.66,12.71,12.71,0,0,1,4,3.84,13,13,0,0,1,1.44,10.48A14.73,14.73,0,0,0,232.4,101a12.89,12.89,0,0,0-8.33-4.62,13.74,13.74,0,0,0-4.87.05,10.25,10.25,0,0,0-2.31.69,18.28,18.28,0,0,0-2.19,1.21,9.5,9.5,0,0,1-5.31,1.52A5.8,5.8,0,0,1,204.8,97.19Z" style="fill: #dae3c9"/>
        </g>
        <path d="M197.23,93.41c-9,3.52-24.34,5.71-38.44,5.71s-29.47-2.19-38.45-5.71c9-3.54,24.34-5.74,38.45-5.74S188.27,89.87,197.23,93.41Z" style="fill: #402700"/>
        <g style="clip-path: url(#clip-path)">
          <g style="opacity: 0.30000000000000004;mix-blend-mode: screen">
            <path d="M174.12,93.2a2,2,0,1,1-2-2.16A2.09,2.09,0,0,1,174.12,93.2Z" style="fill: #ded9d6"/>
            <path d="M168.05,90.49a2,2,0,1,1-2-2.15A2.1,2.1,0,0,1,168.05,90.49Z" style="fill: #ded9d6"/>
            <path d="M180.4,94.77a1.42,1.42,0,1,1-1.42-1.5A1.46,1.46,0,0,1,180.4,94.77Z" style="fill: #ded9d6"/>
            <ellipse cx="169.66" cy="90.33" rx="1.41" ry="1.5" style="fill: #ded9d6"/>
            <path d="M163.66,89.78a1.41,1.41,0,1,1-1.41-1.49A1.46,1.46,0,0,1,163.66,89.78Z" style="fill: #ded9d6"/>
            <path d="M151,89.92a1.42,1.42,0,1,1-1.41-1.49A1.46,1.46,0,0,1,151,89.92Z" style="fill: #ded9d6"/>
            <path d="M148,90.09a1.41,1.41,0,1,1-1.41-1.49A1.46,1.46,0,0,1,148,90.09Z" style="fill: #ded9d6"/>
            <path d="M132.66,93a1.41,1.41,0,1,1-1.41-1.49A1.46,1.46,0,0,1,132.66,93Z" style="fill: #ded9d6"/>
            <ellipse cx="185.4" cy="97.3" rx="1.41" ry="1.5" style="fill: #ded9d6"/>
            <path d="M182.6,94.92a1,1,0,1,1-1-1.07A1,1,0,0,1,182.6,94.92Z" style="fill: #ded9d6"/>
            <path d="M188,92.61a1.41,1.41,0,1,1-1.41-1.49A1.46,1.46,0,0,1,188,92.61Z" style="fill: #ded9d6"/>
            <path d="M184.34,95.81a.73.73,0,0,1-.71.75.75.75,0,0,1,0-1.5A.73.73,0,0,1,184.34,95.81Z" style="fill: #ded9d6"/>
            <ellipse cx="183.92" cy="93.62" rx="1" ry="1.06" style="fill: #ded9d6"/>
            <path d="M168.56,93.76a1,1,0,1,1-1-1.05A1,1,0,0,1,168.56,93.76Z" style="fill: #ded9d6"/>
            <path d="M166.38,93.85a1,1,0,1,1-1-1.06A1,1,0,0,1,166.38,93.85Z" style="fill: #ded9d6"/>
            <path d="M183.31,92.24a.71.71,0,1,1-.71-.74A.73.73,0,0,1,183.31,92.24Z" style="fill: #ded9d6"/>
            <path d="M188,95.06a.71.71,0,1,1-.71-.75A.73.73,0,0,1,188,95.06Z" style="fill: #ded9d6"/>
            <path d="M188.53,96.64a.71.71,0,1,1-.71-.75A.73.73,0,0,1,188.53,96.64Z" style="fill: #ded9d6"/>
            <path d="M195.49,94.94a.73.73,0,0,1-.71.75.75.75,0,0,1,0-1.5A.73.73,0,0,1,195.49,94.94Z" style="fill: #ded9d6"/>
            <path d="M194.78,93.2a.73.73,0,0,1-.7.75.75.75,0,0,1,0-1.5A.73.73,0,0,1,194.78,93.2Z" style="fill: #ded9d6"/>
            <path d="M185,91.77a.73.73,0,0,1-.7.75.75.75,0,0,1,0-1.5A.73.73,0,0,1,185,91.77Z" style="fill: #ded9d6"/>
            <path d="M173.23,89.55a.73.73,0,0,1-.7.75.75.75,0,0,1,0-1.5A.72.72,0,0,1,173.23,89.55Z" style="fill: #ded9d6"/>
            <path d="M160.86,89a.72.72,0,0,1-.7.74.75.75,0,1,1,.7-.74Z" style="fill: #ded9d6"/>
            <path d="M156.76,88.92a.71.71,0,1,1-.71-.75A.73.73,0,0,1,156.76,88.92Z" style="fill: #ded9d6"/>
            <path d="M155.1,88.92a.73.73,0,0,1-.7.75.75.75,0,0,1,0-1.5A.73.73,0,0,1,155.1,88.92Z" style="fill: #ded9d6"/>
            <path d="M153.43,89a.73.73,0,0,1-.71.74.75.75,0,0,1,0-1.49A.73.73,0,0,1,153.43,89Z" style="fill: #ded9d6"/>
            <ellipse cx="148.02" cy="91.72" rx="0.71" ry="0.75" style="fill: #ded9d6"/>
            <path d="M144.83,89.65a.73.73,0,0,1-.71.74.75.75,0,0,1,0-1.49A.73.73,0,0,1,144.83,89.65Z" style="fill: #ded9d6"/>
            <path d="M134.07,91.87a.73.73,0,0,1-.7.75.75.75,0,0,1,0-1.5A.73.73,0,0,1,134.07,91.87Z" style="fill: #ded9d6"/>
            <path d="M129.64,92.41a.72.72,0,0,1-.7.75.75.75,0,0,1,0-1.49A.72.72,0,0,1,129.64,92.41Z" style="fill: #ded9d6"/>
            <path d="M128,92.62a.73.73,0,0,1-.71.75.75.75,0,0,1,0-1.5A.73.73,0,0,1,128,92.62Z" style="fill: #ded9d6"/>
            <path d="M125.4,92.84a.73.73,0,0,1-.7.75.75.75,0,0,1,0-1.5A.73.73,0,0,1,125.4,92.84Z" style="fill: #ded9d6"/>
            <path d="M126.81,94.33a.72.72,0,0,1-.7.74.75.75,0,1,1,.7-.74Z" style="fill: #ded9d6"/>
            <path d="M124.13,94.13a.72.72,0,0,1-.7.75.75.75,0,0,1,0-1.49A.72.72,0,0,1,124.13,94.13Z" style="fill: #ded9d6"/>
            <path d="M128.94,94a.73.73,0,0,1-.71.75.75.75,0,0,1,0-1.5A.73.73,0,0,1,128.94,94Z" style="fill: #ded9d6"/>
            <path d="M142.51,89.76a.71.71,0,1,1-.71-.74A.73.73,0,0,1,142.51,89.76Z" style="fill: #ded9d6"/>
            <path d="M183,90.47a.25.25,0,1,1-.49,0,.25.25,0,1,1,.49,0Z" style="fill: #ded9d6"/>
            <path d="M189.11,92.08a.4.4,0,1,1-.4-.43A.41.41,0,0,1,189.11,92.08Z" style="fill: #ded9d6"/>
            <path d="M174,90.51a.41.41,0,1,1-.81,0,.41.41,0,1,1,.81,0Z" style="fill: #ded9d6"/>
            <path d="M169.66,94.13a.4.4,0,1,1-.4-.42A.41.41,0,0,1,169.66,94.13Z" style="fill: #ded9d6"/>
            <path d="M159.11,88.71a.4.4,0,1,1-.4-.43A.41.41,0,0,1,159.11,88.71Z" style="fill: #ded9d6"/>
            <path d="M140.9,89.5a.4.4,0,1,1-.4-.42A.41.41,0,0,1,140.9,89.5Z" style="fill: #ded9d6"/>
            <path d="M141.09,90.65a.4.4,0,1,1-.4-.43A.41.41,0,0,1,141.09,90.65Z" style="fill: #ded9d6"/>
            <path d="M135,91.45a.41.41,0,0,1-.4.42.43.43,0,1,1,.4-.42Z" style="fill: #ded9d6"/>
            <path d="M130.05,94.33a.41.41,0,1,1-.41-.43A.41.41,0,0,1,130.05,94.33Z" style="fill: #ded9d6"/>
            <ellipse cx="125.91" cy="92.41" rx="0.4" ry="0.43" style="fill: #ded9d6"/>
            <ellipse cx="122.14" cy="93.4" rx="0.4" ry="0.43" style="fill: #ded9d6"/>
            <path d="M130.64,91.12a.4.4,0,1,1-.4-.42A.41.41,0,0,1,130.64,91.12Z" style="fill: #ded9d6"/>
            <ellipse cx="163.98" cy="88.71" rx="0.4" ry="0.43" style="fill: #ded9d6"/>
            <path d="M160.56,90.52a.41.41,0,1,1-.81,0,.41.41,0,1,1,.81,0Z" style="fill: #ded9d6"/>
            <path d="M158,88.78a.4.4,0,1,1-.4-.43A.41.41,0,0,1,158,88.78Z" style="fill: #ded9d6"/>
            <path d="M155.63,90.09a.4.4,0,1,1-.4-.42A.41.41,0,0,1,155.63,90.09Z" style="fill: #ded9d6"/>
            <path d="M151.78,88.71a.4.4,0,1,1-.4-.43A.41.41,0,0,1,151.78,88.71Z" style="fill: #ded9d6"/>
            <path d="M148.29,88.71a.4.4,0,1,1-.4-.43A.41.41,0,0,1,148.29,88.71Z" style="fill: #ded9d6"/>
            <ellipse cx="153.69" cy="90.09" rx="0.4" ry="0.43" style="fill: #ded9d6"/>
            <ellipse cx="144.76" cy="91.28" rx="0.4" ry="0.43" style="fill: #ded9d6"/>
            <path d="M143.42,89.34a.41.41,0,1,1-.41-.43A.41.41,0,0,1,143.42,89.34Z" style="fill: #ded9d6"/>
            <ellipse cx="174.12" cy="89.55" rx="0.4" ry="0.43" style="fill: #ded9d6"/>
            <ellipse cx="192.25" cy="92.33" rx="0.4" ry="0.43" style="fill: #ded9d6"/>
            <path d="M183.85,90.52a.25.25,0,1,1-.49,0,.25.25,0,1,1,.49,0Z" style="fill: #ded9d6"/>
            <path d="M172.79,98.05a.73.73,0,0,1-.7.75.75.75,0,0,1,0-1.5A.73.73,0,0,1,172.79,98.05Z" style="fill: #ded9d6"/>
            <ellipse cx="169.97" cy="96.56" rx="1.41" ry="1.5" style="fill: #ded9d6"/>
            <path d="M181.75,91.42a1.62,1.62,0,1,1-1.62-1.72A1.67,1.67,0,0,1,181.75,91.42Z" style="fill: #ded9d6"/>
            <path d="M183.85,98.42a2,2,0,1,1-2-2.16A2.09,2.09,0,0,1,183.85,98.42Z" style="fill: #ded9d6"/>
            <path d="M177.31,96.64a2,2,0,1,1-2-2.15A2.11,2.11,0,0,1,177.31,96.64Z" style="fill: #ded9d6"/>
            <path d="M178.19,91.61a2,2,0,1,1-2-2.16A2.09,2.09,0,0,1,178.19,91.61Z" style="fill: #ded9d6"/>
            <path d="M192.38,94.49a2,2,0,1,1-2-2.16A2.09,2.09,0,0,1,192.38,94.49Z" style="fill: #ded9d6"/>
          </g>
        </g>
      </g>
      <g>
        <path d="M107.54,188c0,3.45-9,6.25-20.21,6.25a58,58,0,0,1-10-.81,38.55,38.55,0,0,1-4.42-1c-3.61-1.13-5.84-2.69-5.84-4.4,0-3.45,9.06-6.25,20.22-6.25S107.54,184.55,107.54,188Z" style="fill: #374591"/>
        <path d="M77.37,193.44a38.55,38.55,0,0,1-4.42-1,1.93,1.93,0,0,1,1.63-1.93C76.36,190.05,77.1,192.2,77.37,193.44Z" style="fill: #003380"/>
        <path d="M146.43,155.49c-3-8.7-13.75-7.8-18.44-6.94,0-.29,2.06-20.57,2.09-20.8.46-5-3-6.07-3-6.07s-9.69-4.34-39.72-4.34h-.19c-30,0-39.73,4.34-39.73,4.34s-3.47,1.08-3,6.07c.43,4.76,3.8,37.77,10.45,48.37a27.7,27.7,0,0,0,15.82,11.76,61,61,0,0,0,16.47,2.59h.19a61,61,0,0,0,16.46-2.59,28.18,28.18,0,0,0,12.43-7.45c2.66-.55,5.8-1.05,9.57-1.45,7.75-.82,13.14-2.76,16.64-5.45C148.25,169.06,148.85,162.5,146.43,155.49Zm-19.41.12c4.1-2.93,13.78-5,16.06,3.24a8.71,8.71,0,0,1-.19,5.61c-2.15,5.57-10,8.47-14.39,9a8,8,0,0,1-6.46-1.73A63.13,63.13,0,0,0,127,155.61Z" style="fill: #6674a9"/>
        <path d="M143.45,153.81a13.36,13.36,0,0,1-1,19.72c-3.5,2.69-8.89,4.63-16.64,5.45-3.77.4-6.91.9-9.57,1.45,0,0,3.37-2.88,4.41-5.07,0,0,14,2.24,20.26-5.41a11.59,11.59,0,0,0,2.19-11.1c-2.28-8.21-12-6.17-16.06-3.24l.84-4.34S137.29,147.21,143.45,153.81Z" style="fill: #374591"/>
        <g style="clip-path: url(#clip-path-2)">
          <g>
            <path d="M46.92,155c-.17-2.14-.07-4.3,1.83-5.65a5.75,5.75,0,0,1,5.38-.57c1.67.62,3.94,2.16,4.26,4.06a3.84,3.84,0,0,1-2.16,3.87,4.45,4.45,0,0,1-2.88.23,8.22,8.22,0,0,1-1.44-.51c-.51-.21-.92-.57-1.4-.81a.53.53,0,0,0-.72.71,5,5,0,0,0,2.77,2,6,6,0,0,0,3.51.11,5.29,5.29,0,0,0,3.8-4.81c.1-2.48-2-4.43-4-5.54a7.27,7.27,0,0,0-6.85-.33,5.41,5.41,0,0,0-2.55,2.68,9,9,0,0,0-.32,4.54c.05.49.81.51.77,0Z" style="fill: #003178"/>
            <path d="M48.77,149a16,16,0,0,1-2.27-6.67c-.07-2,.59-4.25,2.34-5.36,2.4-1.51,3.73,2.47,4.06,4.12a17.61,17.61,0,0,1,.3,3.55,7.07,7.07,0,0,1-.13,1.66,15,15,0,0,0-.46,1.44.57.57,0,0,0,.71.54c1-.38,1.18-1.55,1.27-2.49a17.1,17.1,0,0,0-.07-3.43c-.21-2.08-.74-4.54-2.3-6.06a3.49,3.49,0,0,0-2.83-1,4.26,4.26,0,0,0-2.57,1.66,7.92,7.92,0,0,0-1.61,5.4,15.64,15.64,0,0,0,2.68,7.19.51.51,0,0,0,.88-.52Z" style="fill: #003178"/>
            <path d="M54.12,148.17A11.82,11.82,0,0,1,56,142c.9-1.42,3.09-4.23,5.07-3.33s2.14,3.55,1.62,5.28a7.47,7.47,0,0,1-1.49,2.63A22.28,22.28,0,0,0,59,148.94a.54.54,0,0,0,.61.78A5.67,5.67,0,0,0,62,148a9.43,9.43,0,0,0,1.71-2.52,7,7,0,0,0,.18-5.66c-.81-1.89-2.67-3.26-4.76-2.53a9.1,9.1,0,0,0-4.41,4.23A13.13,13.13,0,0,0,53,148.17a.55.55,0,0,0,1.1,0Z" style="fill: #003178"/>
            <path d="M59,150.76A27.67,27.67,0,0,0,61.32,149a9.59,9.59,0,0,1,2.73-1.23,6.6,6.6,0,0,1,3.15-.22c1,.21,2,1,1.85,2.06a4.92,4.92,0,0,1-1.83,2.54,15.65,15.65,0,0,1-2.48,1.87A15.23,15.23,0,0,1,62,155.41c-.49.18-1,.33-1.48.48-.29.09-.95.42-1.25.24a.53.53,0,0,0-.77.59c.33,1,1.29.95,2.15.81a12.92,12.92,0,0,0,3.06-1,16.11,16.11,0,0,0,5.2-3.72,5.84,5.84,0,0,0,1.66-2.75,3.14,3.14,0,0,0-.86-2.76c-1.52-1.6-4.06-1.41-6-.83a10.21,10.21,0,0,0-3,1.49,5.16,5.16,0,0,0-2.11,2.51.27.27,0,0,0,.4.3Z" style="fill: #003178"/>
            <path d="M46.81,157.27a32.44,32.44,0,0,0-.23,6.15,10,10,0,0,0,1.52,5.37c.95,1.28,2.68,2.42,4.33,1.86s2.17-2.36,2.53-3.86a27.63,27.63,0,0,0,.59-3.37,8.61,8.61,0,0,0-.09-3.61.57.57,0,0,0-1.09,0c-.51,1.75-.09,11.37-4,9.12-1.68-1-2.17-3.05-2.47-4.81a24.58,24.58,0,0,1-.26-6.74c.05-.46-.75-.58-.81-.11Z" style="fill: #003178"/>
            <path d="M54.72,160.58a8.46,8.46,0,0,0,2.76,4.66c1.22,1.09,3.28,2.3,4.73.87s1.47-3.67.94-5.39a8.2,8.2,0,0,0-1.38-2.57,5.22,5.22,0,0,0-2.12-1.92.67.67,0,0,0-.75,1,8.92,8.92,0,0,0,1.45,1.63,7.88,7.88,0,0,1,1.18,1.89,4.44,4.44,0,0,1-.2,4.26c-.91,1.18-2.78-.42-3.52-1.08a12.56,12.56,0,0,1-2.6-3.53c-.15-.28-.54-.07-.49.21Z" style="fill: #003178"/>
            <path d="M48.56,154.73c.62-.81,1.29-1.59,2-2.34a9.7,9.7,0,0,0,1.82-2.13.34.34,0,0,0-.46-.46,6.85,6.85,0,0,0-2.2,2.09c-.64.78-1.25,1.6-1.83,2.44-.3.43.38.8.69.4Z" style="fill: #003178"/>
            <path d="M50.73,155.62l1.89-2.1a6.11,6.11,0,0,0,1.52-2,.34.34,0,0,0-.5-.37c-.72.31-1.27,1.2-1.77,1.79L50.11,155c-.36.42.24,1,.62.62Z" style="fill: #003178"/>
            <path d="M52.75,156.47a14.78,14.78,0,0,0,2.69-3.37c.1-.23-.13-.55-.38-.38a14.58,14.58,0,0,0-2.85,3.21c-.3.38.21.92.54.54Z" style="fill: #003178"/>
            <path d="M48.71,151.92c.88.68,1.76,1.37,2.61,2.09.37.32.74.63,1.11,1a6.54,6.54,0,0,0,1.2,1c.25.13.6-.15.42-.41a12,12,0,0,0-2.46-2.13c-.85-.67-1.72-1.33-2.6-2-.29-.22-.56.26-.28.48Z" style="fill: #003178"/>
            <path d="M50.52,149.75a36.4,36.4,0,0,0,4.23,3.2c.12.08.25-.09.15-.2a36.92,36.92,0,0,0-4.14-3.32c-.17-.13-.42.18-.24.32Z" style="fill: #003178"/>
            <path d="M61.66,157.46a5.11,5.11,0,0,1,4.5-.78,16.16,16.16,0,0,1,4.71,2.45,15.45,15.45,0,0,0,4.84,2.19,13.46,13.46,0,0,0,5.4.1l-.73-.73a18.86,18.86,0,0,1-2.19,6.11,10,10,0,0,1-5.64,3.8,16.41,16.41,0,0,1-7.15,1.15A11.24,11.24,0,0,1,60,169.47a15.17,15.17,0,0,1-4.09-5.23c-.22-.42-1-.25-.93.25.53,4.51,4.89,7.95,9.12,8.82a15.12,15.12,0,0,0,7.87-.79c2.43-.8,5-1.79,6.65-3.85s2.32-5,2.88-7.67a.61.61,0,0,0-.74-.73A12,12,0,0,1,75,160a23,23,0,0,1-5.15-2.71c-2.51-1.51-6.3-2.85-8.59-.22a.28.28,0,0,0,.39.39Z" style="fill: #003178"/>
            <path d="M61.65,159.88c.49.28,1.06.4,1.56.67a10.87,10.87,0,0,1,1.41.9,30.92,30.92,0,0,0,3,2.13,11.14,11.14,0,0,0,3.28,1.28,4.74,4.74,0,0,0,3.38-.29.5.5,0,0,0-.25-.92c-.55-.06-1.13,0-1.69,0a7.58,7.58,0,0,1-1.71-.24A11.44,11.44,0,0,1,67.4,162c-1-.61-1.86-1.31-2.84-1.87a3.9,3.9,0,0,0-2.84-.72.28.28,0,0,0-.07.5Z" style="fill: #003178"/>
            <path d="M65.09,161.86a16.52,16.52,0,0,0,2.16,4.45,9.73,9.73,0,0,0,1.59,1.74,3.24,3.24,0,0,0,2,.93c.22,0,.44-.27.28-.49a7.08,7.08,0,0,0-1.51-1.26,10.59,10.59,0,0,1-1.56-1.58,15,15,0,0,1-2.2-4c-.19-.49-1-.29-.81.23Z" style="fill: #003178"/>
            <path d="M54.64,164.62a8.63,8.63,0,0,0,1,3.59,15.73,15.73,0,0,1,.91,3.71,15.45,15.45,0,0,1,0,3.66c-.08.63-.2,1.27-.34,1.9a4.19,4.19,0,0,0-.26,1.78.46.46,0,0,0,.77.21,3.17,3.17,0,0,0,.77-1.64,12.33,12.33,0,0,0,.36-1.81,16.15,16.15,0,0,0,0-4,15.24,15.24,0,0,0-.92-3.72c-.51-1.26-1.38-2.43-1.57-3.79-.06-.43-.7-.29-.73.1Z" style="fill: #003178"/>
            <path d="M57.54,169.22A7.52,7.52,0,0,0,60,178c1.48,1.13,3.68,1.76,5.27.47a2.44,2.44,0,0,0-.4-4.11,1.88,1.88,0,0,0-2.29.61,1.51,1.51,0,0,0,.17,2.13.5.5,0,0,0,.75-.43c0-.5-.13-1.31.64-1.28s1,1,.69,1.64c-.95,1.65-3.26.66-4.37-.22a7.63,7.63,0,0,1-2.52-7.51c.07-.25-.28-.33-.37-.1Z" style="fill: #003178"/>
            <path d="M56.6,124.74c-2-.62-4.13-1.14-6.15-.44a5,5,0,0,0-3.27,4c-.34,1.78-.31,4,1.44,5.07s3.7-.35,4.17-2.08a2.25,2.25,0,0,0-.78-2.44,1.72,1.72,0,0,0-2.19,0c-.44.38.12,1,.59.77a.89.89,0,0,1,1.2.89,2,2,0,0,1-1.36,1.7,1.5,1.5,0,0,1-1.66-1,4.66,4.66,0,0,1-.17-2.54A4.09,4.09,0,0,1,51,125.29a9.26,9.26,0,0,1,5.39.08.33.33,0,0,0,.18-.63Z" style="fill: #003178"/>
            <path d="M77.33,138.4c-1,2.76-2.16,6.46.31,8.84,2.11,2,5.79,1.56,8,0a7.07,7.07,0,0,0,2.67-7.46,6.47,6.47,0,0,0-6.44-5.08,6,6,0,0,0-4.3,2.46,6.63,6.63,0,0,0-1.38,5.12.57.57,0,0,0,1.1,0,17,17,0,0,1,1.21-3.76,4.81,4.81,0,0,1,2.7-2.19c2.4-.7,4.81,1.08,5.6,3.29a5.73,5.73,0,0,1-7.9,7.12c-2.87-1.67-1.66-5.65-.8-8.09.16-.48-.59-.68-.77-.21Z" style="fill: #003178"/>
            <path d="M79.94,137.44c-.39,1.07-.76,2.16-1.09,3.25-.17.54-.33,1.09-.48,1.64a2.6,2.6,0,0,0-.17,1.4.34.34,0,0,0,.57.15,2.7,2.7,0,0,0,.51-1.3c.14-.55.29-1.1.44-1.65.31-1.1.65-2.19,1-3.27.18-.51-.61-.71-.79-.22Z" style="fill: #003178"/>
            <path d="M82.47,138.07l-1.2,2.82a7.06,7.06,0,0,0-.94,2.62.4.4,0,0,0,.68.29,7.07,7.07,0,0,0,1.22-2.51l1.18-2.83c.22-.53-.71-.92-.94-.39Z" style="fill: #003178"/>
            <path d="M83.87,139.1c-.29,1-.58,1.94-.88,2.91a7.5,7.5,0,0,0-.63,2.81c0,.27.39.52.61.25a7,7,0,0,0,1-2.66l.87-3c.19-.63-.79-.89-1-.27Z" style="fill: #003178"/>
            <path d="M77.77,140.64l3.35,1.05a13,13,0,0,0,3.22.85.27.27,0,0,0,.13-.51,13.13,13.13,0,0,0-3.14-1.09l-3.37-1c-.44-.13-.63.56-.19.7Z" style="fill: #003178"/>
            <path d="M79,138.3c1.24.48,2.46,1,3.66,1.55l1.74.85a2.1,2.1,0,0,0,1.49.4.39.39,0,0,0,.27-.48c-.2-.57-.74-.77-1.27-1l-1.79-.79c-1.27-.53-2.54-1-3.84-1.46-.6-.2-.83.72-.26.94Z" style="fill: #003178"/>
            <path d="M83,135a16.76,16.76,0,0,1-.73-5.93c.11-1.78.69-3.73,2.29-4.73a3.36,3.36,0,0,1,4.31.77,5.37,5.37,0,0,1,.92,5c-.54,2.14-2,3.66-3.15,5.47-.38.6.45,1.16.94.73,3.07-2.73,5.45-8.26,2.53-11.88A4.91,4.91,0,0,0,85,122.58a6,6,0,0,0-3.83,4.57,13.71,13.71,0,0,0,.81,8.1c.25.63,1.25.4,1-.29Z" style="fill: #003178"/>
            <path d="M81.73,134.57c.46-2.46-1.28-4.86-2.73-6.69a8.68,8.68,0,0,0-6.07-3.59c-4.67-.29-7.15,5-5.26,8.91a7.16,7.16,0,0,0,5.7,4.07.49.49,0,0,0,.25-.91,10.81,10.81,0,0,1-4.16-3,5.17,5.17,0,0,1-.77-4.73,4.19,4.19,0,0,1,3.53-3,6.63,6.63,0,0,1,5.23,2.49,21.21,21.21,0,0,1,2,2.71,7,7,0,0,1,1.4,3.52c0,.49.79.64.89.12Z" style="fill: #003178"/>
            <path d="M73.43,137c-1.76-.73-3.83-1.52-5.73-.82a6.31,6.31,0,0,0-3.55,3.61,4.83,4.83,0,0,0,.93,4.85A7.3,7.3,0,0,0,70,147c1.56.18,4.36.12,4.91-1.78.15-.5-.39-.79-.8-.61s-.66.37-1,.5a5.06,5.06,0,0,1-1.16.29,8.82,8.82,0,0,1-2.46-.09,4.87,4.87,0,0,1-4-3.06c-.52-1.7.56-3.47,1.94-4.42,1.81-1.24,3.87-.58,5.76.09.59.21.8-.68.25-.91Z" style="fill: #003178"/>
            <path d="M74.78,145.31c-.41-.86-1.47-.06-1.92.33a7.72,7.72,0,0,0-1.92,2.51,6.69,6.69,0,0,0-.32,5.69,3.93,3.93,0,0,0,5.24,1.74,8.58,8.58,0,0,0,2.81-2,6.76,6.76,0,0,0,1.9-2.77c.08-.32-.3-.69-.61-.47a16.33,16.33,0,0,0-1.72,1.71,13.45,13.45,0,0,1-2,1.6c-1.27.82-3.16,1.31-4.14-.2a5,5,0,0,1-.25-4.08,7.44,7.44,0,0,1,1-2,6.83,6.83,0,0,1,.81-1c.1-.1.64-.74.79-.69a.29.29,0,0,0,.33-.43Z" style="fill: #003178"/>
            <path d="M80.1,150a7.78,7.78,0,0,0,.89,4.74,7.16,7.16,0,0,0,3.63,3.36c4.34,1.7,6.07-4,5.93-7.24-.07-1.74-.63-4.55-2.66-5a.62.62,0,0,0-.6,1,5.17,5.17,0,0,1,1.35,2.1,8.5,8.5,0,0,1,.3,2.88,9,9,0,0,1-.62,2.85,3.52,3.52,0,0,1-1.45,2c-1.53.72-3.45-.9-4.3-2.05a9.11,9.11,0,0,1-1.18-2.14c-.3-.83-.42-1.69-.64-2.53a.34.34,0,0,0-.65,0Z" style="fill: #003178"/>
            <path d="M87.47,136.29a12.06,12.06,0,0,1,4.85-2.91,12.23,12.23,0,0,1,2.81-.53,6.74,6.74,0,0,1,2.93.25,1.73,1.73,0,0,1,1.2,2.09,5.44,5.44,0,0,1-1.91,2.27,12.13,12.13,0,0,1-5.27,2.68c-.74.17-.53,1.22.17,1.27,2,.11,3.75-1,5.23-2.16s3.26-2.59,3.26-4.55-1.82-3-3.53-3.18a12.28,12.28,0,0,0-5.5.77,9.75,9.75,0,0,0-4.8,3.58c-.22.34.27.69.56.42Z" style="fill: #003178"/>
            <path d="M92.23,141.3a7.57,7.57,0,0,1,6.15,1.31c.89.62,4.46,3.6,2.31,4.51a13.88,13.88,0,0,1-6.58.69,8.53,8.53,0,0,1-2.63-.65,6.7,6.7,0,0,1-1.08-.67,5.16,5.16,0,0,0-1-.79.43.43,0,0,0-.52.29A2.38,2.38,0,0,0,90,148a7,7,0,0,0,2.48,1.06,15.92,15.92,0,0,0,6.45,0,7,7,0,0,0,3-1,2.41,2.41,0,0,0,.78-2.54A5.87,5.87,0,0,0,101,143a11.3,11.3,0,0,0-2.28-1.8,7.46,7.46,0,0,0-6.71-.68.41.41,0,0,0,.22.78Z" style="fill: #003178"/>
            <path d="M88,146.77c1.25,1.25,3.11,1.71,4.26,3.06a7,7,0,0,1,1.28,4.85c-.19,3.79-2.2,7.56-.67,11.33a5,5,0,0,0,3.73,3.41c.64.08.83-.89.32-1.18A5.49,5.49,0,0,1,94.1,165a11.21,11.21,0,0,1,0-5.49c.62-3.35,1.56-7.32-.81-10.25-1.3-1.6-3.32-1.9-5-2.93a.27.27,0,0,0-.33.43Z" style="fill: #003178"/>
            <path d="M78.78,151.91a9.7,9.7,0,0,0-1.68,4.17,9.49,9.49,0,0,0,0,2.26,2.93,2.93,0,0,0,.7,1.93.41.41,0,0,0,.69-.18,4.73,4.73,0,0,0-.16-1.83,10.52,10.52,0,0,1-.06-2,9.47,9.47,0,0,1,1.11-4,.34.34,0,0,0-.59-.34Z" style="fill: #003178"/>
            <path d="M80.14,164.16a16.89,16.89,0,0,0,10.39,6.2,8.3,8.3,0,0,0,4.2,0,.54.54,0,0,0,0-1c-1.23-.32-2.56-.19-3.82-.39a19.49,19.49,0,0,1-3.74-1,18.09,18.09,0,0,1-6.58-4.24c-.29-.3-.7.14-.45.45Z" style="fill: #003178"/>
            <path d="M96.17,168a28.4,28.4,0,0,1-5-4.34,11.69,11.69,0,0,1-1.63-2.54c-.45-.93-.58-2-1.09-2.9a.43.43,0,0,0-.78.1,4.54,4.54,0,0,0,.43,3.18,11.55,11.55,0,0,0,1.83,2.95,28.7,28.7,0,0,0,5.56,4.74c.72.51,1.39-.67.69-1.19Z" style="fill: #003178"/>
            <path d="M96.5,140c2.17-.38,4.16.71,6.09,1.53A11.66,11.66,0,0,0,116.91,138c.39-.51-.35-1.13-.84-.84a2.32,2.32,0,0,0-1,1.9c-.1.89-.13,1.79-.3,2.68a18.47,18.47,0,0,1-1.81,5.2,17.76,17.76,0,0,1-7.87,7.75,10.77,10.77,0,0,1-6.74,1,.52.52,0,0,0-.27,1c4,1.48,8.18-.47,11.25-3a19.63,19.63,0,0,0,6.17-9.47,19.89,19.89,0,0,0,.63-3.05c.07-.55.11-1.1.13-1.65s0-1,.45-1.26l-.75-1a11,11,0,0,1-8.84,4.22,16.35,16.35,0,0,1-5.36-1.32,9.8,9.8,0,0,0-5.43-.82c-.47.09-.26.78.19.7Z" style="fill: #003178"/>
            <path d="M96.84,150.23a14.56,14.56,0,0,0,8.89-.69,26.41,26.41,0,0,0,4.13-2c.68-.41,1.34-.83,2-1.27a8,8,0,0,0,1.84-1.48.36.36,0,0,0-.35-.59,16.57,16.57,0,0,0-3.65,2.13,32.51,32.51,0,0,1-4,2.11A14.76,14.76,0,0,1,97,149.65a.3.3,0,0,0-.16.58Z" style="fill: #003178"/>
            <path d="M90.63,133.5c3.38-3.83,8.83-8.18,14.26-5.87,2.06.88,3.91,2.8,3.84,5.17a3.23,3.23,0,0,1-1.1,2.51,2.32,2.32,0,0,1-2.93-.15,2.12,2.12,0,0,1,.11-3.14,2,2,0,0,1,1.52-.35,6.33,6.33,0,0,1,1.56.78c.28.13.76,0,.7-.4-.19-1.44-2-1.92-3.25-1.7a3.27,3.27,0,0,0-2.63,3c-.34,3.14,3.53,4.95,5.87,3s1.71-5.45,0-7.52A8.94,8.94,0,0,0,99.9,126c-4.16.82-7.21,3.82-9.71,7-.23.31.17.75.44.44Z" style="fill: #003178"/>
            <path d="M100.15,157.65c-.3,1.9-1.08,3.77-.07,5.6a4.69,4.69,0,0,0,4.2,2.4,5.21,5.21,0,0,0,4.31-2.67c.88-1.53,1.18-3.84.12-5.35-.13-.18-.49-.14-.46.13.12,1.57.34,3.05-.5,4.48a4.47,4.47,0,0,1-3.57,2.14,3.65,3.65,0,0,1-3.26-1.83c-.84-1.49-.13-3.22.06-4.79.06-.47-.76-.59-.83-.11Z" style="fill: #003178"/>
            <path d="M101.53,160.72l2.43-1.81c.66-.49,1.67-1,2-1.78a.33.33,0,0,0-.36-.47c-.84.14-1.6,1-2.25,1.5L101,160c-.39.31.13,1,.53.7Z" style="fill: #003178"/>
            <path d="M102.77,161.79l1.91-1.56a9,9,0,0,0,1.7-1.55c.21-.28-.18-.56-.44-.44a10,10,0,0,0-1.85,1.4l-1.9,1.58c-.4.33.17.9.58.57Z" style="fill: #003178"/>
            <path d="M101.22,158.12l1.82,2a9.2,9.2,0,0,0,1.78,1.85.31.31,0,0,0,.42-.42,9.13,9.13,0,0,0-1.69-1.94l-1.86-2c-.29-.32-.75.15-.47.47Z" style="fill: #003178"/>
            <path d="M103.81,156.83l1.55,1.8c.44.51.9,1.29,1.52,1.59.22.11.54-.07.44-.34A5.44,5.44,0,0,0,106,158.2l-1.68-1.85c-.3-.32-.75.15-.48.48Z" style="fill: #003178"/>
            <path d="M109.66,153.66c1.37-1,2.71-2.49,4.52-2.57a2.6,2.6,0,0,1,2.62,2.9A4.56,4.56,0,0,1,114,157.5a10.4,10.4,0,0,1-2.31.75c-.89.2-1.76.12-2.65.25a.5.5,0,0,0-.22.83c.91.73,2.18.49,3.24.26a9.84,9.84,0,0,0,3-1.14,5.51,5.51,0,0,0,2.89-4.74,3.71,3.71,0,0,0-3.16-3.6c-2.3-.2-4,1.72-5.6,3-.31.25.1.79.43.56Z" style="fill: #003178"/>
            <path d="M109.12,159.32a13.55,13.55,0,0,1,4.58,1.85,9.67,9.67,0,0,1,1.9,1.65c.45.52,1.31,1.5,1.06,2.26s-1.52,1-2.22,1a8.63,8.63,0,0,1-2.67-.34,14.38,14.38,0,0,1-2.54-.95c-.84-.41-1.61-.94-2.47-1.28a.44.44,0,0,0-.49.64c1.22,1.75,3.75,2.69,5.77,3.12,1.79.38,4.89.43,5.77-1.61s-1.36-3.95-2.72-4.94a12.91,12.91,0,0,0-5.76-2.21c-.49-.08-.73.66-.21.77Z" style="fill: #003178"/>
            <path d="M101.26,164.31a7.25,7.25,0,0,0-1.58,2.36,9.2,9.2,0,0,0-.86,2.61,6.25,6.25,0,0,0,.89,4.54,4.12,4.12,0,0,0,4.23,1.93c1.62-.42,2.9-2.05,3.74-3.41a10.39,10.39,0,0,0,1.15-2.62,4.58,4.58,0,0,0,.14-2.92.58.58,0,0,0-1,0,4.49,4.49,0,0,0-.38,1.31c-.1.39-.2.79-.33,1.18a9.89,9.89,0,0,1-1.12,2.4c-.83,1.3-2.3,3.21-4,2.27a4.25,4.25,0,0,1-1.9-3.75,7.79,7.79,0,0,1,.61-2.81,28.34,28.34,0,0,0,1.16-2.65.45.45,0,0,0-.74-.44Z" style="fill: #003178"/>
            <path d="M100.51,158.94a8.58,8.58,0,0,0-3.36-1.13c-.88-.1-2.5-.18-3.06.65a.25.25,0,0,0,.09.33,2,2,0,0,0,1.16.09,9.51,9.51,0,0,1,1.6,0,7.42,7.42,0,0,1,3.08.9.48.48,0,0,0,.49-.83Z" style="fill: #003178"/>
            <path d="M95,167.37a8.42,8.42,0,0,0,3.26-.88c.88-.46,2.07-1.22,2.23-2.29,0-.2-.13-.46-.37-.37a14.28,14.28,0,0,0-2.33,1.65,7.59,7.59,0,0,1-2.89,1.09c-.45.07-.35.83.1.8Z" style="fill: #003178"/>
            <path d="M87.31,168.72c-2.1.54-2.72,3.71-3.31,5.44-.47,1.38-1,2.76-1.51,4.11-.4,1-1.36,2.76-2.72,2.08l-.41,1a31.89,31.89,0,0,0,5.13.92,21.26,21.26,0,0,0,5.22-.31,22,22,0,0,0,5-1.58A12.1,12.1,0,0,0,99,177.42a.36.36,0,0,0-.43-.56c-1.44.75-2.79,1.65-4.27,2.34a20.93,20.93,0,0,1-4.77,1.54,18.51,18.51,0,0,1-9.85-.45c-.57-.22-.89.66-.4,1a2.54,2.54,0,0,0,3.17-.56,11,11,0,0,0,1.85-3.85c.53-1.45,1-2.93,1.48-4.4a8.44,8.44,0,0,1,.74-1.75,8.7,8.7,0,0,1,1.16-1.41.34.34,0,0,0-.33-.56Z" style="fill: #003178"/>
            <path d="M88.2,177.13a24.75,24.75,0,0,0,5.1-2.47A22.49,22.49,0,0,0,95.52,173a5.41,5.41,0,0,0,1.77-2,.37.37,0,0,0-.46-.46,7.59,7.59,0,0,0-2,1.51c-.73.59-1.44,1.19-2.2,1.73a29.3,29.3,0,0,1-4.71,2.76c-.35.16-.1.76.27.63Z" style="fill: #003178"/>
            <path d="M108.37,166.39A16.64,16.64,0,0,1,111.91,177c-.07,3.78-1.42,8.34-5,10.13-.59.29-6.6,2.85-6.79,2.26l-.15.59a10.57,10.57,0,0,0,2.53-6.75,8,8,0,0,0-.75-3.55c-.43-1-1.24-2.34-.88-3.44a.49.49,0,0,0-.9-.38,3.14,3.14,0,0,0-.41,2.09,9.51,9.51,0,0,0,.9,2.36,7.87,7.87,0,0,1,.34,5.2,9.56,9.56,0,0,1-.82,2.34,6.45,6.45,0,0,1-.73,1.11c-.27.34-.42.6-.19,1,.72,1.38,2.87.4,3.89.06a26.72,26.72,0,0,0,5.17-2.18,8.63,8.63,0,0,0,3.26-3.76,16.82,16.82,0,0,0,1.54-8.95,16.33,16.33,0,0,0-4-9.25c-.32-.36-.82.16-.52.53Z" style="fill: #003178"/>
            <path d="M104,174.86a26.12,26.12,0,0,1,.46,6.83,11,11,0,0,1-.55,2.79c-.31.87-1,1.64-1.19,2.53a.42.42,0,0,0,.51.51,3.64,3.64,0,0,0,1.81-2.21,10.74,10.74,0,0,0,.71-3.21,21.07,21.07,0,0,0-.82-7.49.48.48,0,0,0-.93.25Z" style="fill: #003178"/>
            <path d="M109.63,166.85a10.67,10.67,0,0,1,6.87,4.74,4.07,4.07,0,0,1,.52,2.08c0,.58-.24,1.59-.94,1.72a1.69,1.69,0,0,1-1.47-.93c-.37-.68.49-.82,1-1.11a.51.51,0,0,0-.12-.91,1.92,1.92,0,0,0-2.24,1.08,2.37,2.37,0,0,0,.91,2.5,2.53,2.53,0,0,0,2.64.54,3,3,0,0,0,1.47-2.28c.37-2.21-.93-4.22-2.54-5.6a11.51,11.51,0,0,0-5.84-2.63c-.51-.07-.75.68-.22.8Z" style="fill: #003178"/>
            <path d="M73.62,188.46c-.08-1.55-.5-3-.67-4.57a6.36,6.36,0,0,1,1-4.38c.66-1,1.62-2.39,2.9-2.62a2.25,2.25,0,0,1,1.81.6c.51.42.93,1.08,1.57,1.29a.57.57,0,0,0,.71-.55,3.28,3.28,0,0,0-1.4-1.91,4,4,0,0,0-2.2-.93c-1.7-.11-3,1.19-3.88,2.45a7.38,7.38,0,0,0-1.61,4.91c.13,1.94.83,3.78,1,5.71,0,.53.85.54.83,0Z" style="fill: #003178"/>
            <path d="M81.1,182.64a19.59,19.59,0,0,1,.31,3.05,10.5,10.5,0,0,0-.06,2.74.31.31,0,0,0,.51.13c.8-.66.77-1.93.71-2.87a23,23,0,0,0-.52-3.31c-.13-.63-1-.35-1,.26Z" style="fill: #003178"/>
            <path d="M82.67,189c-.36-3,3-5.75,5.91-5.45A3.09,3.09,0,0,1,91.23,186a4.63,4.63,0,0,1,0,2.22c-.18.78-.6,1.51-.73,2.3a.37.37,0,0,0,.62.36,5.1,5.1,0,0,0,1.35-2.55,6,6,0,0,0,.1-2.79,4.28,4.28,0,0,0-3.67-3.45c-3.74-.48-7.77,3.06-6.88,6.94.08.38.74.3.69-.1Z" style="fill: #003178"/>
            <path d="M73,185.88c-1.53-3.35-4.36-7-8.5-6.52a4,4,0,0,0-3.84,3.36c-.27,2,.87,3.74,2.12,5.19a17.59,17.59,0,0,0,2.49,2.39,16.11,16.11,0,0,0,1.35.93,4.88,4.88,0,0,0,1.65.68.39.39,0,0,0,.37-.64,9.89,9.89,0,0,0-1.16-1.08c-.46-.34-.88-.73-1.31-1.11a21.76,21.76,0,0,1-2.2-2.2c-1.11-1.28-2.68-3.56-1.21-5.16s3.88-.93,5.39,0a11.11,11.11,0,0,1,3.9,4.75c.33.63,1.24.08.95-.55Z" style="fill: #003178"/>
            <path d="M69.64,182a8.11,8.11,0,0,1,1.61-5,19.6,19.6,0,0,1,1.63-2,5.37,5.37,0,0,0,1.41-1.85.29.29,0,0,0-.35-.36,5.17,5.17,0,0,0-2,1.7,14.72,14.72,0,0,0-1.73,2.28A7.77,7.77,0,0,0,69,182.08c.06.35.64.27.62-.08Z" style="fill: #003178"/>
            <path d="M77.74,168.91a12.55,12.55,0,0,1,1.88,3.42A12.37,12.37,0,0,1,80.1,174a5.2,5.2,0,0,0,.41,1.8.41.41,0,0,0,.7,0,3,3,0,0,0,.06-1.91,9.52,9.52,0,0,0-.6-2.1,9.68,9.68,0,0,0-2.43-3.43c-.34-.32-.78.15-.5.51Z" style="fill: #003178"/>
            <path d="M75.45,170a9.33,9.33,0,0,1,1,2.93,10.58,10.58,0,0,1,.14,1.49,4.67,4.67,0,0,0,.08,1.45.48.48,0,0,0,.87.12c.53-.86.25-2.33,0-3.26a10,10,0,0,0-1.39-3.13.39.39,0,0,0-.68.4Z" style="fill: #003178"/>
            <path d="M126.31,157.13c-2.48-.81-3-3.87-3.81-6a8,8,0,0,0-1.72-2.94c-.66-.65-1.8-1.4-2.78-1.11a.44.44,0,0,0-.19.72c.39.31.86.48,1.25.79a6.36,6.36,0,0,1,1.12,1.14,13.23,13.23,0,0,1,1.66,3.55c.77,2,2,4.17,4.22,4.74a.47.47,0,0,0,.25-.9Z" style="fill: #003178"/>
            <path d="M117.18,148.09a3.7,3.7,0,0,1,1.19,3.22c-.11,1.35-.84,2.54-.93,3.87a.22.22,0,0,0,.37.15,6.34,6.34,0,0,0,1.43-4.39,4.23,4.23,0,0,0-1.72-3.29c-.25-.18-.58.24-.34.44Z" style="fill: #003178"/>
            <path d="M116.18,156.68a7.32,7.32,0,0,0-.8,2.66,3.85,3.85,0,0,0,.48,2.63.44.44,0,0,0,.74-.19,15.13,15.13,0,0,0-.14-2.32,8.2,8.2,0,0,1,.36-2.51c.12-.38-.47-.64-.64-.27Z" style="fill: #003178"/>
            <path d="M119.72,154.58a13.5,13.5,0,0,0-.5,7.88,13.75,13.75,0,0,0,1.44,3.64c.6,1.06,1.45,2.42,2.66,2.85a.4.4,0,0,0,.48-.49,18.42,18.42,0,0,0-1.9-3,14.47,14.47,0,0,1-1.49-10.72.36.36,0,0,0-.69-.19Z" style="fill: #003178"/>
            <path d="M115.85,167.05a9.44,9.44,0,0,0,5.57,4.59,9,9,0,0,0,4,.22c1.12-.17,2.86-.58,3.52-1.58a.44.44,0,0,0-.38-.66,5.6,5.6,0,0,0-1.52.48,9.37,9.37,0,0,1-1.66.41,9.09,9.09,0,0,1-3.56-.18,8.78,8.78,0,0,1-5.2-3.71.42.42,0,0,0-.73.43Z" style="fill: #003178"/>
            <path d="M129.67,127.65c-1.8-.63-3.87-1.19-5.56,0a4.58,4.58,0,0,0-1.83,4.15,5,5,0,0,0,2.86,3.82,4.68,4.68,0,0,0,2.6.47c.74-.09,2-.45,1.92-1.41a.46.46,0,0,0-.33-.43c-.57-.17-1.2.21-1.79.2a3.91,3.91,0,0,1-1.71-.38,3.53,3.53,0,0,1-2-2.55,3.24,3.24,0,0,1,1.22-2.91c1.27-1,3-.44,4.33,0,.64.19.89-.77.27-1Z" style="fill: #003178"/>
            <path d="M125.08,127.31c-1.89-3.88-6.26-6.89-10.63-5.06a6,6,0,0,0-3.6,4.42A5.32,5.32,0,0,0,113,132a8,8,0,0,0,7.72.73c.57-.24.6-1.27-.16-1.2-1.94.17-4,.53-5.86-.37a3.91,3.91,0,0,1-2.36-3.71c.22-3.75,4.55-5,7.55-3.67a9,9,0,0,1,4.2,4.17c.36.67,1.35.08,1-.6Z" style="fill: #003178"/>
            <path d="M121.91,131.84a5.07,5.07,0,0,0-5.24,2.59c-1,1.76-1.46,4.41-.43,6.27,1.18,2.12,3.85,2.21,5.82,1.25,1.64-.8,4-2.84,3.65-4.91a.51.51,0,0,0-.85-.23c-.52.58-.84,1.33-1.36,1.91a7.54,7.54,0,0,1-1.73,1.46c-1.25.75-3.3,1.14-4.15-.4-.72-1.3-.37-3.26.22-4.55a3.89,3.89,0,0,1,3.94-2.43c.54.07.67-.86.13-1Z" style="fill: #003178"/>
            <path d="M125.1,135.49c-1,1.63-2.07,3.41-2,5.4A4.43,4.43,0,0,0,126,145a5.91,5.91,0,0,0,5.32-.74,9.15,9.15,0,0,0,2.85-3.23,2.47,2.47,0,0,0,.47-1.34.64.64,0,0,0-.95-.55c-.59.29-1,1.14-1.41,1.64a9.33,9.33,0,0,1-1.58,1.56,4.59,4.59,0,0,1-3.85,1,3,3,0,0,1-2.25-2.77,8.34,8.34,0,0,1,1.5-4.41.57.57,0,0,0-1-.57Z" style="fill: #003178"/>
            <path d="M125,131.23c.8-.45,1.63-.86,2.46-1.26s1.7-.63,2.13-1.33a.48.48,0,0,0-.29-.7,3.91,3.91,0,0,0-2.39.86c-.83.49-1.62,1-2.4,1.59a.49.49,0,0,0,.49.84Z" style="fill: #003178"/>
            <path d="M125.93,133.05a33.49,33.49,0,0,0,3-1.45c.74-.41,2.09-.91,2.33-1.78a.4.4,0,0,0-.38-.5,2.12,2.12,0,0,0-1.3.54c-.43.28-.87.56-1.32.82a31.12,31.12,0,0,1-2.86,1.5c-.6.28-.08,1.12.51.87Z" style="fill: #003178"/>
            <path d="M124.86,127.49l1.74,2.88a9.66,9.66,0,0,0,1.79,2.65.35.35,0,0,0,.57-.34,9.31,9.31,0,0,0-1.62-2.74l-1.85-2.82c-.26-.39-.87,0-.63.37Z" style="fill: #003178"/>
            <path d="M123,140c-2.13,2.3-2.25,6.29-1.19,9.08a10.61,10.61,0,0,0,2.38,3.74c.94,1,2.4,2.18,3.82,2,.29,0,.58-.36.37-.65A4.74,4.74,0,0,0,127,153a11,11,0,0,1-1.47-1.26,9.72,9.72,0,0,1-2.12-3.1,9.85,9.85,0,0,1-.71-4.05,17.26,17.26,0,0,1,.89-4.21A.37.37,0,0,0,123,140Z" style="fill: #003178"/>
            <path d="M63.62,123c-2.1-.11-4.42-.1-6,1.46s-1.58,4.06-.81,5.92a5.11,5.11,0,0,0,4.72,3.27,5.91,5.91,0,0,0,4.89-3.29c.22-.47-.3-1.23-.83-.82-1.17.91-2.26,2.09-3.81,2.3a3.45,3.45,0,0,1-3.45-2.1c-.62-1.33-.69-3.32.42-4.42s3.26-1.17,4.9-1.14a.59.59,0,0,0,0-1.18Z" style="fill: #003178"/>
            <path d="M40.5,126.87a3.47,3.47,0,0,1,3.55-.05,5.87,5.87,0,0,1,2.86,2.81,3.82,3.82,0,0,1-.47,3.94c-.83,1-2,1.49-3,2.34-.4.35,0,.89.47.81a6.35,6.35,0,0,0,3.94-2.89,5.16,5.16,0,0,0,0-5.05c-1.36-2.57-5.44-4.83-7.95-2.46-.37.35.17.85.55.55Z" style="fill: #003178"/>
          </g>
        </g>
        <path d="M126.56,124.67c0,1.6-3.87,3.08-10.19,4.16-6.77,1.16-18.39,1.89-29,1.89-6.7,0-15-.29-20.43-.79-3.19-.3-6.09-.68-8.61-1.1l-.58-.1c-6-1.07-9.6-2.5-9.6-4.06,0-3.34,18.66-6,39.22-6S126.56,121.33,126.56,124.67Z" style="fill: #374591"/>
        <path d="M116.37,128.83c-6.77,1.16-18.39,1.89-29,1.89s-22.26-.73-29-1.89c6.78-1.17,18.39-1.9,29-1.9S109.6,127.66,116.37,128.83Z" style="fill: #402700"/>
        <path d="M128.66,125.32a2.92,2.92,0,0,1-1.28,2.2,11.15,11.15,0,0,1-2.25,1.38,33.39,33.39,0,0,1-4.9,1.87,77.08,77.08,0,0,1-10.18,2.15,172.63,172.63,0,0,1-22.72,1.43,175.76,175.76,0,0,1-21.26-1.23c.06.83.29,34,6.88,50.49a23,23,0,0,1-6.27-1.17C56.46,169.09,56.32,133,56.25,131.26c-.62-.15-1.22-.31-1.83-.49a33.28,33.28,0,0,1-4.89-1.87,10.55,10.55,0,0,1-2.24-1.38,2.84,2.84,0,0,1-1.28-2.2,2.7,2.7,0,0,0,1.49,1.91,11.16,11.16,0,0,0,2.29,1.08,32.69,32.69,0,0,0,4.92,1.31l1.48.28c2.86.52,5.75.86,8.65,1.15.36,0,.73.07,1.1.09,6.44.57,14.92.8,21.39.8,6.85,0,15.69-.25,22.49-.89A101.78,101.78,0,0,0,120,129.62a33,33,0,0,0,4.92-1.3,11.66,11.66,0,0,0,2.28-1.09A2.79,2.79,0,0,0,128.66,125.32Z" style="fill: #8899c8;opacity: 0.5;mix-blend-mode: screen"/>
        <g style="clip-path: url(#clip-path-3)">
          <g style="opacity: 0.30000000000000004;mix-blend-mode: screen">
            <ellipse cx="94.49" cy="129.16" rx="1.06" ry="0.99" style="fill: #ded9d6"/>
            <ellipse cx="91.34" cy="128.1" rx="1.06" ry="0.99" style="fill: #ded9d6"/>
            <path d="M98.66,129.84a.74.74,0,1,1-.73-.68A.71.71,0,0,1,98.66,129.84Z" style="fill: #ded9d6"/>
            <path d="M94,127.84a.73.73,0,1,1-.73-.68A.7.7,0,0,1,94,127.84Z" style="fill: #ded9d6"/>
            <path d="M90.12,127.78a.73.73,0,0,1-1.46,0,.73.73,0,0,1,1.46,0Z" style="fill: #ded9d6"/>
            <path d="M83.54,127.84a.73.73,0,0,1-1.46,0,.73.73,0,0,1,1.46,0Z" style="fill: #ded9d6"/>
            <path d="M81.86,127.84a.73.73,0,1,1-.73-.68A.7.7,0,0,1,81.86,127.84Z" style="fill: #ded9d6"/>
            <path d="M74,128.33a.73.73,0,1,1-.73-.69A.71.71,0,0,1,74,128.33Z" style="fill: #ded9d6"/>
            <path d="M102.12,130.32a.73.73,0,0,1-1.46,0,.73.73,0,0,1,1.46,0Z" style="fill: #ded9d6"/>
            <path d="M99.94,129.22a.52.52,0,1,1-.52-.49A.5.5,0,0,1,99.94,129.22Z" style="fill: #ded9d6"/>
            <path d="M102.74,128.17a.74.74,0,1,1-.74-.69A.72.72,0,0,1,102.74,128.17Z" style="fill: #ded9d6"/>
            <path d="M100.84,129.63a.37.37,0,1,1-.36-.34A.35.35,0,0,1,100.84,129.63Z" style="fill: #ded9d6"/>
            <path d="M101.14,128.63a.52.52,0,1,1-.51-.49A.5.5,0,0,1,101.14,128.63Z" style="fill: #ded9d6"/>
            <path d="M106.26,128.43a.52.52,0,1,1-.52-.49A.5.5,0,0,1,106.26,128.43Z" style="fill: #ded9d6"/>
            <path d="M107.53,128.52a.5.5,0,0,1-.52.49.51.51,0,0,1-.52-.49A.5.5,0,0,1,107,128,.5.5,0,0,1,107.53,128.52Z" style="fill: #ded9d6"/>
            <path d="M100.31,128a.37.37,0,1,1-.37-.34A.36.36,0,0,1,100.31,128Z" style="fill: #ded9d6"/>
            <path d="M102.74,129.29a.37.37,0,1,1-.37-.34A.36.36,0,0,1,102.74,129.29Z" style="fill: #ded9d6"/>
            <path d="M103,130a.37.37,0,0,1-.74,0,.37.37,0,0,1,.74,0Z" style="fill: #ded9d6"/>
            <ellipse cx="106.26" cy="129.23" rx="0.37" ry="0.34" style="fill: #ded9d6"/>
            <path d="M108.49,128.52a.37.37,0,1,1-.36-.34A.35.35,0,0,1,108.49,128.52Z" style="fill: #ded9d6"/>
            <path d="M101.21,127.78a.36.36,0,0,1-.37.34.34.34,0,1,1,0-.68A.36.36,0,0,1,101.21,127.78Z" style="fill: #ded9d6"/>
            <ellipse cx="94.72" cy="127.48" rx="0.37" ry="0.34" style="fill: #ded9d6"/>
            <path d="M88.67,127.44a.37.37,0,1,1-.37-.34A.36.36,0,0,1,88.67,127.44Z" style="fill: #ded9d6"/>
            <path d="M86.54,127.38a.37.37,0,1,1-.37-.34A.37.37,0,0,1,86.54,127.38Z" style="fill: #ded9d6"/>
            <path d="M85.68,127.38a.37.37,0,0,1-.73,0,.37.37,0,0,1,.73,0Z" style="fill: #ded9d6"/>
            <path d="M84.81,127.44a.37.37,0,1,1-.36-.34A.35.35,0,0,1,84.81,127.44Z" style="fill: #ded9d6"/>
            <path d="M82.37,128.67A.35.35,0,0,1,82,129a.34.34,0,1,1,0-.68A.35.35,0,0,1,82.37,128.67Z" style="fill: #ded9d6"/>
            <path d="M80.32,127.58a.37.37,0,1,1-.37-.34A.36.36,0,0,1,80.32,127.58Z" style="fill: #ded9d6"/>
            <path d="M74.77,127.83a.37.37,0,1,1-.36-.34A.35.35,0,0,1,74.77,127.83Z" style="fill: #ded9d6"/>
            <path d="M72.48,128.08a.37.37,0,0,1-.74,0,.37.37,0,0,1,.74,0Z" style="fill: #ded9d6"/>
            <path d="M71.64,128.17a.35.35,0,0,1-.36.34.34.34,0,1,1,0-.68A.35.35,0,0,1,71.64,128.17Z" style="fill: #ded9d6"/>
            <path d="M70.28,128.27a.37.37,0,1,1-.37-.34A.36.36,0,0,1,70.28,128.27Z" style="fill: #ded9d6"/>
            <path d="M68.15,128.47a.35.35,0,0,1-.36.34.36.36,0,0,1-.37-.34.37.37,0,0,1,.37-.35A.36.36,0,0,1,68.15,128.47Z" style="fill: #ded9d6"/>
            <path d="M68.94,128.42a.35.35,0,0,1-.36.34.34.34,0,1,1,0-.68A.35.35,0,0,1,68.94,128.42Z" style="fill: #ded9d6"/>
            <path d="M72.11,128.81a.37.37,0,1,1-.37-.34A.35.35,0,0,1,72.11,128.81Z" style="fill: #ded9d6"/>
            <path d="M79,127.63a.37.37,0,0,1-.73,0,.37.37,0,0,1,.73,0Z" style="fill: #ded9d6"/>
            <path d="M108.94,128.4a.12.12,0,0,1-.13.12.12.12,0,0,1-.12-.12.12.12,0,0,1,.12-.12A.13.13,0,0,1,108.94,128.4Z" style="fill: #ded9d6"/>
            <path d="M103.32,127.92a.21.21,0,0,1-.21.2.2.2,0,0,1-.21-.2.2.2,0,0,1,.21-.19A.2.2,0,0,1,103.32,127.92Z" style="fill: #ded9d6"/>
            <path d="M95.5,127.92a.2.2,0,0,1-.21.2.21.21,0,0,1-.21-.2.2.2,0,0,1,.21-.19A.2.2,0,0,1,95.5,127.92Z" style="fill: #ded9d6"/>
            <ellipse cx="93.02" cy="128.86" rx="0.21" ry="0.19" style="fill: #ded9d6"/>
            <path d="M87.76,127.29a.2.2,0,0,1-.21.19.2.2,0,0,1-.21-.19.21.21,0,0,1,.21-.2A.2.2,0,0,1,87.76,127.29Z" style="fill: #ded9d6"/>
            <path d="M78.16,127.51a.2.2,0,0,1-.21.2.2.2,0,1,1,0-.39A.2.2,0,0,1,78.16,127.51Z" style="fill: #ded9d6"/>
            <path d="M78.26,128a.2.2,0,0,1-.21.19.2.2,0,0,1-.21-.19.2.2,0,0,1,.21-.2A.21.21,0,0,1,78.26,128Z" style="fill: #ded9d6"/>
            <path d="M75.27,127.63a.2.2,0,0,1-.21.2.2.2,0,1,1,.21-.2Z" style="fill: #ded9d6"/>
            <path d="M72.69,129a.21.21,0,0,1-.21.2.2.2,0,1,1,0-.39A.21.21,0,0,1,72.69,129Z" style="fill: #ded9d6"/>
            <path d="M70.75,128.08a.21.21,0,0,1-.21.19.2.2,0,1,1,0-.39A.21.21,0,0,1,70.75,128.08Z" style="fill: #ded9d6"/>
            <path d="M69.46,128.17a.2.2,0,0,1-.21.2.21.21,0,0,1-.21-.2.2.2,0,0,1,.21-.19A.2.2,0,0,1,69.46,128.17Z" style="fill: #ded9d6"/>
            <ellipse cx="67.13" cy="128.42" rx="0.21" ry="0.19" style="fill: #ded9d6"/>
            <path d="M90.49,127.29a.2.2,0,0,1-.21.19.19.19,0,0,1-.2-.19.2.2,0,0,1,.2-.2A.2.2,0,0,1,90.49,127.29Z" style="fill: #ded9d6"/>
            <path d="M88.51,128.12a.21.21,0,0,1-.21.19.2.2,0,1,1,0-.39A.21.21,0,0,1,88.51,128.12Z" style="fill: #ded9d6"/>
            <path d="M87.19,127.32a.2.2,0,0,1-.21.19.19.19,0,0,1-.2-.19.2.2,0,0,1,.2-.2A.2.2,0,0,1,87.19,127.32Z" style="fill: #ded9d6"/>
            <path d="M86,127.92a.21.21,0,0,1-.21.2.2.2,0,0,1-.21-.2.2.2,0,0,1,.21-.19A.2.2,0,0,1,86,127.92Z" style="fill: #ded9d6"/>
            <path d="M84,127.29a.2.2,0,0,1-.21.19.2.2,0,0,1-.21-.19.2.2,0,0,1,.21-.2A.21.21,0,0,1,84,127.29Z" style="fill: #ded9d6"/>
            <path d="M82.15,127.29a.2.2,0,0,1-.21.19.2.2,0,0,1-.21-.19.21.21,0,0,1,.21-.2A.2.2,0,0,1,82.15,127.29Z" style="fill: #ded9d6"/>
            <path d="M85.16,127.92a.21.21,0,0,1-.21.2.2.2,0,0,1-.21-.2.2.2,0,0,1,.21-.19A.2.2,0,0,1,85.16,127.92Z" style="fill: #ded9d6"/>
            <path d="M80.37,128.27a.21.21,0,0,1-.21.2.2.2,0,0,1-.21-.2.2.2,0,0,1,.21-.19A.2.2,0,0,1,80.37,128.27Z" style="fill: #ded9d6"/>
            <path d="M79.46,127.44a.2.2,0,0,1-.21.19.19.19,0,0,1-.2-.19.2.2,0,0,1,.2-.2A.2.2,0,0,1,79.46,127.44Z" style="fill: #ded9d6"/>
            <path d="M95.75,127.48a.2.2,0,0,1-.21.2.21.21,0,0,1-.21-.2.2.2,0,0,1,.21-.19A.2.2,0,0,1,95.75,127.48Z" style="fill: #ded9d6"/>
            <path d="M105.16,128a.2.2,0,0,1-.21.19.2.2,0,0,1-.21-.19.2.2,0,0,1,.21-.2A.21.21,0,0,1,105.16,128Z" style="fill: #ded9d6"/>
            <path d="M109.4,128.43a.12.12,0,0,1-.13.11.11.11,0,0,1-.12-.11.12.12,0,0,1,.12-.12A.12.12,0,0,1,109.4,128.43Z" style="fill: #ded9d6"/>
            <ellipse cx="94.49" cy="130.66" rx="0.37" ry="0.34" style="fill: #ded9d6"/>
            <path d="M98.48,131.47a.74.74,0,1,1-.74-.68A.72.72,0,0,1,98.48,131.47Z" style="fill: #ded9d6"/>
            <path d="M99.33,128.1a.84.84,0,1,1-.84-.78A.81.81,0,0,1,99.33,128.1Z" style="fill: #ded9d6"/>
            <path d="M100.59,130.83a1.06,1.06,0,0,1-2.11,0,1.06,1.06,0,0,1,2.11,0Z" style="fill: #ded9d6"/>
            <ellipse cx="96.14" cy="130.49" rx="1.06" ry="0.99" style="fill: #ded9d6"/>
            <path d="M97.65,128.43a1.06,1.06,0,0,1-2.11,0,1.06,1.06,0,0,1,2.11,0Z" style="fill: #ded9d6"/>
            <path d="M105,129a1.06,1.06,0,1,1-1.05-1A1,1,0,0,1,105,129Z" style="fill: #ded9d6"/>
          </g>
        </g>
      </g>
    </g>
  </g>
</svg>
