<svg id="Layer_1" data-name="Layer 1" xmlns="http://www.w3.org/2000/svg" viewBox="0 0 59.34 67.45">
  <g>
    <g style="isolation: isolate">
      <path d="M27.25,46.49a5.54,5.54,0,0,0,5-.05,1.75,1.75,0,0,0,1-1.43c0,3.79,0,15.94,0,19.73a1.74,1.74,0,0,1-1,1.43,5.48,5.48,0,0,1-5,0,1.77,1.77,0,0,1-1.07-1.46c0-3.79,0-15.94,0-19.73A1.78,1.78,0,0,0,27.25,46.49Z" style="fill: #9e7363"/>
    </g>
    <g>
      <g>
        <polygon points="29.67 1.39 29.73 58.66 48.65 47.67 29.67 1.39" style="fill: #98ad48"/>
        <polygon points="29.67 1.39 10.68 47.67 29.73 58.66 29.67 1.39" style="fill: #afc161"/>
      </g>
      <g>
        <polygon points="39.04 18.32 33.03 38.82 39.94 34.86 39.04 18.32" style="fill: #98ad48"/>
        <polygon points="39.04 18.32 32.25 28.84 33.03 38.82 39.04 18.32" style="fill: #afc161"/>
      </g>
      <g>
        <polygon points="47.59 38.31 34.89 53.21 41.81 49.25 47.59 38.31" style="fill: #98ad48"/>
        <polygon points="47.59 38.31 34.12 43.23 34.89 53.21 47.59 38.31" style="fill: #afc161"/>
      </g>
      <g>
        <polygon points="20.99 13.08 26.33 31.28 20.18 27.76 20.99 13.08" style="fill: #afc161"/>
        <polygon points="20.99 13.08 27.02 22.42 26.33 31.28 20.99 13.08" style="fill: #98ad48"/>
      </g>
      <g>
        <polygon points="12.04 34.22 23.32 47.45 17.17 43.94 12.04 34.22" style="fill: #afc161"/>
        <polygon points="12.04 34.22 24 38.59 23.32 47.45 12.04 34.22" style="fill: #98ad48"/>
      </g>
    </g>
  </g>
</svg>
